<svg version="1.1" style="font-family:Dosis, sans-serif;font-size:12px;" xmlns="http://www.w3.org/2000/svg" width="938" height="258"><desc>Created with Highcharts 4.0.4</desc><defs><clippath id="highcharts-5"><rect x="0" y="0" width="201" height="288"></rect></clippath></defs><path fill="#E3E3E3" d="M 444.5 42 L 444.5 243 492.5 243 492.5 42"></path><g class="highcharts-grid" zIndex="1"><path fill="none" d="M 325 76.5 L 613 76.5" stroke="#C0C0C0" stroke-width="1" zIndex="1" opacity="1"></path><path fill="none" d="M 325 109.5 L 613 109.5" stroke="#C0C0C0" stroke-width="1" zIndex="1" opacity="1"></path><path fill="none" d="M 325 143.5 L 613 143.5" stroke="#C0C0C0" stroke-width="1" zIndex="1" opacity="1"></path><path fill="none" d="M 325 176.5 L 613 176.5" stroke="#C0C0C0" stroke-width="1" zIndex="1" opacity="1"></path><path fill="none" d="M 325 210.5 L 613 210.5" stroke="#C0C0C0" stroke-width="1" zIndex="1" opacity="1"></path><path fill="none" d="M 325 243.5 L 613 243.5" stroke="#C0C0C0" stroke-width="1" zIndex="1" opacity="1"></path><path fill="none" d="M 325 41.5 L 613 41.5" stroke="#C0C0C0" stroke-width="1" zIndex="1" opacity="1"></path></g><g class="highcharts-grid" zIndex="1"><path fill="none" d="M 325 76.5 L 613 76.5" stroke="#C0C0C0" stroke-width="1" zIndex="1" opacity="1"></path><path fill="none" d="M 325 109.5 L 613 109.5" stroke="#C0C0C0" stroke-width="1" zIndex="1" opacity="1"></path><path fill="none" d="M 325 143.5 L 613 143.5" stroke="#C0C0C0" stroke-width="1" zIndex="1" opacity="1"></path><path fill="none" d="M 325 176.5 L 613 176.5" stroke="#C0C0C0" stroke-width="1" zIndex="1" opacity="1"></path><path fill="none" d="M 325 210.5 L 613 210.5" stroke="#C0C0C0" stroke-width="1" zIndex="1" opacity="1"></path><path fill="none" d="M 325 243.5 L 613 243.5" stroke="#C0C0C0" stroke-width="1" zIndex="1" opacity="1"></path><path fill="none" d="M 325 41.5 L 613 41.5" stroke="#C0C0C0" stroke-width="1" zIndex="1" opacity="1"></path></g><g class="highcharts-grid" zIndex="1"><path fill="none" d="M 324.5 42 L 324.5 243" stroke="#E0E0E0" stroke-width="1" opacity="1"></path><path fill="none" d="M 329.5 42 L 329.5 243" stroke="#E0E0E0" stroke-width="1" opacity="1"></path><path fill="none" d="M 334.5 42 L 334.5 243" stroke="#E0E0E0" stroke-width="1" opacity="1"></path><path fill="none" d="M 338.5 42 L 338.5 243" stroke="#E0E0E0" stroke-width="1" opacity="1"></path><path fill="none" d="M 343.5 42 L 343.5 243" stroke="#E0E0E0" stroke-width="1" opacity="1"></path><path fill="none" d="M 348.5 42 L 348.5 243" stroke="#E0E0E0" stroke-width="1" opacity="1"></path><path fill="none" d="M 353.5 42 L 353.5 243" stroke="#E0E0E0" stroke-width="1" opacity="1"></path><path fill="none" d="M 358.5 42 L 358.5 243" stroke="#E0E0E0" stroke-width="1" opacity="1"></path><path fill="none" d="M 362.5 42 L 362.5 243" stroke="#E0E0E0" stroke-width="1" opacity="1"></path><path fill="none" d="M 367.5 42 L 367.5 243" stroke="#E0E0E0" stroke-width="1" opacity="1"></path><path fill="none" d="M 372.5 42 L 372.5 243" stroke="#E0E0E0" stroke-width="1" opacity="1"></path><path fill="none" d="M 377.5 42 L 377.5 243" stroke="#E0E0E0" stroke-width="1" opacity="1"></path><path fill="none" d="M 382.5 42 L 382.5 243" stroke="#E0E0E0" stroke-width="1" opacity="1"></path><path fill="none" d="M 386.5 42 L 386.5 243" stroke="#E0E0E0" stroke-width="1" opacity="1"></path><path fill="none" d="M 391.5 42 L 391.5 243" stroke="#E0E0E0" stroke-width="1" opacity="1"></path><path fill="none" d="M 396.5 42 L 396.5 243" stroke="#E0E0E0" stroke-width="1" opacity="1"></path><path fill="none" d="M 401.5 42 L 401.5 243" stroke="#E0E0E0" stroke-width="1" opacity="1"></path><path fill="none" d="M 406.5 42 L 406.5 243" stroke="#E0E0E0" stroke-width="1" opacity="1"></path><path fill="none" d="M 410.5 42 L 410.5 243" stroke="#E0E0E0" stroke-width="1" opacity="1"></path><path fill="none" d="M 415.5 42 L 415.5 243" stroke="#E0E0E0" stroke-width="1" opacity="1"></path><path fill="none" d="M 420.5 42 L 420.5 243" stroke="#E0E0E0" stroke-width="1" opacity="1"></path><path fill="none" d="M 425.5 42 L 425.5 243" stroke="#E0E0E0" stroke-width="1" opacity="1"></path><path fill="none" d="M 430.5 42 L 430.5 243" stroke="#E0E0E0" stroke-width="1" opacity="1"></path><path fill="none" d="M 434.5 42 L 434.5 243" stroke="#E0E0E0" stroke-width="1" opacity="1"></path><path fill="none" d="M 439.5 42 L 439.5 243" stroke="#E0E0E0" stroke-width="1" opacity="1"></path><path fill="none" d="M 444.5 42 L 444.5 243" stroke="#E0E0E0" stroke-width="1" opacity="1"></path><path fill="none" d="M 449.5 42 L 449.5 243" stroke="#E0E0E0" stroke-width="1" opacity="1"></path><path fill="none" d="M 454.5 42 L 454.5 243" stroke="#E0E0E0" stroke-width="1" opacity="1"></path><path fill="none" d="M 458.5 42 L 458.5 243" stroke="#E0E0E0" stroke-width="1" opacity="1"></path><path fill="none" d="M 463.5 42 L 463.5 243" stroke="#E0E0E0" stroke-width="1" opacity="1"></path><path fill="none" d="M 468.5 42 L 468.5 243" stroke="#E0E0E0" stroke-width="1" opacity="1"></path><path fill="none" d="M 473.5 42 L 473.5 243" stroke="#E0E0E0" stroke-width="1" opacity="1"></path><path fill="none" d="M 478.5 42 L 478.5 243" stroke="#E0E0E0" stroke-width="1" opacity="1"></path><path fill="none" d="M 482.5 42 L 482.5 243" stroke="#E0E0E0" stroke-width="1" opacity="1"></path><path fill="none" d="M 487.5 42 L 487.5 243" stroke="#E0E0E0" stroke-width="1" opacity="1"></path><path fill="none" d="M 492.5 42 L 492.5 243" stroke="#E0E0E0" stroke-width="1" opacity="1"></path><path fill="none" d="M 497.5 42 L 497.5 243" stroke="#E0E0E0" stroke-width="1" opacity="1"></path><path fill="none" d="M 502.5 42 L 502.5 243" stroke="#E0E0E0" stroke-width="1" opacity="1"></path><path fill="none" d="M 506.5 42 L 506.5 243" stroke="#E0E0E0" stroke-width="1" opacity="1"></path><path fill="none" d="M 511.5 42 L 511.5 243" stroke="#E0E0E0" stroke-width="1" opacity="1"></path><path fill="none" d="M 516.5 42 L 516.5 243" stroke="#E0E0E0" stroke-width="1" opacity="1"></path><path fill="none" d="M 521.5 42 L 521.5 243" stroke="#E0E0E0" stroke-width="1" opacity="1"></path><path fill="none" d="M 526.5 42 L 526.5 243" stroke="#E0E0E0" stroke-width="1" opacity="1"></path><path fill="none" d="M 530.5 42 L 530.5 243" stroke="#E0E0E0" stroke-width="1" opacity="1"></path><path fill="none" d="M 535.5 42 L 535.5 243" stroke="#E0E0E0" stroke-width="1" opacity="1"></path><path fill="none" d="M 540.5 42 L 540.5 243" stroke="#E0E0E0" stroke-width="1" opacity="1"></path><path fill="none" d="M 545.5 42 L 545.5 243" stroke="#E0E0E0" stroke-width="1" opacity="1"></path><path fill="none" d="M 550.5 42 L 550.5 243" stroke="#E0E0E0" stroke-width="1" opacity="1"></path><path fill="none" d="M 554.5 42 L 554.5 243" stroke="#E0E0E0" stroke-width="1" opacity="1"></path><path fill="none" d="M 559.5 42 L 559.5 243" stroke="#E0E0E0" stroke-width="1" opacity="1"></path><path fill="none" d="M 564.5 42 L 564.5 243" stroke="#E0E0E0" stroke-width="1" opacity="1"></path><path fill="none" d="M 569.5 42 L 569.5 243" stroke="#E0E0E0" stroke-width="1" opacity="1"></path><path fill="none" d="M 574.5 42 L 574.5 243" stroke="#E0E0E0" stroke-width="1" opacity="1"></path><path fill="none" d="M 578.5 42 L 578.5 243" stroke="#E0E0E0" stroke-width="1" opacity="1"></path><path fill="none" d="M 583.5 42 L 583.5 243" stroke="#E0E0E0" stroke-width="1" opacity="1"></path><path fill="none" d="M 588.5 42 L 588.5 243" stroke="#E0E0E0" stroke-width="1" opacity="1"></path><path fill="none" d="M 593.5 42 L 593.5 243" stroke="#E0E0E0" stroke-width="1" opacity="1"></path><path fill="none" d="M 598.5 42 L 598.5 243" stroke="#E0E0E0" stroke-width="1" opacity="1"></path><path fill="none" d="M 602.5 42 L 602.5 243" stroke="#E0E0E0" stroke-width="1" opacity="1"></path><path fill="none" d="M 607.5 42 L 607.5 243" stroke="#E0E0E0" stroke-width="1" opacity="1"></path><path fill="none" d="M 613.5 42 L 613.5 243" stroke="#E0E0E0" stroke-width="1" opacity="1"></path><path fill="none" d="M 348.5 42 L 348.5 243" stroke="#C0C0C0" stroke-width="1" zIndex="1" opacity="1"></path><path fill="none" d="M 372.5 42 L 372.5 243" stroke="#C0C0C0" stroke-width="1" zIndex="1" opacity="1"></path><path fill="none" d="M 396.5 42 L 396.5 243" stroke="#C0C0C0" stroke-width="1" zIndex="1" opacity="1"></path><path fill="none" d="M 420.5 42 L 420.5 243" stroke="#C0C0C0" stroke-width="1" zIndex="1" opacity="1"></path><path fill="none" d="M 444.5 42 L 444.5 243" stroke="#C0C0C0" stroke-width="1" zIndex="1" opacity="1"></path><path fill="none" d="M 468.5 42 L 468.5 243" stroke="#C0C0C0" stroke-width="1" zIndex="1" opacity="1"></path><path fill="none" d="M 492.5 42 L 492.5 243" stroke="#C0C0C0" stroke-width="1" zIndex="1" opacity="1"></path><path fill="none" d="M 516.5 42 L 516.5 243" stroke="#C0C0C0" stroke-width="1" zIndex="1" opacity="1"></path><path fill="none" d="M 540.5 42 L 540.5 243" stroke="#C0C0C0" stroke-width="1" zIndex="1" opacity="1"></path><path fill="none" d="M 564.5 42 L 564.5 243" stroke="#C0C0C0" stroke-width="1" zIndex="1" opacity="1"></path><path fill="none" d="M 588.5 42 L 588.5 243" stroke="#C0C0C0" stroke-width="1" zIndex="1" opacity="1"></path><path fill="none" d="M 613.5 42 L 613.5 243" stroke="#C0C0C0" stroke-width="1" zIndex="1" opacity="1"></path><path fill="none" d="M 324.5 42 L 324.5 243" stroke="#C0C0C0" stroke-width="1" zIndex="1" opacity="1"></path></g><g class="highcharts-axis" zIndex="2"><path fill="none" d="M 324.5 42 L 324.5 243" stroke="#C0D0E0" stroke-width="1" zIndex="7" visibility="visible"></path></g><g class="highcharts-axis" zIndex="2"><path fill="none" d="M 613.5 42 L 613.5 243" stroke="#C0D0E0" stroke-width="1" zIndex="7" visibility="visible"></path></g><g class="highcharts-axis" zIndex="2"></g><g class="highcharts-series-group" zIndex="3"><g class="highcharts-series" visibility="visible" zIndex="0.1" transform="translate(613,243) rotate(90) scale(-1,1) scale(1 1)" width="288" height="201" clip-path="url(#highcharts-5)"><rect x="167.5" y="101.5" width="33" height="19" fill="#90ee7e" rx="0" ry="0" stroke="#FFFFFF" stroke-width="1"></rect><rect x="133.5" y="101.5" width="34" height="19" fill="#90ee7e" rx="0" ry="0" stroke="#FFFFFF" stroke-width="1"></rect><rect x="100.5" y="91.5" width="33" height="29" fill="#90ee7e" rx="0" ry="0" stroke="#FFFFFF" stroke-width="1"></rect><rect x="66.5" y="168.5" width="34" height="10" fill="#90ee7e" rx="0" ry="0" stroke="#FFFFFF" stroke-width="1"></rect><rect x="33.5" y="48.5" width="33" height="72" fill="#90ee7e" rx="0" ry="0" stroke="#FFFFFF" stroke-width="1"></rect><rect x="-0.5" y="53.5" width="34" height="67" fill="#90ee7e" rx="0" ry="0" stroke="#FFFFFF" stroke-width="1"></rect></g><g class="highcharts-markers" visibility="visible" zIndex="0.1" transform="translate(613,243) rotate(90) scale(-1,1) scale(1 1)" width="288" height="201" clip-path="none"></g><g class="highcharts-series" visibility="visible" zIndex="0.1" transform="translate(613,243) rotate(90) scale(-1,1) scale(1 1)" width="288" height="201" clip-path="url(#highcharts-5)"><rect x="167.5" y="120.5" width="33" height="24" fill="#7cb5ec" rx="0" ry="0" stroke="#FFFFFF" stroke-width="1"></rect><rect x="133.5" y="120.5" width="34" height="24" fill="#7cb5ec" rx="0" ry="0" stroke="#FFFFFF" stroke-width="1"></rect><rect x="100.5" y="120.5" width="33" height="24" fill="#7cb5ec" rx="0" ry="0" stroke="#FFFFFF" stroke-width="1"></rect><rect x="66.5" y="144.5" width="34" height="24" fill="#7cb5ec" rx="0" ry="0" stroke="#FFFFFF" stroke-width="1"></rect><rect x="33.5" y="120.5" width="33" height="24" fill="#7cb5ec" rx="0" ry="0" stroke="#FFFFFF" stroke-width="1"></rect><rect x="-0.5" y="120.5" width="34" height="24" fill="#7cb5ec" rx="0" ry="0" stroke="#FFFFFF" stroke-width="1"></rect></g><g class="highcharts-markers" visibility="visible" zIndex="0.1" transform="translate(613,243) rotate(90) scale(-1,1) scale(1 1)" width="288" height="201" clip-path="none"></g></g><g class="highcharts-axis-labels highcharts-xaxis-labels" zIndex="7"></g><g class="highcharts-axis-labels highcharts-xaxis-labels" zIndex="7"></g><g class="highcharts-axis-labels highcharts-yaxis-labels" zIndex="7"></g><g class="highcharts-tooltip" zIndex="8" style="cursor:default;padding:0;white-space:nowrap;" transform="translate(0,-9999)"><path fill="rgba(219,219,216,0.8)" d="M 3 0 L 13 0 C 16 0 16 0 16 3 L 16 13 C 16 16 16 16 13 16 L 3 16 C 0 16 0 16 0 13 L 0 3 C 0 0 0 0 3 0"></path><text x="8" zIndex="1" style="font-size:12px;color:#333333;fill:#333333;" y="21"></text></g><path fill="none" d="M 468.5 42 L 468.5 243" stroke="#FFF" stroke-width="1" zIndex="100"></path></svg>
