<svg version="1.1" style="font-family:Dosis, sans-serif;font-size:12px;" xmlns="http://www.w3.org/2000/svg" width="938" height="400"><desc>Created with Highcharts 4.0.4</desc><defs><clippath id="highcharts-75"><rect x="0" y="0" width="598" height="375"></rect></clippath></defs><g class="highcharts-series-group" zIndex="3"><g class="highcharts-series highcharts-tracker" visibility="visible" zIndex="0.1" transform="translate(10,10) scale(1 1)" style="cursor:pointer;"><path fill="#7cb5ec" d="M 298.9638480063441 10.000003681596212 A 177.5 177.5 0 0 1 444.9941223297475 86.54473146404524 L 299 187.5 A 0 0 0 0 0 299 187.5 Z" stroke="#FFFFFF" stroke-width="1" stroke-linejoin="round" transform="translate(0,0)"></path><path fill="#f7a35c" d="M 445.09500458440243 86.6907760396727 A 177.5 177.5 0 0 1 469.5382018870542 236.72369040543737 L 299 187.5 A 0 0 0 0 0 299 187.5 Z" stroke="#FFFFFF" stroke-width="1" stroke-linejoin="round" transform="translate(0,0)"></path><path fill="#90ee7e" d="M 469.4888929357589 236.89420396705822 A 177.5 177.5 0 0 1 381.71999932260076 344.54665457140095 L 299 187.5 A 0 0 0 0 0 299 187.5 Z" stroke="#FFFFFF" stroke-width="1" stroke-linejoin="round" transform="translate(0,0)"></path><path fill="#7798BF" d="M 381.56291133420757 344.62929603361613 A 177.5 177.5 0 0 1 256.77266888000406 359.90389353631844 L 299 187.5 A 0 0 0 0 0 299 187.5 Z" stroke="#FFFFFF" stroke-width="1" stroke-linejoin="round" transform="translate(0,0)"></path><path fill="#aaeeee" d="M 256.60028612886555 359.86158001029673 A 177.5 177.5 0 0 1 161.60719795561283 299.8809056129725 L 299 187.5 A 0 0 0 0 0 299 187.5 Z" stroke="#FFFFFF" stroke-width="1" stroke-linejoin="round" transform="translate(0,0)"></path><path fill="#ff0066" d="M 161.49488576512533 299.74345664337886 A 177.5 177.5 0 0 1 122.81053278469616 209.0295527679368 L 299 187.5 A 0 0 0 0 0 299 187.5 Z" stroke="#FFFFFF" stroke-width="1" stroke-linejoin="round" transform="translate(0,0)"></path><path fill="#eeaaee" d="M 122.78909133024274 208.85335256531093 A 177.5 177.5 0 0 1 132.96647778865838 124.73759483499752 L 299 187.5 A 0 0 0 0 0 299 187.5 Z" stroke="#FFFFFF" stroke-width="1" stroke-linejoin="round" transform="translate(0,0)"></path><path fill="#55BF3B" d="M 133.02932320011715 124.57159272165842 A 177.5 177.5 0 0 1 170.88180191594208 64.65059088585691 L 299 187.5 A 0 0 0 0 0 299 187.5 Z" stroke="#FFFFFF" stroke-width="1" stroke-linejoin="round" transform="translate(0,0)"></path><path fill="#DF5353" d="M 171.00471536367502 64.52253413382536 A 177.5 177.5 0 0 1 216.34397992951472 30.419662764216298 L 299 187.5 A 0 0 0 0 0 299 187.5 Z" stroke="#FFFFFF" stroke-width="1" stroke-linejoin="round" transform="translate(0,0)"></path><path fill="#7798BF" d="M 216.5011015685771 30.33708529808385 A 177.5 177.5 0 0 1 256.3960145432349 15.188797743153827 L 299 187.5 A 0 0 0 0 0 299 187.5 Z" stroke="#FFFFFF" stroke-width="1" stroke-linejoin="round" transform="translate(0,0)"></path><path fill="#aaeeee" d="M 256.5683470187642 15.146279920391663 A 177.5 177.5 0 0 1 284.5694000845741 10.587570289476503 L 299 187.5 A 0 0 0 0 0 299 187.5 Z" stroke="#FFFFFF" stroke-width="1" stroke-linejoin="round" transform="translate(0,0)"></path><path fill="#7cb5ec" d="M 284.74631970009864 10.573228148173683 A 177.5 177.5 0 0 1 298.7534560609923 10.000171222375144 L 299 187.5 A 0 0 0 0 0 299 187.5 Z" stroke="#FFFFFF" stroke-width="1" stroke-linejoin="round" transform="translate(0,0)"></path></g><g class="highcharts-markers" visibility="visible" zIndex="0.1" transform="translate(10,10) scale(1 1)"></g></g><g class="highcharts-data-labels highcharts-tracker" visibility="visible" zIndex="6" transform="translate(10,10) scale(1 1)" opacity="1" style="cursor:pointer;"><g zIndex="1" style="cursor:pointer;" transform="translate(348,73)"><text x="1.5" zIndex="1" style="font-size:15px;color:#000000;fill:#000000;" y="18">1</text></g><g zIndex="1" style="cursor:pointer;" transform="translate(409,159)"><text x="1.5" zIndex="1" style="font-size:15px;color:#000000;fill:#000000;" y="18">2</text></g><g zIndex="1" style="cursor:pointer;" transform="translate(384,252)"><text x="1.5" zIndex="1" style="font-size:15px;color:#000000;fill:#000000;" y="18">3</text></g><g zIndex="1" style="cursor:pointer;" transform="translate(307,294)"><text x="1.5" zIndex="1" style="font-size:15px;color:#000000;fill:#000000;" y="18">4</text></g><g zIndex="1" style="cursor:pointer;" transform="translate(231,277)"><text x="1.5" zIndex="1" style="font-size:15px;color:#000000;fill:#000000;" y="18">5</text></g><g zIndex="1" style="cursor:pointer;" transform="translate(185,224)"><text x="1.5" zIndex="1" style="font-size:15px;color:#000000;fill:#000000;" y="18">6</text></g><g zIndex="1" style="cursor:pointer;" transform="translate(177,163)"><text x="1.5" zIndex="1" style="font-size:15px;color:#000000;fill:#000000;" y="18">7</text></g><g zIndex="1" style="cursor:pointer;" transform="translate(194,115)"><text x="1.5" zIndex="1" style="font-size:15px;color:#000000;fill:#000000;" y="18">8</text></g><g zIndex="1" style="cursor:pointer;" transform="translate(223,84)"><text x="1.5" zIndex="1" style="font-size:15px;color:#000000;fill:#000000;" y="18">9</text></g><g zIndex="1" style="cursor:pointer;" transform="translate(247,68)"><text x="1.5" zIndex="1" style="font-size:15px;color:#000000;fill:#000000;" y="18">10</text></g><g zIndex="1" style="cursor:pointer;" transform="translate(270,62)"><text x="1.5" zIndex="1" style="font-size:15px;color:#000000;fill:#000000;" y="18">11</text></g><g zIndex="1" style="cursor:pointer;" transform="translate(284,60)"><text x="1.5" zIndex="1" style="font-size:15px;color:#000000;fill:#000000;" y="18">12</text></g></g><g class="highcharts-legend" zIndex="7" transform="translate(628,94)"><g zIndex="1"><g><g class="highcharts-legend-item" zIndex="1" transform="translate(8,3)"><rect x="0" y="7" width="16" height="12" zIndex="3" fill="#7cb5ec"></rect></g><g class="highcharts-legend-item" zIndex="1" transform="translate(8,20)"><rect x="0" y="7" width="16" height="12" zIndex="3" fill="#f7a35c"></rect></g><g class="highcharts-legend-item" zIndex="1" transform="translate(8,37)"><rect x="0" y="7" width="16" height="12" zIndex="3" fill="#90ee7e"></rect></g><g class="highcharts-legend-item" zIndex="1" transform="translate(8,54)"><rect x="0" y="7" width="16" height="12" zIndex="3" fill="#7798BF"></rect></g><g class="highcharts-legend-item" zIndex="1" transform="translate(8,71)"><rect x="0" y="7" width="16" height="12" zIndex="3" fill="#aaeeee"></rect></g><g class="highcharts-legend-item" zIndex="1" transform="translate(8,88)"><rect x="0" y="7" width="16" height="12" zIndex="3" fill="#ff0066"></rect></g><g class="highcharts-legend-item" zIndex="1" transform="translate(8,105)"><rect x="0" y="7" width="16" height="12" zIndex="3" fill="#eeaaee"></rect></g><g class="highcharts-legend-item" zIndex="1" transform="translate(8,122)"><rect x="0" y="7" width="16" height="12" zIndex="3" fill="#55BF3B"></rect></g><g class="highcharts-legend-item" zIndex="1" transform="translate(8,139)"><rect x="0" y="7" width="16" height="12" zIndex="3" fill="#DF5353"></rect></g><g class="highcharts-legend-item" zIndex="1" transform="translate(8,156)"><rect x="0" y="7" width="16" height="12" zIndex="3" fill="#7798BF"></rect></g><g class="highcharts-legend-item" zIndex="1" transform="translate(8,173)"><rect x="0" y="7" width="16" height="12" zIndex="3" fill="#aaeeee"></rect></g><g class="highcharts-legend-item" zIndex="1" transform="translate(8,190)"><rect x="0" y="7" width="16" height="12" zIndex="3" fill="#7cb5ec"></rect></g></g></g></g><g class="highcharts-tooltip" zIndex="8" style="cursor:default;padding:0;white-space:nowrap;" transform="translate(0,-9999)"><path fill="rgba(219,219,216,0.8)" d="M 3 0 L 13 0 C 16 0 16 0 16 3 L 16 13 C 16 16 16 16 13 16 L 3 16 C 0 16 0 16 0 13 L 0 3 C 0 0 0 0 3 0"></path><text x="8" zIndex="1" style="font-size:12px;color:#333333;fill:#333333;" y="21"></text></g></svg>
