<svg version="1.1" style="font-family:Dosis, sans-serif;font-size:12px;" xmlns="http://www.w3.org/2000/svg" width="938" height="498"><desc>Created with Highcharts 4.0.4</desc><defs><clippath id="highcharts-103"><rect x="0" y="0" width="573" height="498"></rect></clippath></defs><g class="highcharts-series-group" zIndex="3"><g class="highcharts-series highcharts-tracker" visibility="visible" zIndex="0.1" transform="translate(10,0) scale(1 1)" style=""><path fill="#7cb5ec" d="M 286.4699785697753 101.60000305728047 A 147.4 147.4 0 0 1 337.84486318280995 387.1682489747139 L 286.5 249 A 0 0 0 0 0 286.5 249 Z" stroke="#FFFFFF" stroke-width="1" stroke-linejoin="round" transform="translate(0,0)"></path><path fill="#f7a35c" d="M 337.7066692844338 387.2195247452205 A 147.4 147.4 0 0 1 147.66587367232395 298.51611219422307 L 286.5 249 A 0 0 0 0 0 286.5 249 Z" stroke="#FFFFFF" stroke-width="1" stroke-linejoin="round" transform="translate(0,0)"></path><path fill="#90ee7e" d="M 147.6164269854398 298.37725333298044 A 147.4 147.4 0 0 1 286.29526435712825 101.60014218691884 L 286.5 249 A 0 0 0 0 0 286.5 249 Z" stroke="#FFFFFF" stroke-width="1" stroke-linejoin="round" transform="translate(0,0)"></path></g><g class="highcharts-markers" visibility="visible" zIndex="0.1" transform="translate(10,0) scale(1 1)"></g><g class="highcharts-series highcharts-tracker" visibility="visible" zIndex="0.1" transform="translate(10,0) scale(1 1)" style=""><path fill="#DEFBFD" d="M 286.4606503370461 55.800004007236 A 193.2 193.2 0 0 1 286.2674503929282 55.80013995688233 L 286.3346153415545 111.60009953455295 A 137.4 137.4 0 0 0 286.4720153018123 111.6000028498666 Z" stroke="#FFFFFF" stroke-width="1" stroke-linejoin="round" transform="translate(0,0)"></path><path fill="rgba(124,181,236,1)" d="M 286.4606503370461 55.800004007236 A 193.2 193.2 0 0 1 437.9343458481801 129.0255073045367 L 394.1970968920287 163.6765253811767 A 137.4 137.4 0 0 0 286.4720153018123 111.6000028498666 Z" stroke="#FFFFFF" stroke-width="1" stroke-linejoin="round" transform="translate(0,0)"></path><path fill="rgba(130,187,242,1)" d="M 438.0542446037132 129.17700161238713 A 193.2 193.2 0 0 1 478.8288404803134 267.32640498019646 L 423.2804486645707 262.0333749703882 A 137.4 137.4 0 0 0 394.28236650388294 163.78426512185297 Z" stroke="#FFFFFF" stroke-width="1" stroke-linejoin="round" transform="translate(0,0)"></path><path fill="rgba(136,193,248,1)" d="M 478.81041791397536 267.51872462542025 A 193.2 193.2 0 0 1 431.3660344680043 376.82829130327525 L 389.525844388736 339.90894008835414 A 137.4 137.4 0 0 0 423.2673469015539 262.17014887956907 Z" stroke="#FFFFFF" stroke-width="1" stroke-linejoin="round" transform="translate(0,0)"></path><path fill="rgba(143,200,255,1)" d="M 431.23813376499453 376.97309339945855 A 193.2 193.2 0 0 1 353.7986944838459 430.0997673128543 L 334.36149390310777 377.79455501442123 A 137.4 137.4 0 0 0 389.4348839508812 340.01192046110566 Z" stroke="#FFFFFF" stroke-width="1" stroke-linejoin="round" transform="translate(0,0)"></path><path fill="#DEFBFD" d="M 353.6175610973719 430.1669754462456 A 193.2 193.2 0 0 1 353.7986944838459 430.0997673128543 L 334.36149390310777 377.79455501442123 A 137.4 137.4 0 0 0 334.23267543881417 377.8423521030753 Z" stroke="#FFFFFF" stroke-width="1" stroke-linejoin="round" transform="translate(0,0)"></path><path fill="rgba(247,163,92,1)" d="M 353.6175610973719 430.1669754462456 A 193.2 193.2 0 0 1 239.5999444460716 436.42098278751615 L 253.1456126650633 382.2900778209354 A 137.4 137.4 0 0 0 334.23267543881417 377.8423521030753 Z" stroke="#FFFFFF" stroke-width="1" stroke-linejoin="round" transform="translate(0,0)"></path><path fill="rgba(253,169,98,1)" d="M 239.41254694454673 436.37398902929533 A 193.2 193.2 0 0 1 160.68242958607817 395.6157528205541 L 197.0210446435152 353.27020930405865 A 137.4 137.4 0 0 0 253.0123392866497 382.2566567941262 Z" stroke="#FFFFFF" stroke-width="1" stroke-linejoin="round" transform="translate(0,0)"></path><path fill="rgba(255,175,104,1)" d="M 160.5358767664735 395.4898619632395 A 193.2 193.2 0 0 1 120.15764002834163 347.2672848869817 L 168.20061977170877 318.88573987303977 A 137.4 137.4 0 0 0 196.91681919106344 353.18067822851503 Z" stroke="#FFFFFF" stroke-width="1" stroke-linejoin="round" transform="translate(0,0)"></path><path fill="rgba(255,182,111,1)" d="M 120.05945593100557 347.1008934210954 A 193.2 193.2 0 0 1 104.52745450130928 313.9017155761459 L 157.08474248695597 295.1568101457683 A 137.4 137.4 0 0 0 168.13079319316856 318.76740556966104 Z" stroke="#FFFFFF" stroke-width="1" stroke-linejoin="round" transform="translate(0,0)"></path><path fill="#DEFBFD" d="M 104.46264378281526 313.71971061012084 A 193.2 193.2 0 0 1 104.52745450130928 313.9017155761459 L 157.08474248695597 295.1568101457683 A 137.4 137.4 0 0 0 157.03865039212639 295.02737183142136 Z" stroke="#FFFFFF" stroke-width="1" stroke-linejoin="round" transform="translate(0,0)"></path><path fill="rgba(144,238,126,1)" d="M 104.46264378281526 313.71971061012084 A 193.2 193.2 0 0 1 104.38605894009123 184.49610498870575 L 156.98418477416425 203.12611193296155 A 137.4 137.4 0 0 0 157.03865039212639 295.02737183142136 Z" stroke="#FFFFFF" stroke-width="1" stroke-linejoin="round" transform="translate(0,0)"></path><path fill="rgba(150,244,132,1)" d="M 104.45065388131482 184.314023329943 A 193.2 193.2 0 0 1 164.35901637287213 99.30758162619699 L 199.6357600912662 142.5417273055873 A 137.4 137.4 0 0 0 157.03012341248785 202.9966190762638 Z" stroke="#FFFFFF" stroke-width="1" stroke-linejoin="round" transform="translate(0,0)"></path><path fill="rgba(156,250,138,1)" d="M 164.50876983678398 99.1855155091296 A 193.2 193.2 0 0 1 234.15075488860373 63.02743068864444 L 249.2702573586654 116.74000505496761 A 137.4 137.4 0 0 0 199.74226177833393 142.4549163092878 Z" stroke="#FFFFFF" stroke-width="1" stroke-linejoin="round" transform="translate(0,0)"></path><path fill="rgba(163,255,145,1)" d="M 234.3367536015401 62.97517443853482 A 193.2 193.2 0 0 1 286.2316490759646 55.800186367114804 L 286.30915415650895 111.60013254058785 A 137.4 137.4 0 0 0 249.4025359464369 116.7028414485232 Z" stroke="#FFFFFF" stroke-width="1" stroke-linejoin="round" transform="translate(0,0)"></path></g><g class="highcharts-markers" visibility="visible" zIndex="0.1" transform="translate(10,0) scale(1 1)"></g></g><g class="highcharts-data-labels highcharts-tracker" visibility="visible" zIndex="6" transform="translate(10,0) scale(1 1)" opacity="1" style=""><g zIndex="1" style="cursor:default;" transform="translate(317,225)"><text x="3" zIndex="1" style="font-size:15px;font-family:serif;color:#000000;fill:#000000;" y="18"><tspan style="font-family:serif">Valeurs de Vie</tspan></text></g><g zIndex="1" style="cursor:default;" transform="translate(173,309)"><text x="3" zIndex="1" style="font-size:15px;font-family:serif;color:#000000;fill:#000000;" y="18"><tspan style="font-family:serif">Environnement de Travail</tspan></text></g><g zIndex="1" style="cursor:default;" transform="translate(161,194)"><text x="3" zIndex="1" style="font-size:15px;font-family:serif;color:#000000;fill:#000000;" y="18"><tspan style="font-family:serif">Résultats du Travail</tspan></text></g></g><g class="highcharts-legend" zIndex="7" transform="translate(603,57)"><g zIndex="1"><g><g class="highcharts-legend-item" zIndex="1" transform="translate(8,3)"><rect x="0" y="7" width="16" height="12" zIndex="3" fill="#7cb5ec"></rect></g><g class="highcharts-legend-item" zIndex="1" transform="translate(8,21)"><rect x="0" y="7" width="16" height="12" zIndex="3" fill="#f7a35c"></rect></g><g class="highcharts-legend-item" zIndex="1" transform="translate(8,39)"><rect x="0" y="7" width="16" height="12" zIndex="3" fill="#90ee7e"></rect></g><g class="highcharts-legend-item" zIndex="1" transform="translate(8,57)"><rect x="0" y="7" width="16" height="12" zIndex="3" fill="#47324e"></rect></g><g class="highcharts-legend-item" zIndex="1" transform="translate(8,94)"><rect x="0" y="7" width="16" height="12" zIndex="3" fill="rgba(124,181,236,1)"></rect></g><g class="highcharts-legend-item" zIndex="1" transform="translate(8,112)"><rect x="0" y="7" width="16" height="12" zIndex="3" fill="rgba(130,187,242,1)"></rect></g><g class="highcharts-legend-item" zIndex="1" transform="translate(8,130)"><rect x="0" y="7" width="16" height="12" zIndex="3" fill="rgba(136,193,248,1)"></rect></g><g class="highcharts-legend-item" zIndex="1" transform="translate(8,148)"><rect x="0" y="7" width="16" height="12" zIndex="3" fill="rgba(143,200,255,1)"></rect></g><g class="highcharts-legend-item" zIndex="1" transform="translate(8,166)"><rect x="0" y="7" width="16" height="12" zIndex="3" fill="#47324e"></rect></g><g class="highcharts-legend-item" zIndex="1" transform="translate(8,203)"><rect x="0" y="7" width="16" height="12" zIndex="3" fill="rgba(247,163,92,1)"></rect></g><g class="highcharts-legend-item" zIndex="1" transform="translate(8,221)"><rect x="0" y="7" width="16" height="12" zIndex="3" fill="rgba(253,169,98,1)"></rect></g><g class="highcharts-legend-item" zIndex="1" transform="translate(8,239)"><rect x="0" y="7" width="16" height="12" zIndex="3" fill="rgba(255,175,104,1)"></rect></g><g class="highcharts-legend-item" zIndex="1" transform="translate(8,257)"><rect x="0" y="7" width="16" height="12" zIndex="3" fill="rgba(255,182,111,1)"></rect></g><g class="highcharts-legend-item" zIndex="1" transform="translate(8,275)"><rect x="0" y="7" width="16" height="12" zIndex="3" fill="#47324e"></rect></g><g class="highcharts-legend-item" zIndex="1" transform="translate(8,312)"><rect x="0" y="7" width="16" height="12" zIndex="3" fill="rgba(144,238,126,1)"></rect></g><g class="highcharts-legend-item" zIndex="1" transform="translate(8,330)"><rect x="0" y="7" width="16" height="12" zIndex="3" fill="rgba(150,244,132,1)"></rect></g><g class="highcharts-legend-item" zIndex="1" transform="translate(8,348)"><rect x="0" y="7" width="16" height="12" zIndex="3" fill="rgba(156,250,138,1)"></rect></g><g class="highcharts-legend-item" zIndex="1" transform="translate(8,366)"><rect x="0" y="7" width="16" height="12" zIndex="3" fill="rgba(163,255,145,1)"></rect></g></g></g></g><g class="highcharts-tooltip" zIndex="8" style="cursor:default;padding:0;white-space:nowrap;" transform="translate(0,-9999)"><path fill="rgba(219,219,216,0.8)" d="M 3 0 L 13 0 C 16 0 16 0 16 3 L 16 13 C 16 16 16 16 13 16 L 3 16 C 0 16 0 16 0 13 L 0 3 C 0 0 0 0 3 0"></path><text x="8" zIndex="1" style="font-size:12px;color:#333333;fill:#333333;" y="21"></text></g></svg>
