<svg version="1.1" style="font-family:Dosis, sans-serif;font-size:12px;" xmlns="http://www.w3.org/2000/svg" width="938" height="490"><desc>Created with Highcharts 4.0.4</desc><defs><clippath id="highcharts-101"><rect x="0" y="0" width="433" height="288"></rect></clippath></defs><path fill="#E3E3E3" d="M 445.5 42 L 445.5 475 491.5 475 491.5 42"></path><g class="highcharts-grid" zIndex="1"><path fill="none" d="M 325 73.5 L 613 73.5" stroke="#C0C0C0" stroke-width="1" zIndex="1" opacity="1"></path><path fill="none" d="M 325 104.5 L 613 104.5" stroke="#C0C0C0" stroke-width="1" zIndex="1" opacity="1"></path><path fill="none" d="M 325 135.5 L 613 135.5" stroke="#C0C0C0" stroke-width="1" zIndex="1" opacity="1"></path><path fill="none" d="M 325 166.5 L 613 166.5" stroke="#C0C0C0" stroke-width="1" zIndex="1" opacity="1"></path><path fill="none" d="M 325 197.5 L 613 197.5" stroke="#C0C0C0" stroke-width="1" zIndex="1" opacity="1"></path><path fill="none" d="M 325 228.5 L 613 228.5" stroke="#C0C0C0" stroke-width="1" zIndex="1" opacity="1"></path><path fill="none" d="M 325 259.5 L 613 259.5" stroke="#C0C0C0" stroke-width="1" zIndex="1" opacity="1"></path><path fill="none" d="M 325 289.5 L 613 289.5" stroke="#C0C0C0" stroke-width="1" zIndex="1" opacity="1"></path><path fill="none" d="M 325 320.5 L 613 320.5" stroke="#C0C0C0" stroke-width="1" zIndex="1" opacity="1"></path><path fill="none" d="M 325 351.5 L 613 351.5" stroke="#C0C0C0" stroke-width="1" zIndex="1" opacity="1"></path><path fill="none" d="M 325 382.5 L 613 382.5" stroke="#C0C0C0" stroke-width="1" zIndex="1" opacity="1"></path><path fill="none" d="M 325 413.5 L 613 413.5" stroke="#C0C0C0" stroke-width="1" zIndex="1" opacity="1"></path><path fill="none" d="M 325 444.5 L 613 444.5" stroke="#C0C0C0" stroke-width="1" zIndex="1" opacity="1"></path><path fill="none" d="M 325 475.5 L 613 475.5" stroke="#C0C0C0" stroke-width="1" zIndex="1" opacity="1"></path><path fill="none" d="M 325 41.5 L 613 41.5" stroke="#C0C0C0" stroke-width="1" zIndex="1" opacity="1"></path></g><g class="highcharts-grid" zIndex="1"><path fill="none" d="M 325 73.5 L 613 73.5" stroke="#C0C0C0" stroke-width="1" zIndex="1" opacity="1"></path><path fill="none" d="M 325 104.5 L 613 104.5" stroke="#C0C0C0" stroke-width="1" zIndex="1" opacity="1"></path><path fill="none" d="M 325 135.5 L 613 135.5" stroke="#C0C0C0" stroke-width="1" zIndex="1" opacity="1"></path><path fill="none" d="M 325 166.5 L 613 166.5" stroke="#C0C0C0" stroke-width="1" zIndex="1" opacity="1"></path><path fill="none" d="M 325 197.5 L 613 197.5" stroke="#C0C0C0" stroke-width="1" zIndex="1" opacity="1"></path><path fill="none" d="M 325 228.5 L 613 228.5" stroke="#C0C0C0" stroke-width="1" zIndex="1" opacity="1"></path><path fill="none" d="M 325 259.5 L 613 259.5" stroke="#C0C0C0" stroke-width="1" zIndex="1" opacity="1"></path><path fill="none" d="M 325 289.5 L 613 289.5" stroke="#C0C0C0" stroke-width="1" zIndex="1" opacity="1"></path><path fill="none" d="M 325 320.5 L 613 320.5" stroke="#C0C0C0" stroke-width="1" zIndex="1" opacity="1"></path><path fill="none" d="M 325 351.5 L 613 351.5" stroke="#C0C0C0" stroke-width="1" zIndex="1" opacity="1"></path><path fill="none" d="M 325 382.5 L 613 382.5" stroke="#C0C0C0" stroke-width="1" zIndex="1" opacity="1"></path><path fill="none" d="M 325 413.5 L 613 413.5" stroke="#C0C0C0" stroke-width="1" zIndex="1" opacity="1"></path><path fill="none" d="M 325 444.5 L 613 444.5" stroke="#C0C0C0" stroke-width="1" zIndex="1" opacity="1"></path><path fill="none" d="M 325 475.5 L 613 475.5" stroke="#C0C0C0" stroke-width="1" zIndex="1" opacity="1"></path><path fill="none" d="M 325 41.5 L 613 41.5" stroke="#C0C0C0" stroke-width="1" zIndex="1" opacity="1"></path></g><g class="highcharts-grid" zIndex="1"><path fill="none" d="M 324.5 42 L 324.5 475" stroke="#E0E0E0" stroke-width="1" opacity="1"></path><path fill="none" d="M 330.5 42 L 330.5 475" stroke="#E0E0E0" stroke-width="1" opacity="1"></path><path fill="none" d="M 336.5 42 L 336.5 475" stroke="#E0E0E0" stroke-width="1" opacity="1"></path><path fill="none" d="M 341.5 42 L 341.5 475" stroke="#E0E0E0" stroke-width="1" opacity="1"></path><path fill="none" d="M 347.5 42 L 347.5 475" stroke="#E0E0E0" stroke-width="1" opacity="1"></path><path fill="none" d="M 353.5 42 L 353.5 475" stroke="#E0E0E0" stroke-width="1" opacity="1"></path><path fill="none" d="M 359.5 42 L 359.5 475" stroke="#E0E0E0" stroke-width="1" opacity="1"></path><path fill="none" d="M 364.5 42 L 364.5 475" stroke="#E0E0E0" stroke-width="1" opacity="1"></path><path fill="none" d="M 370.5 42 L 370.5 475" stroke="#E0E0E0" stroke-width="1" opacity="1"></path><path fill="none" d="M 376.5 42 L 376.5 475" stroke="#E0E0E0" stroke-width="1" opacity="1"></path><path fill="none" d="M 382.5 42 L 382.5 475" stroke="#E0E0E0" stroke-width="1" opacity="1"></path><path fill="none" d="M 387.5 42 L 387.5 475" stroke="#E0E0E0" stroke-width="1" opacity="1"></path><path fill="none" d="M 393.5 42 L 393.5 475" stroke="#E0E0E0" stroke-width="1" opacity="1"></path><path fill="none" d="M 399.5 42 L 399.5 475" stroke="#E0E0E0" stroke-width="1" opacity="1"></path><path fill="none" d="M 405.5 42 L 405.5 475" stroke="#E0E0E0" stroke-width="1" opacity="1"></path><path fill="none" d="M 410.5 42 L 410.5 475" stroke="#E0E0E0" stroke-width="1" opacity="1"></path><path fill="none" d="M 416.5 42 L 416.5 475" stroke="#E0E0E0" stroke-width="1" opacity="1"></path><path fill="none" d="M 422.5 42 L 422.5 475" stroke="#E0E0E0" stroke-width="1" opacity="1"></path><path fill="none" d="M 428.5 42 L 428.5 475" stroke="#E0E0E0" stroke-width="1" opacity="1"></path><path fill="none" d="M 433.5 42 L 433.5 475" stroke="#E0E0E0" stroke-width="1" opacity="1"></path><path fill="none" d="M 439.5 42 L 439.5 475" stroke="#E0E0E0" stroke-width="1" opacity="1"></path><path fill="none" d="M 445.5 42 L 445.5 475" stroke="#E0E0E0" stroke-width="1" opacity="1"></path><path fill="none" d="M 451.5 42 L 451.5 475" stroke="#E0E0E0" stroke-width="1" opacity="1"></path><path fill="none" d="M 456.5 42 L 456.5 475" stroke="#E0E0E0" stroke-width="1" opacity="1"></path><path fill="none" d="M 462.5 42 L 462.5 475" stroke="#E0E0E0" stroke-width="1" opacity="1"></path><path fill="none" d="M 468.5 42 L 468.5 475" stroke="#E0E0E0" stroke-width="1" opacity="1"></path><path fill="none" d="M 474.5 42 L 474.5 475" stroke="#E0E0E0" stroke-width="1" opacity="1"></path><path fill="none" d="M 480.5 42 L 480.5 475" stroke="#E0E0E0" stroke-width="1" opacity="1"></path><path fill="none" d="M 485.5 42 L 485.5 475" stroke="#E0E0E0" stroke-width="1" opacity="1"></path><path fill="none" d="M 491.5 42 L 491.5 475" stroke="#E0E0E0" stroke-width="1" opacity="1"></path><path fill="none" d="M 497.5 42 L 497.5 475" stroke="#E0E0E0" stroke-width="1" opacity="1"></path><path fill="none" d="M 503.5 42 L 503.5 475" stroke="#E0E0E0" stroke-width="1" opacity="1"></path><path fill="none" d="M 508.5 42 L 508.5 475" stroke="#E0E0E0" stroke-width="1" opacity="1"></path><path fill="none" d="M 514.5 42 L 514.5 475" stroke="#E0E0E0" stroke-width="1" opacity="1"></path><path fill="none" d="M 520.5 42 L 520.5 475" stroke="#E0E0E0" stroke-width="1" opacity="1"></path><path fill="none" d="M 526.5 42 L 526.5 475" stroke="#E0E0E0" stroke-width="1" opacity="1"></path><path fill="none" d="M 531.5 42 L 531.5 475" stroke="#E0E0E0" stroke-width="1" opacity="1"></path><path fill="none" d="M 537.5 42 L 537.5 475" stroke="#E0E0E0" stroke-width="1" opacity="1"></path><path fill="none" d="M 543.5 42 L 543.5 475" stroke="#E0E0E0" stroke-width="1" opacity="1"></path><path fill="none" d="M 549.5 42 L 549.5 475" stroke="#E0E0E0" stroke-width="1" opacity="1"></path><path fill="none" d="M 554.5 42 L 554.5 475" stroke="#E0E0E0" stroke-width="1" opacity="1"></path><path fill="none" d="M 560.5 42 L 560.5 475" stroke="#E0E0E0" stroke-width="1" opacity="1"></path><path fill="none" d="M 566.5 42 L 566.5 475" stroke="#E0E0E0" stroke-width="1" opacity="1"></path><path fill="none" d="M 572.5 42 L 572.5 475" stroke="#E0E0E0" stroke-width="1" opacity="1"></path><path fill="none" d="M 577.5 42 L 577.5 475" stroke="#E0E0E0" stroke-width="1" opacity="1"></path><path fill="none" d="M 583.5 42 L 583.5 475" stroke="#E0E0E0" stroke-width="1" opacity="1"></path><path fill="none" d="M 589.5 42 L 589.5 475" stroke="#E0E0E0" stroke-width="1" opacity="1"></path><path fill="none" d="M 595.5 42 L 595.5 475" stroke="#E0E0E0" stroke-width="1" opacity="1"></path><path fill="none" d="M 600.5 42 L 600.5 475" stroke="#E0E0E0" stroke-width="1" opacity="1"></path><path fill="none" d="M 606.5 42 L 606.5 475" stroke="#E0E0E0" stroke-width="1" opacity="1"></path><path fill="none" d="M 613.5 42 L 613.5 475" stroke="#E0E0E0" stroke-width="1" opacity="1"></path><path fill="none" d="M 353.5 42 L 353.5 475" stroke="#C0C0C0" stroke-width="1" zIndex="1" opacity="1"></path><path fill="none" d="M 382.5 42 L 382.5 475" stroke="#C0C0C0" stroke-width="1" zIndex="1" opacity="1"></path><path fill="none" d="M 410.5 42 L 410.5 475" stroke="#C0C0C0" stroke-width="1" zIndex="1" opacity="1"></path><path fill="none" d="M 439.5 42 L 439.5 475" stroke="#C0C0C0" stroke-width="1" zIndex="1" opacity="1"></path><path fill="none" d="M 468.5 42 L 468.5 475" stroke="#C0C0C0" stroke-width="1" zIndex="1" opacity="1"></path><path fill="none" d="M 497.5 42 L 497.5 475" stroke="#C0C0C0" stroke-width="1" zIndex="1" opacity="1"></path><path fill="none" d="M 526.5 42 L 526.5 475" stroke="#C0C0C0" stroke-width="1" zIndex="1" opacity="1"></path><path fill="none" d="M 554.5 42 L 554.5 475" stroke="#C0C0C0" stroke-width="1" zIndex="1" opacity="1"></path><path fill="none" d="M 583.5 42 L 583.5 475" stroke="#C0C0C0" stroke-width="1" zIndex="1" opacity="1"></path><path fill="none" d="M 613.5 42 L 613.5 475" stroke="#C0C0C0" stroke-width="1" zIndex="1" opacity="1"></path><path fill="none" d="M 324.5 42 L 324.5 475" stroke="#C0C0C0" stroke-width="1" zIndex="1" opacity="1"></path></g><g class="highcharts-grid" zIndex="1"></g><g class="highcharts-axis" zIndex="2"><path fill="none" d="M 324.5 42 L 324.5 475" stroke="#C0D0E0" stroke-width="1" zIndex="7" visibility="visible"></path></g><g class="highcharts-axis" zIndex="2"><path fill="none" d="M 613.5 42 L 613.5 475" stroke="#C0D0E0" stroke-width="1" zIndex="7" visibility="visible"></path></g><g class="highcharts-axis" zIndex="2"><path fill="none" d="M 325 41.5 L 613 41.5" stroke="#C0D0E0" stroke-width="1" zIndex="7" visibility="visible"></path></g><g class="highcharts-axis" zIndex="2"><path fill="none" d="M 325 475.5 L 613 475.5" stroke="#C0D0E0" stroke-width="1" zIndex="7" visibility="visible"></path></g><g class="highcharts-series-group" zIndex="3"><g class="highcharts-series" visibility="visible" zIndex="0.1" transform="translate(613,475) rotate(90) scale(-1,1) scale(1 1)" width="288" height="433" clip-path="url(#highcharts-101)"><rect x="401.5" y="29.5" width="31" height="92" fill="#90ee7e" rx="0" ry="0" stroke="#FFFFFF" stroke-width="1"></rect><rect x="370.5" y="29.5" width="31" height="92" fill="#90ee7e" rx="0" ry="0" stroke="#FFFFFF" stroke-width="1"></rect><rect x="339.5" y="29.5" width="31" height="92" fill="#90ee7e" rx="0" ry="0" stroke="#FFFFFF" stroke-width="1"></rect><rect x="308.5" y="35.5" width="31" height="86" fill="#90ee7e" rx="0" ry="0" stroke="#FFFFFF" stroke-width="1"></rect><rect x="277.5" y="49.5" width="31" height="72" fill="#90ee7e" rx="0" ry="0" stroke="#FFFFFF" stroke-width="1"></rect><rect x="246.5" y="52.5" width="31" height="69" fill="#90ee7e" rx="0" ry="0" stroke="#FFFFFF" stroke-width="1"></rect><rect x="216.5" y="52.5" width="30" height="69" fill="#90ee7e" rx="0" ry="0" stroke="#FFFFFF" stroke-width="1"></rect><rect x="185.5" y="58.5" width="30" height="63" fill="#90ee7e" rx="0" ry="0" stroke="#FFFFFF" stroke-width="1"></rect><rect x="154.5" y="72.5" width="31" height="49" fill="#90ee7e" rx="0" ry="0" stroke="#FFFFFF" stroke-width="1"></rect><rect x="123.5" y="81.5" width="31" height="40" fill="#90ee7e" rx="0" ry="0" stroke="#FFFFFF" stroke-width="1"></rect><rect x="92.5" y="86.5" width="31" height="35" fill="#90ee7e" rx="0" ry="0" stroke="#FFFFFF" stroke-width="1"></rect><rect x="61.5" y="144.5" width="31" height="0" fill="#90ee7e" rx="0" ry="0" stroke="#FFFFFF" stroke-width="1"></rect><rect x="30.5" y="196.5" width="31" height="0" fill="#90ee7e" rx="0" ry="0" stroke="#FFFFFF" stroke-width="1"></rect><rect x="-0.5" y="216.5" width="31" height="0" fill="#90ee7e" rx="0" ry="0" stroke="#FFFFFF" stroke-width="1"></rect></g><g class="highcharts-markers" visibility="visible" zIndex="0.1" transform="translate(613,475) rotate(90) scale(-1,1) scale(1 1)" width="288" height="433" clip-path="none"></g><g class="highcharts-series" visibility="visible" zIndex="0.1" transform="translate(613,475) rotate(90) scale(-1,1) scale(1 1)" width="288" height="433" clip-path="url(#highcharts-101)"><rect x="401.5" y="121.5" width="31" height="46" fill="#7cb5ec" rx="0" ry="0" stroke="#FFFFFF" stroke-width="1"></rect><rect x="370.5" y="121.5" width="31" height="46" fill="#7cb5ec" rx="0" ry="0" stroke="#FFFFFF" stroke-width="1"></rect><rect x="339.5" y="121.5" width="31" height="46" fill="#7cb5ec" rx="0" ry="0" stroke="#FFFFFF" stroke-width="1"></rect><rect x="308.5" y="121.5" width="31" height="46" fill="#7cb5ec" rx="0" ry="0" stroke="#FFFFFF" stroke-width="1"></rect><rect x="277.5" y="121.5" width="31" height="46" fill="#7cb5ec" rx="0" ry="0" stroke="#FFFFFF" stroke-width="1"></rect><rect x="246.5" y="121.5" width="31" height="46" fill="#7cb5ec" rx="0" ry="0" stroke="#FFFFFF" stroke-width="1"></rect><rect x="216.5" y="121.5" width="30" height="46" fill="#7cb5ec" rx="0" ry="0" stroke="#FFFFFF" stroke-width="1"></rect><rect x="185.5" y="121.5" width="30" height="46" fill="#7cb5ec" rx="0" ry="0" stroke="#FFFFFF" stroke-width="1"></rect><rect x="154.5" y="121.5" width="31" height="46" fill="#7cb5ec" rx="0" ry="0" stroke="#FFFFFF" stroke-width="1"></rect><rect x="123.5" y="121.5" width="31" height="46" fill="#7cb5ec" rx="0" ry="0" stroke="#FFFFFF" stroke-width="1"></rect><rect x="92.5" y="121.5" width="31" height="46" fill="#7cb5ec" rx="0" ry="0" stroke="#FFFFFF" stroke-width="1"></rect><rect x="61.5" y="144.5" width="31" height="23" fill="#7cb5ec" rx="0" ry="0" stroke="#FFFFFF" stroke-width="1"></rect><rect x="30.5" y="196.5" width="31" height="0" fill="#7cb5ec" rx="0" ry="0" stroke="#FFFFFF" stroke-width="1"></rect><rect x="-0.5" y="216.5" width="31" height="0" fill="#7cb5ec" rx="0" ry="0" stroke="#FFFFFF" stroke-width="1"></rect></g><g class="highcharts-markers" visibility="visible" zIndex="0.1" transform="translate(613,475) rotate(90) scale(-1,1) scale(1 1)" width="288" height="433" clip-path="none"></g><g class="highcharts-series" visibility="visible" zIndex="0.1" transform="translate(613,475) rotate(90) scale(-1,1) scale(1 1)" width="288" height="433" clip-path="url(#highcharts-101)"><rect x="401.5" y="167.5" width="31" height="121" fill="#f7a35c" rx="0" ry="0" stroke="#FFFFFF" stroke-width="1"></rect><rect x="370.5" y="167.5" width="31" height="121" fill="#f7a35c" rx="0" ry="0" stroke="#FFFFFF" stroke-width="1"></rect><rect x="339.5" y="167.5" width="31" height="121" fill="#f7a35c" rx="0" ry="0" stroke="#FFFFFF" stroke-width="1"></rect><rect x="308.5" y="167.5" width="31" height="121" fill="#f7a35c" rx="0" ry="0" stroke="#FFFFFF" stroke-width="1"></rect><rect x="277.5" y="167.5" width="31" height="121" fill="#f7a35c" rx="0" ry="0" stroke="#FFFFFF" stroke-width="1"></rect><rect x="246.5" y="167.5" width="31" height="121" fill="#f7a35c" rx="0" ry="0" stroke="#FFFFFF" stroke-width="1"></rect><rect x="216.5" y="167.5" width="30" height="121" fill="#f7a35c" rx="0" ry="0" stroke="#FFFFFF" stroke-width="1"></rect><rect x="185.5" y="167.5" width="30" height="121" fill="#f7a35c" rx="0" ry="0" stroke="#FFFFFF" stroke-width="1"></rect><rect x="154.5" y="167.5" width="31" height="121" fill="#f7a35c" rx="0" ry="0" stroke="#FFFFFF" stroke-width="1"></rect><rect x="123.5" y="167.5" width="31" height="121" fill="#f7a35c" rx="0" ry="0" stroke="#FFFFFF" stroke-width="1"></rect><rect x="92.5" y="167.5" width="31" height="121" fill="#f7a35c" rx="0" ry="0" stroke="#FFFFFF" stroke-width="1"></rect><rect x="61.5" y="167.5" width="31" height="121" fill="#f7a35c" rx="0" ry="0" stroke="#FFFFFF" stroke-width="1"></rect><rect x="30.5" y="196.5" width="31" height="92" fill="#f7a35c" rx="0" ry="0" stroke="#FFFFFF" stroke-width="1"></rect><rect x="-0.5" y="216.5" width="31" height="72" fill="#f7a35c" rx="0" ry="0" stroke="#FFFFFF" stroke-width="1"></rect></g><g class="highcharts-markers" visibility="visible" zIndex="0.1" transform="translate(613,475) rotate(90) scale(-1,1) scale(1 1)" width="288" height="433" clip-path="none"></g></g><g class="highcharts-axis-labels highcharts-xaxis-labels" zIndex="7"></g><g class="highcharts-axis-labels highcharts-xaxis-labels" zIndex="7"></g><g class="highcharts-axis-labels highcharts-yaxis-labels" zIndex="7"></g><g class="highcharts-axis-labels highcharts-yaxis-labels" zIndex="7"></g><g class="highcharts-tooltip" zIndex="8" style="cursor:default;padding:0;white-space:nowrap;" transform="translate(0,-9999)"><path fill="rgba(219,219,216,0.8)" d="M 3 0 L 13 0 C 16 0 16 0 16 3 L 16 13 C 16 16 16 16 13 16 L 3 16 C 0 16 0 16 0 13 L 0 3 C 0 0 0 0 3 0"></path><text x="8" zIndex="1" style="font-size:12px;color:#333333;fill:#333333;" y="21"></text></g></svg>
