<svg version="1.1" style="font-family:Dosis, sans-serif;font-size:12px;" xmlns="http://www.w3.org/2000/svg" width="938" height="598"><desc>Created with Highcharts 4.0.4</desc><defs><clippath id="highcharts-99"><rect x="0" y="0" width="598" height="573"></rect></clippath></defs><g class="highcharts-grid" zIndex="1"><path fill="none" d="M 309 296.5 L 452.1404035645245 493.51586355515906" stroke="#C0C0C0" stroke-width="1" zIndex="1" opacity="1"></path><path fill="none" d="M 309 296.5 L 165.8595964354755 493.51586355515906" stroke="#C0C0C0" stroke-width="1" zIndex="1" opacity="1"></path><path fill="none" d="M 309 296.5 L 77.3939618692227 221.24663644484096" stroke="#C0C0C0" stroke-width="1" zIndex="1" opacity="1"></path><path fill="none" d="M 309 296.5 L 308.99999999999994 52.974999999999994" stroke="#C0C0C0" stroke-width="1" zIndex="1" opacity="1"></path><path fill="none" d="M 309 296.5 L 540.6060381307773 221.24663644484087" stroke="#C0C0C0" stroke-width="1" zIndex="1" opacity="1"></path><path fill="none" d="M 309 296.5 L 540.6060381307773 221.24663644484093" stroke="#C0C0C0" stroke-width="1" zIndex="1" opacity="1"></path><path fill="none" d="M 309 296.5 L 309 52.974999999999994" stroke="#C0C0C0" stroke-width="1" zIndex="1" opacity="1"></path></g><g class="highcharts-grid" zIndex="1"><path fill="none" stroke="#E0E0E0" stroke-width="1"></path><path fill="none" d="M 309 274.36136363636365 A 22.138636363636365 22.138636363636365 0 1 1 308.9778613673261 274.3613747056809 M 309 296.5 A 0 0 0 1 0 309 296.5 " stroke="#E0E0E0" stroke-width="1" opacity="1"></path><path fill="none" d="M 309 252.22272727272727 A 44.27727272727273 44.27727272727273 0 1 1 308.9557227346522 252.2227494113618 M 309 296.5 A 0 0 0 1 0 309 296.5 " stroke="#E0E0E0" stroke-width="1" opacity="1"></path><path fill="none" d="M 309 230.0840909090909 A 66.4159090909091 66.4159090909091 0 1 1 308.9335841019784 230.08412411704268 M 309 296.5 A 0 0 0 1 0 309 296.5 " stroke="#E0E0E0" stroke-width="1" opacity="1"></path><path fill="none" d="M 309 207.94545454545454 A 88.55454545454546 88.55454545454546 0 1 1 308.9114454693045 207.94549882272358 M 309 296.5 A 0 0 0 1 0 309 296.5 " stroke="#E0E0E0" stroke-width="1" opacity="1"></path><path fill="none" d="M 309 185.8068181818182 A 110.69318181818181 110.69318181818181 0 1 1 308.8893068366306 185.80687352840448 M 309 296.5 A 0 0 0 1 0 309 296.5 " stroke="#E0E0E0" stroke-width="1" opacity="1"></path><path fill="none" d="M 309 163.6681818181818 A 132.8318181818182 132.8318181818182 0 1 1 308.86716820395674 163.66824823408535 M 309 296.5 A 0 0 0 1 0 309 296.5 " stroke="#E0E0E0" stroke-width="1" opacity="1"></path><path fill="none" d="M 309 141.52954545454546 A 154.97045454545454 154.97045454545454 0 1 1 308.84502957128285 141.52962293976628 M 309 296.5 A 0 0 0 1 0 309 296.5 " stroke="#E0E0E0" stroke-width="1" opacity="1"></path><path fill="none" d="M 309 119.39090909090908 A 177.10909090909092 177.10909090909092 0 1 1 308.822890938609 119.39099764544716 M 309 296.5 A 0 0 0 1 0 309 296.5 " stroke="#E0E0E0" stroke-width="1" opacity="1"></path><path fill="none" d="M 309 97.25227272727273 A 199.24772727272727 199.24772727272727 0 1 1 308.80075230593513 97.25237235112806 M 309 296.5 A 0 0 0 1 0 309 296.5 " stroke="#E0E0E0" stroke-width="1" opacity="1"></path><path fill="none" d="M 309 75.11363636363637 A 221.38636363636363 221.38636363636363 0 1 1 308.77861367326125 75.11374705680896 M 309 296.5 A 0 0 0 1 0 309 296.5 " stroke="#E0E0E0" stroke-width="1" opacity="1"></path><path fill="none" d="M 309 52.974999999999994 A 243.525 243.525 0 1 1 308.75647504058736 52.975121762489835 M 309 296.5 A 0 0 0 1 0 309 296.5 " stroke="#E0E0E0" stroke-width="1" opacity="1"></path><path fill="none" d="M 309 52.974999999999994 A 243.525 243.525 0 1 1 308.75647504058736 52.975121762489835 M 309 296.5 A 0 0 0 1 0 309 296.5 " stroke="#C0C0C0" stroke-width="1" zIndex="1" opacity="1"></path><path fill="none" d="M 309 163.6681818181818 A 132.8318181818182 132.8318181818182 0 1 1 308.86716820395674 163.66824823408535 M 309 296.5 A 0 0 0 1 0 309 296.5 " stroke="#C0C0C0" stroke-width="1" zIndex="1" opacity="1"></path><path fill="none" d="M 309 274.36136363636365 A 22.138636363636365 22.138636363636365 0 1 1 308.9778613673261 274.3613747056809 M 309 296.5 A 0 0 0 1 0 309 296.5 " stroke="#C0C0C0" stroke-width="1" zIndex="1" opacity="1"></path></g><g class="highcharts-axis" zIndex="2"><path fill="none" d="M 309 52.974999999999994 A 243.525 243.525 0 1 1 308.75647504058736 52.975121762489835 M 309 296.5 A 0 0 0 1 0 309 296.5 " stroke="#C0D0E0" stroke-width="1" zIndex="7" visibility="visible"></path></g><g class="highcharts-axis" zIndex="2"></g><g class="highcharts-series-group" zIndex="3"><g class="highcharts-series highcharts-tracker" visibility="visible" zIndex="0.1" transform="translate(10,10) scale(1 1)" style="" clip-path="url(#highcharts-99)"><path fill="#f7a35c" d="M 0 0" r="0" stroke="#FFFFFF" stroke-width="1"></path><path fill="#f7a35c" d="M 0 0" r="0" stroke="#FFFFFF" stroke-width="1"></path><path fill="#f7a35c" d="M 0 0" r="0" stroke="#FFFFFF" stroke-width="1"></path><path fill="#f7a35c" d="M 111.21454632982102 441.5517623727156 A 243.525 243.525 0 0 1 97.85147196561775 423.77233987443117 L 299 286.5 A 0 0 0 0 0 299 286.5 Z" r="0" stroke="#FFFFFF" stroke-width="1"></path><path fill="#f7a35c" d="M 0 0" r="0" stroke="#FFFFFF" stroke-width="1"></path></g><g class="highcharts-markers" visibility="visible" zIndex="0.1" transform="translate(10,10) scale(1 1)" clip-path="none"></g><g class="highcharts-series highcharts-tracker" visibility="visible" zIndex="0.1" transform="translate(10,10) scale(1 1)" style="" clip-path="url(#highcharts-99)"><path fill="#90ee7e" d="M 0 0" r="0" stroke="#FFFFFF" stroke-width="1"></path><path fill="#90ee7e" d="M 0 0" r="0" stroke="#FFFFFF" stroke-width="1"></path><path fill="#90ee7e" d="M 0 0" r="0" stroke="#FFFFFF" stroke-width="1"></path><path fill="#90ee7e" d="M 112.11400971454745 413.25026740849466 A 225.8140909090909 225.8140909090909 0 0 1 101.32929276349847 395.6709446405978 L 299 286.5 A 0 0 0 0 0 299 286.5 Z" r="0" stroke="#FFFFFF" stroke-width="1"></path><path fill="#90ee7e" d="M 0 0" r="0" stroke="#FFFFFF" stroke-width="1"></path></g><g class="highcharts-markers" visibility="visible" zIndex="0.1" transform="translate(10,10) scale(1 1)" clip-path="none"></g><g class="highcharts-series highcharts-tracker" visibility="visible" zIndex="0.1" transform="translate(10,10) scale(1 1)" style="" clip-path="url(#highcharts-99)"><path fill="#7798BF" d="M 0 0" r="0" stroke="#FFFFFF" stroke-width="1"></path><path fill="#7798BF" d="M 0 0" r="0" stroke="#FFFFFF" stroke-width="1"></path><path fill="#7798BF" d="M 0 0" r="0" stroke="#FFFFFF" stroke-width="1"></path><path fill="#7798BF" d="M 120.42544066475247 384.4531395235481 A 203.67545454545456 203.67545454545456 0 0 1 112.23338763135493 367.75222020743684 L 299 286.5 A 0 0 0 0 0 299 286.5 Z" r="0" stroke="#FFFFFF" stroke-width="1"></path><path fill="#7798BF" d="M 0 0" r="0" stroke="#FFFFFF" stroke-width="1"></path></g><g class="highcharts-markers" visibility="visible" zIndex="0.1" transform="translate(10,10) scale(1 1)" clip-path="none"></g><g class="highcharts-series highcharts-tracker" visibility="visible" zIndex="0.1" transform="translate(10,10) scale(1 1)" style="" clip-path="url(#highcharts-99)"><path fill="#aaeeee" d="M 0 0" r="0" stroke="#FFFFFF" stroke-width="1"></path><path fill="#aaeeee" d="M 0 0" r="0" stroke="#FFFFFF" stroke-width="1"></path><path fill="#aaeeee" d="M 0 0" r="0" stroke="#FFFFFF" stroke-width="1"></path><path fill="#aaeeee" d="M 130.29325825246053 359.3172256926595 A 183.75068181818182 183.75068181818182 0 0 1 124.35334424874983 343.62143821325765 L 299 286.5 A 0 0 0 0 0 299 286.5 Z" r="0" stroke="#FFFFFF" stroke-width="1"></path><path fill="#aaeeee" d="M 0 0" r="0" stroke="#FFFFFF" stroke-width="1"></path></g><g class="highcharts-markers" visibility="visible" zIndex="0.1" transform="translate(10,10) scale(1 1)" clip-path="none"></g><g class="highcharts-series highcharts-tracker" visibility="visible" zIndex="0.1" transform="translate(10,10) scale(1 1)" style="" clip-path="url(#highcharts-99)"><path fill="#ff0066" d="M 0 0" r="0" stroke="#FFFFFF" stroke-width="1"></path><path fill="#ff0066" d="M 0 0" r="0" stroke="#FFFFFF" stroke-width="1"></path><path fill="#ff0066" d="M 0 0" r="0" stroke="#FFFFFF" stroke-width="1"></path><path fill="#ff0066" d="M 124.18927845356541 343.117353356207 A 183.75068181818182 183.75068181818182 0 0 1 119.7528300843502 326.932229049075 L 299 286.5 A 0 0 0 0 0 299 286.5 Z" r="0" stroke="#FFFFFF" stroke-width="1"></path><path fill="#ff0066" d="M 0 0" r="0" stroke="#FFFFFF" stroke-width="1"></path></g><g class="highcharts-markers" visibility="visible" zIndex="0.1" transform="translate(10,10) scale(1 1)" clip-path="none"></g><g class="highcharts-series highcharts-tracker" visibility="visible" zIndex="0.1" transform="translate(10,10) scale(1 1)" style="" clip-path="url(#highcharts-99)"><path fill="#eeaaee" d="M 0 0" r="0" stroke="#FFFFFF" stroke-width="1"></path><path fill="#eeaaee" d="M 0 0" r="0" stroke="#FFFFFF" stroke-width="1"></path><path fill="#eeaaee" d="M 0 0" r="0" stroke="#FFFFFF" stroke-width="1"></path><path fill="#eeaaee" d="M 152.05194346548708 319.201397759734 A 150.54272727272726 150.54272727272726 0 0 1 149.6812795337443 305.65809105915645 L 299 286.5 A 0 0 0 0 0 299 286.5 Z" r="0" stroke="#FFFFFF" stroke-width="1"></path><path fill="#eeaaee" d="M 0 0" r="0" stroke="#FFFFFF" stroke-width="1"></path></g><g class="highcharts-markers" visibility="visible" zIndex="0.1" transform="translate(10,10) scale(1 1)" clip-path="none"></g><g class="highcharts-series highcharts-tracker" visibility="visible" zIndex="0.1" transform="translate(10,10) scale(1 1)" style="" clip-path="url(#highcharts-99)"><path fill="#55BF3B" d="M 0 0" r="0" stroke="#FFFFFF" stroke-width="1"></path><path fill="#55BF3B" d="M 0 0" r="0" stroke="#FFFFFF" stroke-width="1"></path><path fill="#55BF3B" d="M 0 0" r="0" stroke="#FFFFFF" stroke-width="1"></path><path fill="#55BF3B" d="M 0 0" r="0" stroke="#FFFFFF" stroke-width="1"></path><path fill="#55BF3B" d="M 231.26751667797583 142.2083125402788 A 159.39818181818183 159.39818181818183 0 0 1 244.714570955805 136.6304815500169 L 299 286.5 A 0 0 0 0 0 299 286.5 Z" r="0" stroke="#FFFFFF" stroke-width="1"></path></g><g class="highcharts-markers" visibility="visible" zIndex="0.1" transform="translate(10,10) scale(1 1)" clip-path="none"></g><g class="highcharts-series highcharts-tracker" visibility="visible" zIndex="0.1" transform="translate(10,10) scale(1 1)" style="" clip-path="url(#highcharts-99)"><path fill="#DF5353" d="M 0 0" r="0" stroke="#FFFFFF" stroke-width="1"></path><path fill="#DF5353" d="M 0 0" r="0" stroke="#FFFFFF" stroke-width="1"></path><path fill="#DF5353" d="M 0 0" r="0" stroke="#FFFFFF" stroke-width="1"></path><path fill="#DF5353" d="M 0 0" r="0" stroke="#FFFFFF" stroke-width="1"></path><path fill="#DF5353" d="M 245.14716316919692 136.47449439439623 A 159.39818181818183 159.39818181818183 0 0 1 259.0594592106261 132.18689761269619 L 299 286.5 A 0 0 0 0 0 299 286.5 Z" r="0" stroke="#FFFFFF" stroke-width="1"></path></g><g class="highcharts-markers" visibility="visible" zIndex="0.1" transform="translate(10,10) scale(1 1)" clip-path="none"></g></g><g class="highcharts-legend" zIndex="7" transform="translate(628,227)"><g zIndex="1"><g><g class="highcharts-legend-item" zIndex="1" transform="translate(8,3)"><rect x="0" y="7" width="16" height="12" zIndex="3" fill="#f7a35c"></rect></g><g class="highcharts-legend-item" zIndex="1" transform="translate(8,20)"><rect x="0" y="7" width="16" height="12" zIndex="3" fill="#90ee7e"></rect></g><g class="highcharts-legend-item" zIndex="1" transform="translate(8,37)"><rect x="0" y="7" width="16" height="12" zIndex="3" fill="#7798BF"></rect></g><g class="highcharts-legend-item" zIndex="1" transform="translate(8,54)"><rect x="0" y="7" width="16" height="12" zIndex="3" fill="#ff0066"></rect></g><g class="highcharts-legend-item" zIndex="1" transform="translate(8,71)"><rect x="0" y="7" width="16" height="12" zIndex="3" fill="#aaeeee"></rect></g><g class="highcharts-legend-item" zIndex="1" transform="translate(8,88)"><rect x="0" y="7" width="16" height="12" zIndex="3" fill="#DF5353"></rect></g><g class="highcharts-legend-item" zIndex="1" transform="translate(8,105)"><rect x="0" y="7" width="16" height="12" zIndex="3" fill="#55BF3B"></rect></g><g class="highcharts-legend-item" zIndex="1" transform="translate(8,122)"><rect x="0" y="7" width="16" height="12" zIndex="3" fill="#eeaaee"></rect></g></g></g></g><g class="highcharts-axis-labels highcharts-xaxis-labels" zIndex="7"></g><g class="highcharts-axis-labels highcharts-yaxis-labels" zIndex="7"></g><g class="highcharts-tooltip" zIndex="8" style="cursor:default;padding:0;white-space:nowrap;" transform="translate(0,-9999)"><path fill="rgba(219,219,216,0.8)" d="M 3 0 L 13 0 C 16 0 16 0 16 3 L 16 13 C 16 16 16 16 13 16 L 3 16 C 0 16 0 16 0 13 L 0 3 C 0 0 0 0 3 0"></path><text x="8" zIndex="1" style="font-size:12px;color:#333333;fill:#333333;" y="21"></text></g></svg>
