<svg version="1.1" style="font-family:Dosis, sans-serif;font-size:12px;" xmlns="http://www.w3.org/2000/svg" width="938" height="598"><desc>Created with Highcharts 4.0.4</desc><defs><clippath id="highcharts-97"><rect x="0" y="0" width="501" height="388"></rect></clippath></defs><path fill="#E3E3E3" d="M 487.5 42 L 487.5 543 549.5 543 549.5 42"></path><g class="highcharts-grid" zIndex="1"><path fill="none" d="M 325 66.5 L 713 66.5" stroke="#C0C0C0" stroke-width="1" zIndex="1" opacity="1"></path><path fill="none" d="M 325 90.5 L 713 90.5" stroke="#C0C0C0" stroke-width="1" zIndex="1" opacity="1"></path><path fill="none" d="M 325 114.5 L 713 114.5" stroke="#C0C0C0" stroke-width="1" zIndex="1" opacity="1"></path><path fill="none" d="M 325 137.5 L 713 137.5" stroke="#C0C0C0" stroke-width="1" zIndex="1" opacity="1"></path><path fill="none" d="M 325 161.5 L 713 161.5" stroke="#C0C0C0" stroke-width="1" zIndex="1" opacity="1"></path><path fill="none" d="M 325 185.5 L 713 185.5" stroke="#C0C0C0" stroke-width="1" zIndex="1" opacity="1"></path><path fill="none" d="M 325 209.5 L 713 209.5" stroke="#C0C0C0" stroke-width="1" zIndex="1" opacity="1"></path><path fill="none" d="M 325 233.5 L 713 233.5" stroke="#C0C0C0" stroke-width="1" zIndex="1" opacity="1"></path><path fill="none" d="M 325 257.5 L 713 257.5" stroke="#C0C0C0" stroke-width="1" zIndex="1" opacity="1"></path><path fill="none" d="M 325 281.5 L 713 281.5" stroke="#C0C0C0" stroke-width="1" zIndex="1" opacity="1"></path><path fill="none" d="M 325 304.5 L 713 304.5" stroke="#C0C0C0" stroke-width="1" zIndex="1" opacity="1"></path><path fill="none" d="M 325 328.5 L 713 328.5" stroke="#C0C0C0" stroke-width="1" zIndex="1" opacity="1"></path><path fill="none" d="M 325 352.5 L 713 352.5" stroke="#C0C0C0" stroke-width="1" zIndex="1" opacity="1"></path><path fill="none" d="M 325 376.5 L 713 376.5" stroke="#C0C0C0" stroke-width="1" zIndex="1" opacity="1"></path><path fill="none" d="M 325 400.5 L 713 400.5" stroke="#C0C0C0" stroke-width="1" zIndex="1" opacity="1"></path><path fill="none" d="M 325 424.5 L 713 424.5" stroke="#C0C0C0" stroke-width="1" zIndex="1" opacity="1"></path><path fill="none" d="M 325 448.5 L 713 448.5" stroke="#C0C0C0" stroke-width="1" zIndex="1" opacity="1"></path><path fill="none" d="M 325 471.5 L 713 471.5" stroke="#C0C0C0" stroke-width="1" zIndex="1" opacity="1"></path><path fill="none" d="M 325 495.5 L 713 495.5" stroke="#C0C0C0" stroke-width="1" zIndex="1" opacity="1"></path><path fill="none" d="M 325 519.5 L 713 519.5" stroke="#C0C0C0" stroke-width="1" zIndex="1" opacity="1"></path><path fill="none" d="M 325 543.5 L 713 543.5" stroke="#C0C0C0" stroke-width="1" zIndex="1" opacity="1"></path><path fill="none" d="M 325 41.5 L 713 41.5" stroke="#C0C0C0" stroke-width="1" zIndex="1" opacity="1"></path></g><g class="highcharts-grid" zIndex="1"><path fill="none" d="M 325 66.5 L 713 66.5" stroke="#C0C0C0" stroke-width="1" zIndex="1" opacity="1"></path><path fill="none" d="M 325 90.5 L 713 90.5" stroke="#C0C0C0" stroke-width="1" zIndex="1" opacity="1"></path><path fill="none" d="M 325 114.5 L 713 114.5" stroke="#C0C0C0" stroke-width="1" zIndex="1" opacity="1"></path><path fill="none" d="M 325 137.5 L 713 137.5" stroke="#C0C0C0" stroke-width="1" zIndex="1" opacity="1"></path><path fill="none" d="M 325 161.5 L 713 161.5" stroke="#C0C0C0" stroke-width="1" zIndex="1" opacity="1"></path><path fill="none" d="M 325 185.5 L 713 185.5" stroke="#C0C0C0" stroke-width="1" zIndex="1" opacity="1"></path><path fill="none" d="M 325 209.5 L 713 209.5" stroke="#C0C0C0" stroke-width="1" zIndex="1" opacity="1"></path><path fill="none" d="M 325 233.5 L 713 233.5" stroke="#C0C0C0" stroke-width="1" zIndex="1" opacity="1"></path><path fill="none" d="M 325 257.5 L 713 257.5" stroke="#C0C0C0" stroke-width="1" zIndex="1" opacity="1"></path><path fill="none" d="M 325 281.5 L 713 281.5" stroke="#C0C0C0" stroke-width="1" zIndex="1" opacity="1"></path><path fill="none" d="M 325 304.5 L 713 304.5" stroke="#C0C0C0" stroke-width="1" zIndex="1" opacity="1"></path><path fill="none" d="M 325 328.5 L 713 328.5" stroke="#C0C0C0" stroke-width="1" zIndex="1" opacity="1"></path><path fill="none" d="M 325 352.5 L 713 352.5" stroke="#C0C0C0" stroke-width="1" zIndex="1" opacity="1"></path><path fill="none" d="M 325 376.5 L 713 376.5" stroke="#C0C0C0" stroke-width="1" zIndex="1" opacity="1"></path><path fill="none" d="M 325 400.5 L 713 400.5" stroke="#C0C0C0" stroke-width="1" zIndex="1" opacity="1"></path><path fill="none" d="M 325 424.5 L 713 424.5" stroke="#C0C0C0" stroke-width="1" zIndex="1" opacity="1"></path><path fill="none" d="M 325 448.5 L 713 448.5" stroke="#C0C0C0" stroke-width="1" zIndex="1" opacity="1"></path><path fill="none" d="M 325 471.5 L 713 471.5" stroke="#C0C0C0" stroke-width="1" zIndex="1" opacity="1"></path><path fill="none" d="M 325 495.5 L 713 495.5" stroke="#C0C0C0" stroke-width="1" zIndex="1" opacity="1"></path><path fill="none" d="M 325 519.5 L 713 519.5" stroke="#C0C0C0" stroke-width="1" zIndex="1" opacity="1"></path><path fill="none" d="M 325 543.5 L 713 543.5" stroke="#C0C0C0" stroke-width="1" zIndex="1" opacity="1"></path><path fill="none" d="M 325 41.5 L 713 41.5" stroke="#C0C0C0" stroke-width="1" zIndex="1" opacity="1"></path></g><g class="highcharts-grid" zIndex="1"><path fill="none" d="M 324.5 42 L 324.5 543" stroke="#E0E0E0" stroke-width="1" opacity="1"></path><path fill="none" d="M 332.5 42 L 332.5 543" stroke="#E0E0E0" stroke-width="1" opacity="1"></path><path fill="none" d="M 340.5 42 L 340.5 543" stroke="#E0E0E0" stroke-width="1" opacity="1"></path><path fill="none" d="M 347.5 42 L 347.5 543" stroke="#E0E0E0" stroke-width="1" opacity="1"></path><path fill="none" d="M 355.5 42 L 355.5 543" stroke="#E0E0E0" stroke-width="1" opacity="1"></path><path fill="none" d="M 363.5 42 L 363.5 543" stroke="#E0E0E0" stroke-width="1" opacity="1"></path><path fill="none" d="M 371.5 42 L 371.5 543" stroke="#E0E0E0" stroke-width="1" opacity="1"></path><path fill="none" d="M 378.5 42 L 378.5 543" stroke="#E0E0E0" stroke-width="1" opacity="1"></path><path fill="none" d="M 386.5 42 L 386.5 543" stroke="#E0E0E0" stroke-width="1" opacity="1"></path><path fill="none" d="M 394.5 42 L 394.5 543" stroke="#E0E0E0" stroke-width="1" opacity="1"></path><path fill="none" d="M 402.5 42 L 402.5 543" stroke="#E0E0E0" stroke-width="1" opacity="1"></path><path fill="none" d="M 409.5 42 L 409.5 543" stroke="#E0E0E0" stroke-width="1" opacity="1"></path><path fill="none" d="M 417.5 42 L 417.5 543" stroke="#E0E0E0" stroke-width="1" opacity="1"></path><path fill="none" d="M 425.5 42 L 425.5 543" stroke="#E0E0E0" stroke-width="1" opacity="1"></path><path fill="none" d="M 433.5 42 L 433.5 543" stroke="#E0E0E0" stroke-width="1" opacity="1"></path><path fill="none" d="M 440.5 42 L 440.5 543" stroke="#E0E0E0" stroke-width="1" opacity="1"></path><path fill="none" d="M 448.5 42 L 448.5 543" stroke="#E0E0E0" stroke-width="1" opacity="1"></path><path fill="none" d="M 456.5 42 L 456.5 543" stroke="#E0E0E0" stroke-width="1" opacity="1"></path><path fill="none" d="M 464.5 42 L 464.5 543" stroke="#E0E0E0" stroke-width="1" opacity="1"></path><path fill="none" d="M 471.5 42 L 471.5 543" stroke="#E0E0E0" stroke-width="1" opacity="1"></path><path fill="none" d="M 479.5 42 L 479.5 543" stroke="#E0E0E0" stroke-width="1" opacity="1"></path><path fill="none" d="M 487.5 42 L 487.5 543" stroke="#E0E0E0" stroke-width="1" opacity="1"></path><path fill="none" d="M 495.5 42 L 495.5 543" stroke="#E0E0E0" stroke-width="1" opacity="1"></path><path fill="none" d="M 502.5 42 L 502.5 543" stroke="#E0E0E0" stroke-width="1" opacity="1"></path><path fill="none" d="M 510.5 42 L 510.5 543" stroke="#E0E0E0" stroke-width="1" opacity="1"></path><path fill="none" d="M 518.5 42 L 518.5 543" stroke="#E0E0E0" stroke-width="1" opacity="1"></path><path fill="none" d="M 526.5 42 L 526.5 543" stroke="#E0E0E0" stroke-width="1" opacity="1"></path><path fill="none" d="M 534.5 42 L 534.5 543" stroke="#E0E0E0" stroke-width="1" opacity="1"></path><path fill="none" d="M 541.5 42 L 541.5 543" stroke="#E0E0E0" stroke-width="1" opacity="1"></path><path fill="none" d="M 549.5 42 L 549.5 543" stroke="#E0E0E0" stroke-width="1" opacity="1"></path><path fill="none" d="M 557.5 42 L 557.5 543" stroke="#E0E0E0" stroke-width="1" opacity="1"></path><path fill="none" d="M 565.5 42 L 565.5 543" stroke="#E0E0E0" stroke-width="1" opacity="1"></path><path fill="none" d="M 572.5 42 L 572.5 543" stroke="#E0E0E0" stroke-width="1" opacity="1"></path><path fill="none" d="M 580.5 42 L 580.5 543" stroke="#E0E0E0" stroke-width="1" opacity="1"></path><path fill="none" d="M 588.5 42 L 588.5 543" stroke="#E0E0E0" stroke-width="1" opacity="1"></path><path fill="none" d="M 596.5 42 L 596.5 543" stroke="#E0E0E0" stroke-width="1" opacity="1"></path><path fill="none" d="M 603.5 42 L 603.5 543" stroke="#E0E0E0" stroke-width="1" opacity="1"></path><path fill="none" d="M 611.5 42 L 611.5 543" stroke="#E0E0E0" stroke-width="1" opacity="1"></path><path fill="none" d="M 619.5 42 L 619.5 543" stroke="#E0E0E0" stroke-width="1" opacity="1"></path><path fill="none" d="M 627.5 42 L 627.5 543" stroke="#E0E0E0" stroke-width="1" opacity="1"></path><path fill="none" d="M 634.5 42 L 634.5 543" stroke="#E0E0E0" stroke-width="1" opacity="1"></path><path fill="none" d="M 642.5 42 L 642.5 543" stroke="#E0E0E0" stroke-width="1" opacity="1"></path><path fill="none" d="M 650.5 42 L 650.5 543" stroke="#E0E0E0" stroke-width="1" opacity="1"></path><path fill="none" d="M 658.5 42 L 658.5 543" stroke="#E0E0E0" stroke-width="1" opacity="1"></path><path fill="none" d="M 665.5 42 L 665.5 543" stroke="#E0E0E0" stroke-width="1" opacity="1"></path><path fill="none" d="M 673.5 42 L 673.5 543" stroke="#E0E0E0" stroke-width="1" opacity="1"></path><path fill="none" d="M 681.5 42 L 681.5 543" stroke="#E0E0E0" stroke-width="1" opacity="1"></path><path fill="none" d="M 689.5 42 L 689.5 543" stroke="#E0E0E0" stroke-width="1" opacity="1"></path><path fill="none" d="M 696.5 42 L 696.5 543" stroke="#E0E0E0" stroke-width="1" opacity="1"></path><path fill="none" d="M 704.5 42 L 704.5 543" stroke="#E0E0E0" stroke-width="1" opacity="1"></path><path fill="none" d="M 713.5 42 L 713.5 543" stroke="#E0E0E0" stroke-width="1" opacity="1"></path><path fill="none" d="M 363.5 42 L 363.5 543" stroke="#C0C0C0" stroke-width="1" zIndex="1" opacity="1"></path><path fill="none" d="M 402.5 42 L 402.5 543" stroke="#C0C0C0" stroke-width="1" zIndex="1" opacity="1"></path><path fill="none" d="M 440.5 42 L 440.5 543" stroke="#C0C0C0" stroke-width="1" zIndex="1" opacity="1"></path><path fill="none" d="M 479.5 42 L 479.5 543" stroke="#C0C0C0" stroke-width="1" zIndex="1" opacity="1"></path><path fill="none" d="M 518.5 42 L 518.5 543" stroke="#C0C0C0" stroke-width="1" zIndex="1" opacity="1"></path><path fill="none" d="M 557.5 42 L 557.5 543" stroke="#C0C0C0" stroke-width="1" zIndex="1" opacity="1"></path><path fill="none" d="M 596.5 42 L 596.5 543" stroke="#C0C0C0" stroke-width="1" zIndex="1" opacity="1"></path><path fill="none" d="M 634.5 42 L 634.5 543" stroke="#C0C0C0" stroke-width="1" zIndex="1" opacity="1"></path><path fill="none" d="M 673.5 42 L 673.5 543" stroke="#C0C0C0" stroke-width="1" zIndex="1" opacity="1"></path><path fill="none" d="M 713.5 42 L 713.5 543" stroke="#C0C0C0" stroke-width="1" zIndex="1" opacity="1"></path><path fill="none" d="M 324.5 42 L 324.5 543" stroke="#C0C0C0" stroke-width="1" zIndex="1" opacity="1"></path></g><g class="highcharts-axis" zIndex="2"><path fill="none" d="M 324.5 42 L 324.5 543" stroke="#C0D0E0" stroke-width="1" zIndex="7" visibility="visible"></path></g><g class="highcharts-axis" zIndex="2"><path fill="none" d="M 713.5 42 L 713.5 543" stroke="#C0D0E0" stroke-width="1" zIndex="7" visibility="visible"></path></g><g class="highcharts-axis" zIndex="2"></g><g class="highcharts-series-group" zIndex="3"><g class="highcharts-series" visibility="visible" zIndex="0.1" transform="translate(713,543) rotate(90) scale(-1,1) scale(1 1)" width="388" height="501" clip-path="url(#highcharts-97)"><rect x="476.5" y="-0.5" width="24" height="389" fill="rgba(119,152,191,1)" rx="0" ry="0" stroke="#FFFFFF" stroke-width="1"></rect><rect x="452.5" y="31.5" width="24" height="357" fill="rgba(123,156,195,1)" rx="0" ry="0" stroke="#FFFFFF" stroke-width="1"></rect><rect x="428.5" y="70.5" width="24" height="318" fill="rgba(127,160,199,1)" rx="0" ry="0" stroke="#FFFFFF" stroke-width="1"></rect><rect x="405.5" y="105.5" width="23" height="283" fill="rgba(136,169,208,1)" rx="0" ry="0" stroke="#FFFFFF" stroke-width="1"></rect><rect x="381.5" y="105.5" width="24" height="283" fill="rgba(131,164,203,1)" rx="0" ry="0" stroke="#FFFFFF" stroke-width="1"></rect><rect x="357.5" y="147.5" width="24" height="241" fill="rgba(178,246,246,1)" rx="0" ry="0" stroke="#FFFFFF" stroke-width="1"></rect><rect x="333.5" y="147.5" width="24" height="241" fill="rgba(170,238,238,1)" rx="0" ry="0" stroke="#FFFFFF" stroke-width="1"></rect><rect x="309.5" y="163.5" width="24" height="225" fill="rgba(140,173,212,1)" rx="0" ry="0" stroke="#FFFFFF" stroke-width="1"></rect><rect x="285.5" y="194.5" width="24" height="194" fill="rgba(144,238,126,1)" rx="0" ry="0" stroke="#FFFFFF" stroke-width="1"></rect><rect x="261.5" y="221.5" width="24" height="167" fill="rgba(152,246,134,1)" rx="0" ry="0" stroke="#FFFFFF" stroke-width="1"></rect><rect x="238.5" y="279.5" width="23" height="109" fill="rgba(124,181,236,1)" rx="0" ry="0" stroke="#FFFFFF" stroke-width="1"></rect><rect x="214.5" y="283.5" width="24" height="105" fill="rgba(187,255,255,1)" rx="0" ry="0" stroke="#FFFFFF" stroke-width="1"></rect><rect x="190.5" y="291.5" width="24" height="97" fill="rgba(247,163,92,1)" rx="0" ry="0" stroke="#FFFFFF" stroke-width="1"></rect><rect x="166.5" y="299.5" width="24" height="89" fill="rgba(161,255,143,1)" rx="0" ry="0" stroke="#FFFFFF" stroke-width="1"></rect><rect x="142.5" y="338.5" width="24" height="50" fill="rgba(129,186,241,1)" rx="0" ry="0" stroke="#FFFFFF" stroke-width="1"></rect><rect x="118.5" y="369.5" width="24" height="19" fill="rgba(134,191,246,1)" rx="0" ry="0" stroke="#FFFFFF" stroke-width="1"></rect><rect x="94.5" y="376.5" width="24" height="12" fill="rgba(139,196,251,1)" rx="0" ry="0" stroke="#FFFFFF" stroke-width="1"></rect><rect x="71.5" y="376.5" width="23" height="12" fill="rgba(253,169,98,1)" rx="0" ry="0" stroke="#FFFFFF" stroke-width="1"></rect><rect x="47.5" y="380.5" width="24" height="8" fill="rgba(144,201,255,1)" rx="0" ry="0" stroke="#FFFFFF" stroke-width="1"></rect><rect x="23.5" y="386.5" width="24" height="2" fill="rgba(255,182,111,1)" rx="0" ry="0" stroke="#FFFFFF" stroke-width="1"></rect><rect x="-0.5" y="386.5" width="24" height="2" fill="rgba(255,175,104,1)" rx="0" ry="0" stroke="#FFFFFF" stroke-width="1"></rect></g><g class="highcharts-markers" visibility="visible" zIndex="0.1" transform="translate(713,543) rotate(90) scale(-1,1) scale(1 1)" width="388" height="501" clip-path="none"></g></g><g class="highcharts-legend" zIndex="7" transform="translate(319,563)" style="left: 25%;"><div class="highcharts-legend-item" style="float: left; margin-right: 20px;background-color: #DEFBFD!important;"><span style="float: left; font-family:serif; margin-right: 10px;width: 20px;height: 20px;display: block; float: left;background-color:#7cb5ec !important;"></span><span style="font-family:serif;">Faire (0%)</span></div><div class="highcharts-legend-item" style="float: left; margin-right: 20px;background-color: #DEFBFD!important;"><span style="float: left; font-family:serif; margin-right: 10px;width: 20px;height: 20px;display: block; float: left;background-color:#f7a35c !important;"></span><span style="font-family:serif;">Aider (0%)</span></div><div class="highcharts-legend-item" style="float: left; margin-right: 20px;background-color: #DEFBFD!important;"><span style="float: left; font-family:serif; margin-right: 10px;width: 20px;height: 20px;display: block; float: left;background-color:#90ee7e !important;"></span><span style="font-family:serif;">Analyser (0%)</span></div><div class="highcharts-legend-item" style="float: left; margin-right: 20px;background-color: #DEFBFD!important;"><span style="float: left; font-family:serif; margin-right: 10px;width: 20px;height: 20px;display: block; float: left;background-color:#7798BF !important;"></span><span style="font-family:serif;">Influencer (79%)</span></div><div class="highcharts-legend-item" style="float: left; margin-right: 20px;background-color: #DEFBFD!important;"><span style="float: left; font-family:serif; margin-right: 10px;width: 20px;height: 20px;display: block; float: left;background-color:#aaeeee !important;"></span><span style="font-family:serif;">Exprimer (21%)</span></div></g><g class="highcharts-axis-labels highcharts-xaxis-labels" zIndex="7"></g><g class="highcharts-axis-labels highcharts-xaxis-labels" zIndex="7"></g><g class="highcharts-axis-labels highcharts-yaxis-labels" zIndex="7"></g><g class="highcharts-tooltip" zIndex="8" style="cursor:default;padding:0;white-space:nowrap;" transform="translate(0,-9999)"><path fill="rgba(219,219,216,0.8)" d="M 3 0 L 13 0 C 16 0 16 0 16 3 L 16 13 C 16 16 16 16 13 16 L 3 16 C 0 16 0 16 0 13 L 0 3 C 0 0 0 0 3 0"></path><text x="8" zIndex="1" style="font-size:12px;color:#333333;fill:#333333;" y="21"></text></g></svg>
