<svg version="1.1" style="font-family:Dosis, sans-serif;font-size:12px;" xmlns="http://www.w3.org/2000/svg" width="938" height="258"><desc>Created with Highcharts 4.0.4</desc><defs><clippath id="highcharts-29"><rect x="0" y="0" width="201" height="338"></rect></clippath></defs><path fill="#E3E3E3" d="M 466.5 42 L 466.5 243 520.5 243 520.5 42"></path><g class="highcharts-grid" zIndex="1"><path fill="none" d="M 325 76.5 L 663 76.5" stroke="#C0C0C0" stroke-width="1" zIndex="1" opacity="1"></path><path fill="none" d="M 325 109.5 L 663 109.5" stroke="#C0C0C0" stroke-width="1" zIndex="1" opacity="1"></path><path fill="none" d="M 325 143.5 L 663 143.5" stroke="#C0C0C0" stroke-width="1" zIndex="1" opacity="1"></path><path fill="none" d="M 325 176.5 L 663 176.5" stroke="#C0C0C0" stroke-width="1" zIndex="1" opacity="1"></path><path fill="none" d="M 325 210.5 L 663 210.5" stroke="#C0C0C0" stroke-width="1" zIndex="1" opacity="1"></path><path fill="none" d="M 325 243.5 L 663 243.5" stroke="#C0C0C0" stroke-width="1" zIndex="1" opacity="1"></path><path fill="none" d="M 325 41.5 L 663 41.5" stroke="#C0C0C0" stroke-width="1" zIndex="1" opacity="1"></path></g><g class="highcharts-grid" zIndex="1"><path fill="none" d="M 325 76.5 L 663 76.5" stroke="#C0C0C0" stroke-width="1" zIndex="1" opacity="1"></path><path fill="none" d="M 325 109.5 L 663 109.5" stroke="#C0C0C0" stroke-width="1" zIndex="1" opacity="1"></path><path fill="none" d="M 325 143.5 L 663 143.5" stroke="#C0C0C0" stroke-width="1" zIndex="1" opacity="1"></path><path fill="none" d="M 325 176.5 L 663 176.5" stroke="#C0C0C0" stroke-width="1" zIndex="1" opacity="1"></path><path fill="none" d="M 325 210.5 L 663 210.5" stroke="#C0C0C0" stroke-width="1" zIndex="1" opacity="1"></path><path fill="none" d="M 325 243.5 L 663 243.5" stroke="#C0C0C0" stroke-width="1" zIndex="1" opacity="1"></path><path fill="none" d="M 325 41.5 L 663 41.5" stroke="#C0C0C0" stroke-width="1" zIndex="1" opacity="1"></path></g><g class="highcharts-grid" zIndex="1"><path fill="none" d="M 324.5 42 L 324.5 243" stroke="#E0E0E0" stroke-width="1" opacity="1"></path><path fill="none" d="M 331.5 42 L 331.5 243" stroke="#E0E0E0" stroke-width="1" opacity="1"></path><path fill="none" d="M 338.5 42 L 338.5 243" stroke="#E0E0E0" stroke-width="1" opacity="1"></path><path fill="none" d="M 344.5 42 L 344.5 243" stroke="#E0E0E0" stroke-width="1" opacity="1"></path><path fill="none" d="M 351.5 42 L 351.5 243" stroke="#E0E0E0" stroke-width="1" opacity="1"></path><path fill="none" d="M 358.5 42 L 358.5 243" stroke="#E0E0E0" stroke-width="1" opacity="1"></path><path fill="none" d="M 365.5 42 L 365.5 243" stroke="#E0E0E0" stroke-width="1" opacity="1"></path><path fill="none" d="M 371.5 42 L 371.5 243" stroke="#E0E0E0" stroke-width="1" opacity="1"></path><path fill="none" d="M 378.5 42 L 378.5 243" stroke="#E0E0E0" stroke-width="1" opacity="1"></path><path fill="none" d="M 385.5 42 L 385.5 243" stroke="#E0E0E0" stroke-width="1" opacity="1"></path><path fill="none" d="M 392.5 42 L 392.5 243" stroke="#E0E0E0" stroke-width="1" opacity="1"></path><path fill="none" d="M 398.5 42 L 398.5 243" stroke="#E0E0E0" stroke-width="1" opacity="1"></path><path fill="none" d="M 405.5 42 L 405.5 243" stroke="#E0E0E0" stroke-width="1" opacity="1"></path><path fill="none" d="M 412.5 42 L 412.5 243" stroke="#E0E0E0" stroke-width="1" opacity="1"></path><path fill="none" d="M 419.5 42 L 419.5 243" stroke="#E0E0E0" stroke-width="1" opacity="1"></path><path fill="none" d="M 425.5 42 L 425.5 243" stroke="#E0E0E0" stroke-width="1" opacity="1"></path><path fill="none" d="M 432.5 42 L 432.5 243" stroke="#E0E0E0" stroke-width="1" opacity="1"></path><path fill="none" d="M 439.5 42 L 439.5 243" stroke="#E0E0E0" stroke-width="1" opacity="1"></path><path fill="none" d="M 446.5 42 L 446.5 243" stroke="#E0E0E0" stroke-width="1" opacity="1"></path><path fill="none" d="M 452.5 42 L 452.5 243" stroke="#E0E0E0" stroke-width="1" opacity="1"></path><path fill="none" d="M 459.5 42 L 459.5 243" stroke="#E0E0E0" stroke-width="1" opacity="1"></path><path fill="none" d="M 466.5 42 L 466.5 243" stroke="#E0E0E0" stroke-width="1" opacity="1"></path><path fill="none" d="M 473.5 42 L 473.5 243" stroke="#E0E0E0" stroke-width="1" opacity="1"></path><path fill="none" d="M 479.5 42 L 479.5 243" stroke="#E0E0E0" stroke-width="1" opacity="1"></path><path fill="none" d="M 486.5 42 L 486.5 243" stroke="#E0E0E0" stroke-width="1" opacity="1"></path><path fill="none" d="M 493.5 42 L 493.5 243" stroke="#E0E0E0" stroke-width="1" opacity="1"></path><path fill="none" d="M 500.5 42 L 500.5 243" stroke="#E0E0E0" stroke-width="1" opacity="1"></path><path fill="none" d="M 507.5 42 L 507.5 243" stroke="#E0E0E0" stroke-width="1" opacity="1"></path><path fill="none" d="M 513.5 42 L 513.5 243" stroke="#E0E0E0" stroke-width="1" opacity="1"></path><path fill="none" d="M 520.5 42 L 520.5 243" stroke="#E0E0E0" stroke-width="1" opacity="1"></path><path fill="none" d="M 527.5 42 L 527.5 243" stroke="#E0E0E0" stroke-width="1" opacity="1"></path><path fill="none" d="M 534.5 42 L 534.5 243" stroke="#E0E0E0" stroke-width="1" opacity="1"></path><path fill="none" d="M 540.5 42 L 540.5 243" stroke="#E0E0E0" stroke-width="1" opacity="1"></path><path fill="none" d="M 547.5 42 L 547.5 243" stroke="#E0E0E0" stroke-width="1" opacity="1"></path><path fill="none" d="M 554.5 42 L 554.5 243" stroke="#E0E0E0" stroke-width="1" opacity="1"></path><path fill="none" d="M 561.5 42 L 561.5 243" stroke="#E0E0E0" stroke-width="1" opacity="1"></path><path fill="none" d="M 567.5 42 L 567.5 243" stroke="#E0E0E0" stroke-width="1" opacity="1"></path><path fill="none" d="M 574.5 42 L 574.5 243" stroke="#E0E0E0" stroke-width="1" opacity="1"></path><path fill="none" d="M 581.5 42 L 581.5 243" stroke="#E0E0E0" stroke-width="1" opacity="1"></path><path fill="none" d="M 588.5 42 L 588.5 243" stroke="#E0E0E0" stroke-width="1" opacity="1"></path><path fill="none" d="M 594.5 42 L 594.5 243" stroke="#E0E0E0" stroke-width="1" opacity="1"></path><path fill="none" d="M 601.5 42 L 601.5 243" stroke="#E0E0E0" stroke-width="1" opacity="1"></path><path fill="none" d="M 608.5 42 L 608.5 243" stroke="#E0E0E0" stroke-width="1" opacity="1"></path><path fill="none" d="M 615.5 42 L 615.5 243" stroke="#E0E0E0" stroke-width="1" opacity="1"></path><path fill="none" d="M 621.5 42 L 621.5 243" stroke="#E0E0E0" stroke-width="1" opacity="1"></path><path fill="none" d="M 628.5 42 L 628.5 243" stroke="#E0E0E0" stroke-width="1" opacity="1"></path><path fill="none" d="M 635.5 42 L 635.5 243" stroke="#E0E0E0" stroke-width="1" opacity="1"></path><path fill="none" d="M 642.5 42 L 642.5 243" stroke="#E0E0E0" stroke-width="1" opacity="1"></path><path fill="none" d="M 648.5 42 L 648.5 243" stroke="#E0E0E0" stroke-width="1" opacity="1"></path><path fill="none" d="M 655.5 42 L 655.5 243" stroke="#E0E0E0" stroke-width="1" opacity="1"></path><path fill="none" d="M 663.5 42 L 663.5 243" stroke="#E0E0E0" stroke-width="1" opacity="1"></path><path fill="none" d="M 358.5 42 L 358.5 243" stroke="#C0C0C0" stroke-width="1" zIndex="1" opacity="1"></path><path fill="none" d="M 392.5 42 L 392.5 243" stroke="#C0C0C0" stroke-width="1" zIndex="1" opacity="1"></path><path fill="none" d="M 425.5 42 L 425.5 243" stroke="#C0C0C0" stroke-width="1" zIndex="1" opacity="1"></path><path fill="none" d="M 459.5 42 L 459.5 243" stroke="#C0C0C0" stroke-width="1" zIndex="1" opacity="1"></path><path fill="none" d="M 493.5 42 L 493.5 243" stroke="#C0C0C0" stroke-width="1" zIndex="1" opacity="1"></path><path fill="none" d="M 527.5 42 L 527.5 243" stroke="#C0C0C0" stroke-width="1" zIndex="1" opacity="1"></path><path fill="none" d="M 561.5 42 L 561.5 243" stroke="#C0C0C0" stroke-width="1" zIndex="1" opacity="1"></path><path fill="none" d="M 594.5 42 L 594.5 243" stroke="#C0C0C0" stroke-width="1" zIndex="1" opacity="1"></path><path fill="none" d="M 628.5 42 L 628.5 243" stroke="#C0C0C0" stroke-width="1" zIndex="1" opacity="1"></path><path fill="none" d="M 663.5 42 L 663.5 243" stroke="#C0C0C0" stroke-width="1" zIndex="1" opacity="1"></path><path fill="none" d="M 324.5 42 L 324.5 243" stroke="#C0C0C0" stroke-width="1" zIndex="1" opacity="1"></path></g><g class="highcharts-axis" zIndex="2"><path fill="none" d="M 324.5 42 L 324.5 243" stroke="#C0D0E0" stroke-width="1" zIndex="7" visibility="visible"></path></g><g class="highcharts-axis" zIndex="2"><path fill="none" d="M 663.5 42 L 663.5 243" stroke="#C0D0E0" stroke-width="1" zIndex="7" visibility="visible"></path></g><g class="highcharts-axis" zIndex="2"></g><g class="highcharts-series-group" zIndex="3"><g class="highcharts-series" visibility="visible" zIndex="0.1" transform="translate(663,243) rotate(90) scale(-1,1) scale(1 1)" width="338" height="201" clip-path="url(#highcharts-29)"><rect x="167.5" y="304.5" width="33" height="0" fill="#90ee7e" rx="0" ry="0" stroke="#FFFFFF" stroke-width="1"></rect></g><g class="highcharts-markers" visibility="visible" zIndex="0.1" transform="translate(663,243) rotate(90) scale(-1,1) scale(1 1)" width="338" height="201" clip-path="none"></g><g class="highcharts-series" visibility="visible" zIndex="0.1" transform="translate(663,243) rotate(90) scale(-1,1) scale(1 1)" width="338" height="201" clip-path="url(#highcharts-29)"><rect x="167.5" y="304.5" width="33" height="0" fill="#7cb5ec" rx="0" ry="0" stroke="#FFFFFF" stroke-width="1"></rect></g><g class="highcharts-markers" visibility="visible" zIndex="0.1" transform="translate(663,243) rotate(90) scale(-1,1) scale(1 1)" width="338" height="201" clip-path="none"></g><g class="highcharts-series" visibility="visible" zIndex="0.1" transform="translate(663,243) rotate(90) scale(-1,1) scale(1 1)" width="338" height="201" clip-path="url(#highcharts-29)"><rect x="167.5" y="304.5" width="33" height="34" fill="#f7a35c" rx="0" ry="0" stroke="#FFFFFF" stroke-width="1"></rect></g><g class="highcharts-markers" visibility="visible" zIndex="0.1" transform="translate(663,243) rotate(90) scale(-1,1) scale(1 1)" width="338" height="201" clip-path="none"></g><g class="highcharts-series" visibility="visible" zIndex="0.1" transform="translate(663,243) rotate(90) scale(-1,1) scale(1 1)" width="338" height="201" clip-path="url(#highcharts-29)"><rect x="173.5" y="338.5" width="20" height="0" fill="#90ee7e" rx="0" ry="0" stroke="#FFFFFF" stroke-width="1"></rect><rect x="140.5" y="243.5" width="20" height="0" fill="#90ee7e" rx="0" ry="0" stroke="#FFFFFF" stroke-width="1"></rect><rect x="106.5" y="294.5" width="20" height="0" fill="#90ee7e" rx="0" ry="0" stroke="#FFFFFF" stroke-width="1"></rect><rect x="73.5" y="321.5" width="20" height="0" fill="#90ee7e" rx="0" ry="0" stroke="#FFFFFF" stroke-width="1"></rect><rect x="39.5" y="328.5" width="20" height="0" fill="#90ee7e" rx="0" ry="0" stroke="#FFFFFF" stroke-width="1"></rect><rect x="6.5" y="331.5" width="20" height="0" fill="#90ee7e" rx="0" ry="0" stroke="#FFFFFF" stroke-width="1"></rect></g><g class="highcharts-markers" visibility="visible" zIndex="0.1" transform="translate(663,243) rotate(90) scale(-1,1) scale(1 1)" width="338" height="201" clip-path="none"></g><g class="highcharts-series" visibility="visible" zIndex="0.1" transform="translate(663,243) rotate(90) scale(-1,1) scale(1 1)" width="338" height="201" clip-path="url(#highcharts-29)"><rect x="173.5" y="338.5" width="20" height="0" fill="#7cb5ec" rx="0" ry="0" stroke="#FFFFFF" stroke-width="1"></rect><rect x="140.5" y="243.5" width="20" height="0" fill="#7cb5ec" rx="0" ry="0" stroke="#FFFFFF" stroke-width="1"></rect><rect x="106.5" y="294.5" width="20" height="0" fill="#7cb5ec" rx="0" ry="0" stroke="#FFFFFF" stroke-width="1"></rect><rect x="73.5" y="321.5" width="20" height="0" fill="#7cb5ec" rx="0" ry="0" stroke="#FFFFFF" stroke-width="1"></rect><rect x="39.5" y="328.5" width="20" height="0" fill="#7cb5ec" rx="0" ry="0" stroke="#FFFFFF" stroke-width="1"></rect><rect x="6.5" y="331.5" width="20" height="0" fill="#7cb5ec" rx="0" ry="0" stroke="#FFFFFF" stroke-width="1"></rect></g><g class="highcharts-markers" visibility="visible" zIndex="0.1" transform="translate(663,243) rotate(90) scale(-1,1) scale(1 1)" width="338" height="201" clip-path="none"></g><g class="highcharts-series" visibility="visible" zIndex="0.1" transform="translate(663,243) rotate(90) scale(-1,1) scale(1 1)" width="338" height="201" clip-path="url(#highcharts-29)"><rect x="173.5" y="338.5" width="20" height="0" fill="#f7a35c" rx="0" ry="0" stroke="#FFFFFF" stroke-width="1"></rect><rect x="140.5" y="243.5" width="20" height="95" fill="#f7a35c" rx="0" ry="0" stroke="#FFFFFF" stroke-width="1"></rect><rect x="106.5" y="294.5" width="20" height="44" fill="#f7a35c" rx="0" ry="0" stroke="#FFFFFF" stroke-width="1"></rect><rect x="73.5" y="321.5" width="20" height="17" fill="#f7a35c" rx="0" ry="0" stroke="#FFFFFF" stroke-width="1"></rect><rect x="39.5" y="328.5" width="20" height="10" fill="#f7a35c" rx="0" ry="0" stroke="#FFFFFF" stroke-width="1"></rect><rect x="6.5" y="331.5" width="20" height="7" fill="#f7a35c" rx="0" ry="0" stroke="#FFFFFF" stroke-width="1"></rect></g><g class="highcharts-markers" visibility="visible" zIndex="0.1" transform="translate(663,243) rotate(90) scale(-1,1) scale(1 1)" width="338" height="201" clip-path="none"></g></g><g class="highcharts-axis-labels highcharts-xaxis-labels" zIndex="7"></g><g class="highcharts-axis-labels highcharts-xaxis-labels" zIndex="7"></g><g class="highcharts-axis-labels highcharts-yaxis-labels" zIndex="7"></g><g class="highcharts-tooltip" zIndex="8" style="cursor:default;padding:0;white-space:nowrap;" transform="translate(0,-9999)"><path fill="rgba(219,219,216,0.8)" d="M 3 0 L 13 0 C 16 0 16 0 16 3 L 16 13 C 16 16 16 16 13 16 L 3 16 C 0 16 0 16 0 13 L 0 3 C 0 0 0 0 3 0"></path><text x="8" zIndex="1" style="font-size:12px;color:#333333;fill:#333333;" y="21"></text></g></svg>
