<svg version="1.1" style="font-family:Dosis, sans-serif;font-size:12px;" xmlns="http://www.w3.org/2000/svg" width="938" height="1224"><desc>Created with Highcharts 4.0.4</desc><defs><clippath id="highcharts-49"><rect x="0" y="0" width="1167" height="288"></rect></clippath></defs><path fill="#E3E3E3" d="M 445.5 42 L 445.5 1209 491.5 1209 491.5 42"></path><g class="highcharts-grid" zIndex="1"><path fill="none" d="M 325 74.5 L 613 74.5" stroke="#C0C0C0" stroke-width="1" zIndex="1" opacity="1"></path><path fill="none" d="M 325 107.5 L 613 107.5" stroke="#C0C0C0" stroke-width="1" zIndex="1" opacity="1"></path><path fill="none" d="M 325 139.5 L 613 139.5" stroke="#C0C0C0" stroke-width="1" zIndex="1" opacity="1"></path><path fill="none" d="M 325 172.5 L 613 172.5" stroke="#C0C0C0" stroke-width="1" zIndex="1" opacity="1"></path><path fill="none" d="M 325 204.5 L 613 204.5" stroke="#C0C0C0" stroke-width="1" zIndex="1" opacity="1"></path><path fill="none" d="M 325 237.5 L 613 237.5" stroke="#C0C0C0" stroke-width="1" zIndex="1" opacity="1"></path><path fill="none" d="M 325 269.5 L 613 269.5" stroke="#C0C0C0" stroke-width="1" zIndex="1" opacity="1"></path><path fill="none" d="M 325 301.5 L 613 301.5" stroke="#C0C0C0" stroke-width="1" zIndex="1" opacity="1"></path><path fill="none" d="M 325 334.5 L 613 334.5" stroke="#C0C0C0" stroke-width="1" zIndex="1" opacity="1"></path><path fill="none" d="M 325 366.5 L 613 366.5" stroke="#C0C0C0" stroke-width="1" zIndex="1" opacity="1"></path><path fill="none" d="M 325 399.5 L 613 399.5" stroke="#C0C0C0" stroke-width="1" zIndex="1" opacity="1"></path><path fill="none" d="M 325 431.5 L 613 431.5" stroke="#C0C0C0" stroke-width="1" zIndex="1" opacity="1"></path><path fill="none" d="M 325 463.5 L 613 463.5" stroke="#C0C0C0" stroke-width="1" zIndex="1" opacity="1"></path><path fill="none" d="M 325 496.5 L 613 496.5" stroke="#C0C0C0" stroke-width="1" zIndex="1" opacity="1"></path><path fill="none" d="M 325 528.5 L 613 528.5" stroke="#C0C0C0" stroke-width="1" zIndex="1" opacity="1"></path><path fill="none" d="M 325 561.5 L 613 561.5" stroke="#C0C0C0" stroke-width="1" zIndex="1" opacity="1"></path><path fill="none" d="M 325 593.5 L 613 593.5" stroke="#C0C0C0" stroke-width="1" zIndex="1" opacity="1"></path><path fill="none" d="M 325 626.5 L 613 626.5" stroke="#C0C0C0" stroke-width="1" zIndex="1" opacity="1"></path><path fill="none" d="M 325 658.5 L 613 658.5" stroke="#C0C0C0" stroke-width="1" zIndex="1" opacity="1"></path><path fill="none" d="M 325 690.5 L 613 690.5" stroke="#C0C0C0" stroke-width="1" zIndex="1" opacity="1"></path><path fill="none" d="M 325 723.5 L 613 723.5" stroke="#C0C0C0" stroke-width="1" zIndex="1" opacity="1"></path><path fill="none" d="M 325 755.5 L 613 755.5" stroke="#C0C0C0" stroke-width="1" zIndex="1" opacity="1"></path><path fill="none" d="M 325 788.5 L 613 788.5" stroke="#C0C0C0" stroke-width="1" zIndex="1" opacity="1"></path><path fill="none" d="M 325 820.5 L 613 820.5" stroke="#C0C0C0" stroke-width="1" zIndex="1" opacity="1"></path><path fill="none" d="M 325 852.5 L 613 852.5" stroke="#C0C0C0" stroke-width="1" zIndex="1" opacity="1"></path><path fill="none" d="M 325 885.5 L 613 885.5" stroke="#C0C0C0" stroke-width="1" zIndex="1" opacity="1"></path><path fill="none" d="M 325 917.5 L 613 917.5" stroke="#C0C0C0" stroke-width="1" zIndex="1" opacity="1"></path><path fill="none" d="M 325 950.5 L 613 950.5" stroke="#C0C0C0" stroke-width="1" zIndex="1" opacity="1"></path><path fill="none" d="M 325 982.5 L 613 982.5" stroke="#C0C0C0" stroke-width="1" zIndex="1" opacity="1"></path><path fill="none" d="M 325 1015.5 L 613 1015.5" stroke="#C0C0C0" stroke-width="1" zIndex="1" opacity="1"></path><path fill="none" d="M 325 1047.5 L 613 1047.5" stroke="#C0C0C0" stroke-width="1" zIndex="1" opacity="1"></path><path fill="none" d="M 325 1079.5 L 613 1079.5" stroke="#C0C0C0" stroke-width="1" zIndex="1" opacity="1"></path><path fill="none" d="M 325 1112.5 L 613 1112.5" stroke="#C0C0C0" stroke-width="1" zIndex="1" opacity="1"></path><path fill="none" d="M 325 1144.5 L 613 1144.5" stroke="#C0C0C0" stroke-width="1" zIndex="1" opacity="1"></path><path fill="none" d="M 325 1177.5 L 613 1177.5" stroke="#C0C0C0" stroke-width="1" zIndex="1" opacity="1"></path><path fill="none" d="M 325 1209.5 L 613 1209.5" stroke="#C0C0C0" stroke-width="1" zIndex="1" opacity="1"></path><path fill="none" d="M 325 41.5 L 613 41.5" stroke="#C0C0C0" stroke-width="1" zIndex="1" opacity="1"></path></g><g class="highcharts-grid" zIndex="1"><path fill="none" d="M 325 74.5 L 613 74.5" stroke="#C0C0C0" stroke-width="1" zIndex="1" opacity="1"></path><path fill="none" d="M 325 107.5 L 613 107.5" stroke="#C0C0C0" stroke-width="1" zIndex="1" opacity="1"></path><path fill="none" d="M 325 139.5 L 613 139.5" stroke="#C0C0C0" stroke-width="1" zIndex="1" opacity="1"></path><path fill="none" d="M 325 172.5 L 613 172.5" stroke="#C0C0C0" stroke-width="1" zIndex="1" opacity="1"></path><path fill="none" d="M 325 204.5 L 613 204.5" stroke="#C0C0C0" stroke-width="1" zIndex="1" opacity="1"></path><path fill="none" d="M 325 237.5 L 613 237.5" stroke="#C0C0C0" stroke-width="1" zIndex="1" opacity="1"></path><path fill="none" d="M 325 269.5 L 613 269.5" stroke="#C0C0C0" stroke-width="1" zIndex="1" opacity="1"></path><path fill="none" d="M 325 301.5 L 613 301.5" stroke="#C0C0C0" stroke-width="1" zIndex="1" opacity="1"></path><path fill="none" d="M 325 334.5 L 613 334.5" stroke="#C0C0C0" stroke-width="1" zIndex="1" opacity="1"></path><path fill="none" d="M 325 366.5 L 613 366.5" stroke="#C0C0C0" stroke-width="1" zIndex="1" opacity="1"></path><path fill="none" d="M 325 399.5 L 613 399.5" stroke="#C0C0C0" stroke-width="1" zIndex="1" opacity="1"></path><path fill="none" d="M 325 431.5 L 613 431.5" stroke="#C0C0C0" stroke-width="1" zIndex="1" opacity="1"></path><path fill="none" d="M 325 463.5 L 613 463.5" stroke="#C0C0C0" stroke-width="1" zIndex="1" opacity="1"></path><path fill="none" d="M 325 496.5 L 613 496.5" stroke="#C0C0C0" stroke-width="1" zIndex="1" opacity="1"></path><path fill="none" d="M 325 528.5 L 613 528.5" stroke="#C0C0C0" stroke-width="1" zIndex="1" opacity="1"></path><path fill="none" d="M 325 561.5 L 613 561.5" stroke="#C0C0C0" stroke-width="1" zIndex="1" opacity="1"></path><path fill="none" d="M 325 593.5 L 613 593.5" stroke="#C0C0C0" stroke-width="1" zIndex="1" opacity="1"></path><path fill="none" d="M 325 626.5 L 613 626.5" stroke="#C0C0C0" stroke-width="1" zIndex="1" opacity="1"></path><path fill="none" d="M 325 658.5 L 613 658.5" stroke="#C0C0C0" stroke-width="1" zIndex="1" opacity="1"></path><path fill="none" d="M 325 690.5 L 613 690.5" stroke="#C0C0C0" stroke-width="1" zIndex="1" opacity="1"></path><path fill="none" d="M 325 723.5 L 613 723.5" stroke="#C0C0C0" stroke-width="1" zIndex="1" opacity="1"></path><path fill="none" d="M 325 755.5 L 613 755.5" stroke="#C0C0C0" stroke-width="1" zIndex="1" opacity="1"></path><path fill="none" d="M 325 788.5 L 613 788.5" stroke="#C0C0C0" stroke-width="1" zIndex="1" opacity="1"></path><path fill="none" d="M 325 820.5 L 613 820.5" stroke="#C0C0C0" stroke-width="1" zIndex="1" opacity="1"></path><path fill="none" d="M 325 852.5 L 613 852.5" stroke="#C0C0C0" stroke-width="1" zIndex="1" opacity="1"></path><path fill="none" d="M 325 885.5 L 613 885.5" stroke="#C0C0C0" stroke-width="1" zIndex="1" opacity="1"></path><path fill="none" d="M 325 917.5 L 613 917.5" stroke="#C0C0C0" stroke-width="1" zIndex="1" opacity="1"></path><path fill="none" d="M 325 950.5 L 613 950.5" stroke="#C0C0C0" stroke-width="1" zIndex="1" opacity="1"></path><path fill="none" d="M 325 982.5 L 613 982.5" stroke="#C0C0C0" stroke-width="1" zIndex="1" opacity="1"></path><path fill="none" d="M 325 1015.5 L 613 1015.5" stroke="#C0C0C0" stroke-width="1" zIndex="1" opacity="1"></path><path fill="none" d="M 325 1047.5 L 613 1047.5" stroke="#C0C0C0" stroke-width="1" zIndex="1" opacity="1"></path><path fill="none" d="M 325 1079.5 L 613 1079.5" stroke="#C0C0C0" stroke-width="1" zIndex="1" opacity="1"></path><path fill="none" d="M 325 1112.5 L 613 1112.5" stroke="#C0C0C0" stroke-width="1" zIndex="1" opacity="1"></path><path fill="none" d="M 325 1144.5 L 613 1144.5" stroke="#C0C0C0" stroke-width="1" zIndex="1" opacity="1"></path><path fill="none" d="M 325 1177.5 L 613 1177.5" stroke="#C0C0C0" stroke-width="1" zIndex="1" opacity="1"></path><path fill="none" d="M 325 1209.5 L 613 1209.5" stroke="#C0C0C0" stroke-width="1" zIndex="1" opacity="1"></path><path fill="none" d="M 325 41.5 L 613 41.5" stroke="#C0C0C0" stroke-width="1" zIndex="1" opacity="1"></path></g><g class="highcharts-grid" zIndex="1"><path fill="none" d="M 324.5 42 L 324.5 1209" stroke="#E0E0E0" stroke-width="1" opacity="1"></path><path fill="none" d="M 330.5 42 L 330.5 1209" stroke="#E0E0E0" stroke-width="1" opacity="1"></path><path fill="none" d="M 336.5 42 L 336.5 1209" stroke="#E0E0E0" stroke-width="1" opacity="1"></path><path fill="none" d="M 341.5 42 L 341.5 1209" stroke="#E0E0E0" stroke-width="1" opacity="1"></path><path fill="none" d="M 347.5 42 L 347.5 1209" stroke="#E0E0E0" stroke-width="1" opacity="1"></path><path fill="none" d="M 353.5 42 L 353.5 1209" stroke="#E0E0E0" stroke-width="1" opacity="1"></path><path fill="none" d="M 359.5 42 L 359.5 1209" stroke="#E0E0E0" stroke-width="1" opacity="1"></path><path fill="none" d="M 364.5 42 L 364.5 1209" stroke="#E0E0E0" stroke-width="1" opacity="1"></path><path fill="none" d="M 370.5 42 L 370.5 1209" stroke="#E0E0E0" stroke-width="1" opacity="1"></path><path fill="none" d="M 376.5 42 L 376.5 1209" stroke="#E0E0E0" stroke-width="1" opacity="1"></path><path fill="none" d="M 382.5 42 L 382.5 1209" stroke="#E0E0E0" stroke-width="1" opacity="1"></path><path fill="none" d="M 387.5 42 L 387.5 1209" stroke="#E0E0E0" stroke-width="1" opacity="1"></path><path fill="none" d="M 393.5 42 L 393.5 1209" stroke="#E0E0E0" stroke-width="1" opacity="1"></path><path fill="none" d="M 399.5 42 L 399.5 1209" stroke="#E0E0E0" stroke-width="1" opacity="1"></path><path fill="none" d="M 405.5 42 L 405.5 1209" stroke="#E0E0E0" stroke-width="1" opacity="1"></path><path fill="none" d="M 410.5 42 L 410.5 1209" stroke="#E0E0E0" stroke-width="1" opacity="1"></path><path fill="none" d="M 416.5 42 L 416.5 1209" stroke="#E0E0E0" stroke-width="1" opacity="1"></path><path fill="none" d="M 422.5 42 L 422.5 1209" stroke="#E0E0E0" stroke-width="1" opacity="1"></path><path fill="none" d="M 428.5 42 L 428.5 1209" stroke="#E0E0E0" stroke-width="1" opacity="1"></path><path fill="none" d="M 433.5 42 L 433.5 1209" stroke="#E0E0E0" stroke-width="1" opacity="1"></path><path fill="none" d="M 439.5 42 L 439.5 1209" stroke="#E0E0E0" stroke-width="1" opacity="1"></path><path fill="none" d="M 445.5 42 L 445.5 1209" stroke="#E0E0E0" stroke-width="1" opacity="1"></path><path fill="none" d="M 451.5 42 L 451.5 1209" stroke="#E0E0E0" stroke-width="1" opacity="1"></path><path fill="none" d="M 456.5 42 L 456.5 1209" stroke="#E0E0E0" stroke-width="1" opacity="1"></path><path fill="none" d="M 462.5 42 L 462.5 1209" stroke="#E0E0E0" stroke-width="1" opacity="1"></path><path fill="none" d="M 468.5 42 L 468.5 1209" stroke="#E0E0E0" stroke-width="1" opacity="1"></path><path fill="none" d="M 474.5 42 L 474.5 1209" stroke="#E0E0E0" stroke-width="1" opacity="1"></path><path fill="none" d="M 480.5 42 L 480.5 1209" stroke="#E0E0E0" stroke-width="1" opacity="1"></path><path fill="none" d="M 485.5 42 L 485.5 1209" stroke="#E0E0E0" stroke-width="1" opacity="1"></path><path fill="none" d="M 491.5 42 L 491.5 1209" stroke="#E0E0E0" stroke-width="1" opacity="1"></path><path fill="none" d="M 497.5 42 L 497.5 1209" stroke="#E0E0E0" stroke-width="1" opacity="1"></path><path fill="none" d="M 503.5 42 L 503.5 1209" stroke="#E0E0E0" stroke-width="1" opacity="1"></path><path fill="none" d="M 508.5 42 L 508.5 1209" stroke="#E0E0E0" stroke-width="1" opacity="1"></path><path fill="none" d="M 514.5 42 L 514.5 1209" stroke="#E0E0E0" stroke-width="1" opacity="1"></path><path fill="none" d="M 520.5 42 L 520.5 1209" stroke="#E0E0E0" stroke-width="1" opacity="1"></path><path fill="none" d="M 526.5 42 L 526.5 1209" stroke="#E0E0E0" stroke-width="1" opacity="1"></path><path fill="none" d="M 531.5 42 L 531.5 1209" stroke="#E0E0E0" stroke-width="1" opacity="1"></path><path fill="none" d="M 537.5 42 L 537.5 1209" stroke="#E0E0E0" stroke-width="1" opacity="1"></path><path fill="none" d="M 543.5 42 L 543.5 1209" stroke="#E0E0E0" stroke-width="1" opacity="1"></path><path fill="none" d="M 549.5 42 L 549.5 1209" stroke="#E0E0E0" stroke-width="1" opacity="1"></path><path fill="none" d="M 554.5 42 L 554.5 1209" stroke="#E0E0E0" stroke-width="1" opacity="1"></path><path fill="none" d="M 560.5 42 L 560.5 1209" stroke="#E0E0E0" stroke-width="1" opacity="1"></path><path fill="none" d="M 566.5 42 L 566.5 1209" stroke="#E0E0E0" stroke-width="1" opacity="1"></path><path fill="none" d="M 572.5 42 L 572.5 1209" stroke="#E0E0E0" stroke-width="1" opacity="1"></path><path fill="none" d="M 577.5 42 L 577.5 1209" stroke="#E0E0E0" stroke-width="1" opacity="1"></path><path fill="none" d="M 583.5 42 L 583.5 1209" stroke="#E0E0E0" stroke-width="1" opacity="1"></path><path fill="none" d="M 589.5 42 L 589.5 1209" stroke="#E0E0E0" stroke-width="1" opacity="1"></path><path fill="none" d="M 595.5 42 L 595.5 1209" stroke="#E0E0E0" stroke-width="1" opacity="1"></path><path fill="none" d="M 600.5 42 L 600.5 1209" stroke="#E0E0E0" stroke-width="1" opacity="1"></path><path fill="none" d="M 606.5 42 L 606.5 1209" stroke="#E0E0E0" stroke-width="1" opacity="1"></path><path fill="none" d="M 613.5 42 L 613.5 1209" stroke="#E0E0E0" stroke-width="1" opacity="1"></path><path fill="none" d="M 353.5 42 L 353.5 1209" stroke="#C0C0C0" stroke-width="1" zIndex="1" opacity="1"></path><path fill="none" d="M 382.5 42 L 382.5 1209" stroke="#C0C0C0" stroke-width="1" zIndex="1" opacity="1"></path><path fill="none" d="M 410.5 42 L 410.5 1209" stroke="#C0C0C0" stroke-width="1" zIndex="1" opacity="1"></path><path fill="none" d="M 439.5 42 L 439.5 1209" stroke="#C0C0C0" stroke-width="1" zIndex="1" opacity="1"></path><path fill="none" d="M 468.5 42 L 468.5 1209" stroke="#C0C0C0" stroke-width="1" zIndex="1" opacity="1"></path><path fill="none" d="M 497.5 42 L 497.5 1209" stroke="#C0C0C0" stroke-width="1" zIndex="1" opacity="1"></path><path fill="none" d="M 526.5 42 L 526.5 1209" stroke="#C0C0C0" stroke-width="1" zIndex="1" opacity="1"></path><path fill="none" d="M 554.5 42 L 554.5 1209" stroke="#C0C0C0" stroke-width="1" zIndex="1" opacity="1"></path><path fill="none" d="M 583.5 42 L 583.5 1209" stroke="#C0C0C0" stroke-width="1" zIndex="1" opacity="1"></path><path fill="none" d="M 613.5 42 L 613.5 1209" stroke="#C0C0C0" stroke-width="1" zIndex="1" opacity="1"></path><path fill="none" d="M 324.5 42 L 324.5 1209" stroke="#C0C0C0" stroke-width="1" zIndex="1" opacity="1"></path></g><g class="highcharts-grid" zIndex="1"></g><g class="highcharts-axis" zIndex="2"><path fill="none" d="M 324.5 42 L 324.5 1209" stroke="#C0D0E0" stroke-width="1" zIndex="7" visibility="visible"></path></g><g class="highcharts-axis" zIndex="2"><path fill="none" d="M 613.5 42 L 613.5 1209" stroke="#C0D0E0" stroke-width="1" zIndex="7" visibility="visible"></path></g><g class="highcharts-axis" zIndex="2"><path fill="none" d="M 325 41.5 L 613 41.5" stroke="#C0D0E0" stroke-width="1" zIndex="7" visibility="visible"></path></g><g class="highcharts-axis" zIndex="2"><path fill="none" d="M 325 1209.5 L 613 1209.5" stroke="#C0D0E0" stroke-width="1" zIndex="7" visibility="visible"></path></g><g class="highcharts-series-group" zIndex="3"><g class="highcharts-series" visibility="visible" zIndex="0.1" transform="translate(613,1209) rotate(90) scale(-1,1) scale(1 1)" width="288" height="1167" clip-path="url(#highcharts-49)"><rect x="1134.5" y="-0.5" width="32" height="122" fill="#90ee7e" rx="0" ry="0" stroke="#FFFFFF" stroke-width="1"></rect><rect x="1101.5" y="-0.5" width="33" height="122" fill="#90ee7e" rx="0" ry="0" stroke="#FFFFFF" stroke-width="1"></rect><rect x="1069.5" y="-0.5" width="32" height="122" fill="#90ee7e" rx="0" ry="0" stroke="#FFFFFF" stroke-width="1"></rect><rect x="1036.5" y="58.5" width="33" height="63" fill="#90ee7e" rx="0" ry="0" stroke="#FFFFFF" stroke-width="1"></rect><rect x="1004.5" y="58.5" width="32" height="63" fill="#90ee7e" rx="0" ry="0" stroke="#FFFFFF" stroke-width="1"></rect><rect x="972.5" y="81.5" width="32" height="40" fill="#90ee7e" rx="0" ry="0" stroke="#FFFFFF" stroke-width="1"></rect><rect x="939.5" y="86.5" width="32" height="35" fill="#90ee7e" rx="0" ry="0" stroke="#FFFFFF" stroke-width="1"></rect><rect x="907.5" y="92.5" width="32" height="29" fill="#90ee7e" rx="0" ry="0" stroke="#FFFFFF" stroke-width="1"></rect><rect x="874.5" y="92.5" width="33" height="29" fill="#90ee7e" rx="0" ry="0" stroke="#FFFFFF" stroke-width="1"></rect><rect x="842.5" y="95.5" width="32" height="26" fill="#90ee7e" rx="0" ry="0" stroke="#FFFFFF" stroke-width="1"></rect><rect x="809.5" y="115.5" width="33" height="6" fill="#90ee7e" rx="0" ry="0" stroke="#FFFFFF" stroke-width="1"></rect><rect x="777.5" y="135.5" width="32" height="0" fill="#90ee7e" rx="0" ry="0" stroke="#FFFFFF" stroke-width="1"></rect><rect x="745.5" y="144.5" width="32" height="0" fill="#90ee7e" rx="0" ry="0" stroke="#FFFFFF" stroke-width="1"></rect><rect x="712.5" y="173.5" width="33" height="0" fill="#90ee7e" rx="0" ry="0" stroke="#FFFFFF" stroke-width="1"></rect><rect x="680.5" y="187.5" width="32" height="0" fill="#90ee7e" rx="0" ry="0" stroke="#FFFFFF" stroke-width="1"></rect><rect x="647.5" y="196.5" width="33" height="0" fill="#90ee7e" rx="0" ry="0" stroke="#FFFFFF" stroke-width="1"></rect><rect x="615.5" y="216.5" width="32" height="0" fill="#90ee7e" rx="0" ry="0" stroke="#FFFFFF" stroke-width="1"></rect><rect x="583.5" y="236.5" width="32" height="0" fill="#90ee7e" rx="0" ry="0" stroke="#FFFFFF" stroke-width="1"></rect><rect x="550.5" y="245.5" width="32" height="0" fill="#90ee7e" rx="0" ry="0" stroke="#FFFFFF" stroke-width="1"></rect><rect x="518.5" y="259.5" width="32" height="0" fill="#90ee7e" rx="0" ry="0" stroke="#FFFFFF" stroke-width="1"></rect><rect x="485.5" y="268.5" width="33" height="0" fill="#90ee7e" rx="0" ry="0" stroke="#FFFFFF" stroke-width="1"></rect><rect x="453.5" y="287.5" width="32" height="0" fill="#90ee7e" rx="0" ry="0" stroke="#FFFFFF" stroke-width="1"></rect><rect x="420.5" y="287.5" width="33" height="0" fill="#90ee7e" rx="0" ry="0" stroke="#FFFFFF" stroke-width="1"></rect><rect x="388.5" y="287.5" width="32" height="0" fill="#90ee7e" rx="0" ry="0" stroke="#FFFFFF" stroke-width="1"></rect><rect x="356.5" y="287.5" width="32" height="0" fill="#90ee7e" rx="0" ry="0" stroke="#FFFFFF" stroke-width="1"></rect><rect x="323.5" y="287.5" width="33" height="0" fill="#90ee7e" rx="0" ry="0" stroke="#FFFFFF" stroke-width="1"></rect><rect x="291.5" y="287.5" width="32" height="0" fill="#90ee7e" rx="0" ry="0" stroke="#FFFFFF" stroke-width="1"></rect><rect x="258.5" y="287.5" width="33" height="0" fill="#90ee7e" rx="0" ry="0" stroke="#FFFFFF" stroke-width="1"></rect><rect x="226.5" y="287.5" width="32" height="0" fill="#90ee7e" rx="0" ry="0" stroke="#FFFFFF" stroke-width="1"></rect><rect x="194.5" y="287.5" width="32" height="0" fill="#90ee7e" rx="0" ry="0" stroke="#FFFFFF" stroke-width="1"></rect><rect x="161.5" y="287.5" width="33" height="0" fill="#90ee7e" rx="0" ry="0" stroke="#FFFFFF" stroke-width="1"></rect><rect x="129.5" y="287.5" width="32" height="0" fill="#90ee7e" rx="0" ry="0" stroke="#FFFFFF" stroke-width="1"></rect><rect x="96.5" y="287.5" width="33" height="0" fill="#90ee7e" rx="0" ry="0" stroke="#FFFFFF" stroke-width="1"></rect><rect x="64.5" y="287.5" width="32" height="0" fill="#90ee7e" rx="0" ry="0" stroke="#FFFFFF" stroke-width="1"></rect><rect x="31.5" y="287.5" width="33" height="0" fill="#90ee7e" rx="0" ry="0" stroke="#FFFFFF" stroke-width="1"></rect><rect x="-0.5" y="287.5" width="32" height="0" fill="#90ee7e" rx="0" ry="0" stroke="#FFFFFF" stroke-width="1"></rect></g><g class="highcharts-markers" visibility="visible" zIndex="0.1" transform="translate(613,1209) rotate(90) scale(-1,1) scale(1 1)" width="288" height="1167" clip-path="none"></g><g class="highcharts-series" visibility="visible" zIndex="0.1" transform="translate(613,1209) rotate(90) scale(-1,1) scale(1 1)" width="288" height="1167" clip-path="url(#highcharts-49)"><rect x="1134.5" y="121.5" width="32" height="46" fill="#7cb5ec" rx="0" ry="0" stroke="#FFFFFF" stroke-width="1"></rect><rect x="1101.5" y="121.5" width="33" height="46" fill="#7cb5ec" rx="0" ry="0" stroke="#FFFFFF" stroke-width="1"></rect><rect x="1069.5" y="121.5" width="32" height="46" fill="#7cb5ec" rx="0" ry="0" stroke="#FFFFFF" stroke-width="1"></rect><rect x="1036.5" y="121.5" width="33" height="46" fill="#7cb5ec" rx="0" ry="0" stroke="#FFFFFF" stroke-width="1"></rect><rect x="1004.5" y="121.5" width="32" height="46" fill="#7cb5ec" rx="0" ry="0" stroke="#FFFFFF" stroke-width="1"></rect><rect x="972.5" y="121.5" width="32" height="46" fill="#7cb5ec" rx="0" ry="0" stroke="#FFFFFF" stroke-width="1"></rect><rect x="939.5" y="121.5" width="32" height="46" fill="#7cb5ec" rx="0" ry="0" stroke="#FFFFFF" stroke-width="1"></rect><rect x="907.5" y="121.5" width="32" height="46" fill="#7cb5ec" rx="0" ry="0" stroke="#FFFFFF" stroke-width="1"></rect><rect x="874.5" y="121.5" width="33" height="46" fill="#7cb5ec" rx="0" ry="0" stroke="#FFFFFF" stroke-width="1"></rect><rect x="842.5" y="121.5" width="32" height="46" fill="#7cb5ec" rx="0" ry="0" stroke="#FFFFFF" stroke-width="1"></rect><rect x="809.5" y="121.5" width="33" height="46" fill="#7cb5ec" rx="0" ry="0" stroke="#FFFFFF" stroke-width="1"></rect><rect x="777.5" y="135.5" width="32" height="32" fill="#7cb5ec" rx="0" ry="0" stroke="#FFFFFF" stroke-width="1"></rect><rect x="745.5" y="144.5" width="32" height="23" fill="#7cb5ec" rx="0" ry="0" stroke="#FFFFFF" stroke-width="1"></rect><rect x="712.5" y="173.5" width="33" height="0" fill="#7cb5ec" rx="0" ry="0" stroke="#FFFFFF" stroke-width="1"></rect><rect x="680.5" y="187.5" width="32" height="0" fill="#7cb5ec" rx="0" ry="0" stroke="#FFFFFF" stroke-width="1"></rect><rect x="647.5" y="196.5" width="33" height="0" fill="#7cb5ec" rx="0" ry="0" stroke="#FFFFFF" stroke-width="1"></rect><rect x="615.5" y="216.5" width="32" height="0" fill="#7cb5ec" rx="0" ry="0" stroke="#FFFFFF" stroke-width="1"></rect><rect x="583.5" y="236.5" width="32" height="0" fill="#7cb5ec" rx="0" ry="0" stroke="#FFFFFF" stroke-width="1"></rect><rect x="550.5" y="245.5" width="32" height="0" fill="#7cb5ec" rx="0" ry="0" stroke="#FFFFFF" stroke-width="1"></rect><rect x="518.5" y="259.5" width="32" height="0" fill="#7cb5ec" rx="0" ry="0" stroke="#FFFFFF" stroke-width="1"></rect><rect x="485.5" y="268.5" width="33" height="0" fill="#7cb5ec" rx="0" ry="0" stroke="#FFFFFF" stroke-width="1"></rect><rect x="453.5" y="287.5" width="32" height="0" fill="#7cb5ec" rx="0" ry="0" stroke="#FFFFFF" stroke-width="1"></rect><rect x="420.5" y="287.5" width="33" height="0" fill="#7cb5ec" rx="0" ry="0" stroke="#FFFFFF" stroke-width="1"></rect><rect x="388.5" y="287.5" width="32" height="0" fill="#7cb5ec" rx="0" ry="0" stroke="#FFFFFF" stroke-width="1"></rect><rect x="356.5" y="287.5" width="32" height="0" fill="#7cb5ec" rx="0" ry="0" stroke="#FFFFFF" stroke-width="1"></rect><rect x="323.5" y="287.5" width="33" height="0" fill="#7cb5ec" rx="0" ry="0" stroke="#FFFFFF" stroke-width="1"></rect><rect x="291.5" y="287.5" width="32" height="0" fill="#7cb5ec" rx="0" ry="0" stroke="#FFFFFF" stroke-width="1"></rect><rect x="258.5" y="287.5" width="33" height="0" fill="#7cb5ec" rx="0" ry="0" stroke="#FFFFFF" stroke-width="1"></rect><rect x="226.5" y="287.5" width="32" height="0" fill="#7cb5ec" rx="0" ry="0" stroke="#FFFFFF" stroke-width="1"></rect><rect x="194.5" y="287.5" width="32" height="0" fill="#7cb5ec" rx="0" ry="0" stroke="#FFFFFF" stroke-width="1"></rect><rect x="161.5" y="287.5" width="33" height="0" fill="#7cb5ec" rx="0" ry="0" stroke="#FFFFFF" stroke-width="1"></rect><rect x="129.5" y="287.5" width="32" height="0" fill="#7cb5ec" rx="0" ry="0" stroke="#FFFFFF" stroke-width="1"></rect><rect x="96.5" y="287.5" width="33" height="0" fill="#7cb5ec" rx="0" ry="0" stroke="#FFFFFF" stroke-width="1"></rect><rect x="64.5" y="287.5" width="32" height="0" fill="#7cb5ec" rx="0" ry="0" stroke="#FFFFFF" stroke-width="1"></rect><rect x="31.5" y="287.5" width="33" height="0" fill="#7cb5ec" rx="0" ry="0" stroke="#FFFFFF" stroke-width="1"></rect><rect x="-0.5" y="287.5" width="32" height="0" fill="#7cb5ec" rx="0" ry="0" stroke="#FFFFFF" stroke-width="1"></rect></g><g class="highcharts-markers" visibility="visible" zIndex="0.1" transform="translate(613,1209) rotate(90) scale(-1,1) scale(1 1)" width="288" height="1167" clip-path="none"></g><g class="highcharts-series" visibility="visible" zIndex="0.1" transform="translate(613,1209) rotate(90) scale(-1,1) scale(1 1)" width="288" height="1167" clip-path="url(#highcharts-49)"><rect x="1134.5" y="167.5" width="32" height="121" fill="#f7a35c" rx="0" ry="0" stroke="#FFFFFF" stroke-width="1"></rect><rect x="1101.5" y="167.5" width="33" height="121" fill="#f7a35c" rx="0" ry="0" stroke="#FFFFFF" stroke-width="1"></rect><rect x="1069.5" y="167.5" width="32" height="121" fill="#f7a35c" rx="0" ry="0" stroke="#FFFFFF" stroke-width="1"></rect><rect x="1036.5" y="167.5" width="33" height="121" fill="#f7a35c" rx="0" ry="0" stroke="#FFFFFF" stroke-width="1"></rect><rect x="1004.5" y="167.5" width="32" height="121" fill="#f7a35c" rx="0" ry="0" stroke="#FFFFFF" stroke-width="1"></rect><rect x="972.5" y="167.5" width="32" height="121" fill="#f7a35c" rx="0" ry="0" stroke="#FFFFFF" stroke-width="1"></rect><rect x="939.5" y="167.5" width="32" height="121" fill="#f7a35c" rx="0" ry="0" stroke="#FFFFFF" stroke-width="1"></rect><rect x="907.5" y="167.5" width="32" height="121" fill="#f7a35c" rx="0" ry="0" stroke="#FFFFFF" stroke-width="1"></rect><rect x="874.5" y="167.5" width="33" height="121" fill="#f7a35c" rx="0" ry="0" stroke="#FFFFFF" stroke-width="1"></rect><rect x="842.5" y="167.5" width="32" height="121" fill="#f7a35c" rx="0" ry="0" stroke="#FFFFFF" stroke-width="1"></rect><rect x="809.5" y="167.5" width="33" height="121" fill="#f7a35c" rx="0" ry="0" stroke="#FFFFFF" stroke-width="1"></rect><rect x="777.5" y="167.5" width="32" height="121" fill="#f7a35c" rx="0" ry="0" stroke="#FFFFFF" stroke-width="1"></rect><rect x="745.5" y="167.5" width="32" height="121" fill="#f7a35c" rx="0" ry="0" stroke="#FFFFFF" stroke-width="1"></rect><rect x="712.5" y="173.5" width="33" height="115" fill="#f7a35c" rx="0" ry="0" stroke="#FFFFFF" stroke-width="1"></rect><rect x="680.5" y="187.5" width="32" height="101" fill="#f7a35c" rx="0" ry="0" stroke="#FFFFFF" stroke-width="1"></rect><rect x="647.5" y="196.5" width="33" height="92" fill="#f7a35c" rx="0" ry="0" stroke="#FFFFFF" stroke-width="1"></rect><rect x="615.5" y="216.5" width="32" height="72" fill="#f7a35c" rx="0" ry="0" stroke="#FFFFFF" stroke-width="1"></rect><rect x="583.5" y="236.5" width="32" height="52" fill="#f7a35c" rx="0" ry="0" stroke="#FFFFFF" stroke-width="1"></rect><rect x="550.5" y="245.5" width="32" height="43" fill="#f7a35c" rx="0" ry="0" stroke="#FFFFFF" stroke-width="1"></rect><rect x="518.5" y="259.5" width="32" height="29" fill="#f7a35c" rx="0" ry="0" stroke="#FFFFFF" stroke-width="1"></rect><rect x="485.5" y="268.5" width="33" height="20" fill="#f7a35c" rx="0" ry="0" stroke="#FFFFFF" stroke-width="1"></rect><rect x="453.5" y="287.5" width="32" height="1" fill="#f7a35c" rx="0" ry="0" stroke="#FFFFFF" stroke-width="1"></rect><rect x="420.5" y="287.5" width="33" height="1" fill="#f7a35c" rx="0" ry="0" stroke="#FFFFFF" stroke-width="1"></rect><rect x="388.5" y="287.5" width="32" height="1" fill="#f7a35c" rx="0" ry="0" stroke="#FFFFFF" stroke-width="1"></rect><rect x="356.5" y="287.5" width="32" height="1" fill="#f7a35c" rx="0" ry="0" stroke="#FFFFFF" stroke-width="1"></rect><rect x="323.5" y="287.5" width="33" height="1" fill="#f7a35c" rx="0" ry="0" stroke="#FFFFFF" stroke-width="1"></rect><rect x="291.5" y="287.5" width="32" height="1" fill="#f7a35c" rx="0" ry="0" stroke="#FFFFFF" stroke-width="1"></rect><rect x="258.5" y="287.5" width="33" height="1" fill="#f7a35c" rx="0" ry="0" stroke="#FFFFFF" stroke-width="1"></rect><rect x="226.5" y="287.5" width="32" height="1" fill="#f7a35c" rx="0" ry="0" stroke="#FFFFFF" stroke-width="1"></rect><rect x="194.5" y="287.5" width="32" height="1" fill="#f7a35c" rx="0" ry="0" stroke="#FFFFFF" stroke-width="1"></rect><rect x="161.5" y="287.5" width="33" height="1" fill="#f7a35c" rx="0" ry="0" stroke="#FFFFFF" stroke-width="1"></rect><rect x="129.5" y="287.5" width="32" height="1" fill="#f7a35c" rx="0" ry="0" stroke="#FFFFFF" stroke-width="1"></rect><rect x="96.5" y="287.5" width="33" height="1" fill="#f7a35c" rx="0" ry="0" stroke="#FFFFFF" stroke-width="1"></rect><rect x="64.5" y="287.5" width="32" height="1" fill="#f7a35c" rx="0" ry="0" stroke="#FFFFFF" stroke-width="1"></rect><rect x="31.5" y="287.5" width="33" height="1" fill="#f7a35c" rx="0" ry="0" stroke="#FFFFFF" stroke-width="1"></rect><rect x="-0.5" y="287.5" width="32" height="1" fill="#f7a35c" rx="0" ry="0" stroke="#FFFFFF" stroke-width="1"></rect></g><g class="highcharts-markers" visibility="visible" zIndex="0.1" transform="translate(613,1209) rotate(90) scale(-1,1) scale(1 1)" width="288" height="1167" clip-path="none"></g></g><g class="highcharts-axis-labels highcharts-xaxis-labels" zIndex="7"></g><g class="highcharts-axis-labels highcharts-xaxis-labels" zIndex="7"></g><g class="highcharts-axis-labels highcharts-yaxis-labels" zIndex="7"></g><g class="highcharts-axis-labels highcharts-yaxis-labels" zIndex="7"></g><g class="highcharts-tooltip" zIndex="8" style="cursor:default;padding:0;white-space:nowrap;" transform="translate(0,-9999)"><path fill="rgba(219,219,216,0.8)" d="M 3 0 L 13 0 C 16 0 16 0 16 3 L 16 13 C 16 16 16 16 13 16 L 3 16 C 0 16 0 16 0 13 L 0 3 C 0 0 0 0 3 0"></path><text x="8" zIndex="1" style="font-size:12px;color:#333333;fill:#333333;" y="21"></text></g></svg>
