<svg version="1.1" style="font-family:Dosis, sans-serif;font-size:12px;" xmlns="http://www.w3.org/2000/svg" width="938" height="400"><desc>Created with Highcharts 4.0.4</desc><defs><clippath id="highcharts-79"><rect x="0" y="0" width="598" height="375"></rect></clippath></defs><g class="highcharts-series-group" zIndex="3"><g class="highcharts-series highcharts-tracker" visibility="visible" zIndex="0.1" transform="translate(10,10) scale(1 1)" style="cursor:pointer;"><path fill="#7cb5ec" d="M 298.9638480063441 10.000003681596212 A 177.5 177.5 0 0 1 467.7663572572444 132.5075763571005 L 299 187.5 A 0 0 0 0 0 299 187.5 Z" stroke="#FFFFFF" stroke-width="1" stroke-linejoin="round" transform="translate(0,0)"></path><path fill="#f7a35c" d="M 467.82126528855036 132.67637018243954 A 177.5 177.5 0 0 1 422.4105323358274 315.0777821902689 L 299 187.5 A 0 0 0 0 0 299 187.5 Z" stroke="#FFFFFF" stroke-width="1" stroke-linejoin="round" transform="translate(0,0)"></path><path fill="#90ee7e" d="M 422.28289286963906 315.20112891315057 A 177.5 177.5 0 0 1 262.3102705148983 361.166674265128 L 299 187.5 A 0 0 0 0 0 299 187.5 Z" stroke="#FFFFFF" stroke-width="1" stroke-linejoin="round" transform="translate(0,0)"></path><path fill="#7798BF" d="M 262.1366222144409 361.12989770842796 A 177.5 177.5 0 0 1 145.36877340704243 276.40273457854556 L 299 187.5 A 0 0 0 0 0 299 187.5 Z" stroke="#FFFFFF" stroke-width="1" stroke-linejoin="round" transform="translate(0,0)"></path><path fill="#aaeeee" d="M 145.2799475028879 276.24905892619427 A 177.5 177.5 0 0 1 124.16204136902024 156.87422292003333 L 299 187.5 A 0 0 0 0 0 299 187.5 Z" stroke="#FFFFFF" stroke-width="1" stroke-linejoin="round" transform="translate(0,0)"></path><path fill="#ff0066" d="M 124.19275455996794 156.6994003034293 A 177.5 177.5 0 0 1 167.01688263155276 68.8125670944616 L 299 187.5 A 0 0 0 0 0 299 187.5 Z" stroke="#FFFFFF" stroke-width="1" stroke-linejoin="round" transform="translate(0,0)"></path><path fill="#eeaaee" d="M 167.13563603623024 68.68064334280186 A 177.5 177.5 0 0 1 226.72156304406485 25.382519291697292 L 299 187.5 A 0 0 0 0 0 299 187.5 Z" stroke="#FFFFFF" stroke-width="1" stroke-linejoin="round" transform="translate(0,0)"></path><path fill="#55BF3B" d="M 226.8837166369691 25.310321925521322 A 177.5 177.5 0 0 1 274.16273053486464 11.746308586373488 L 299 187.5 A 0 0 0 0 0 299 187.5 Z" stroke="#FFFFFF" stroke-width="1" stroke-linejoin="round" transform="translate(0,0)"></path><path fill="#DF5353" d="M 274.3384966156197 11.721559197886279 A 177.5 177.5 0 0 1 298.7534560609923 10.000171222375144 L 299 187.5 A 0 0 0 0 0 299 187.5 Z" stroke="#FFFFFF" stroke-width="1" stroke-linejoin="round" transform="translate(0,0)"></path></g><g class="highcharts-markers" visibility="visible" zIndex="0.1" transform="translate(10,10) scale(1 1)"></g></g><g class="highcharts-data-labels highcharts-tracker" visibility="visible" zIndex="6" transform="translate(10,10) scale(1 1)" opacity="1" style="cursor:pointer;"><g zIndex="1" style="cursor:pointer;" transform="translate(362,82)"><text x="1.5" zIndex="1" style="font-size:15px;color:#000000;fill:#000000;" y="18">1</text></g><g zIndex="1" style="cursor:pointer;" transform="translate(407,206)"><text x="1.5" zIndex="1" style="font-size:15px;color:#000000;fill:#000000;" y="18">2</text></g><g zIndex="1" style="cursor:pointer;" transform="translate(326,290)"><text x="1.5" zIndex="1" style="font-size:15px;color:#000000;fill:#000000;" y="18">3</text></g><g zIndex="1" style="cursor:pointer;" transform="translate(224,273)"><text x="1.5" zIndex="1" style="font-size:15px;color:#000000;fill:#000000;" y="18">4</text></g><g zIndex="1" style="cursor:pointer;" transform="translate(178,198)"><text x="1.5" zIndex="1" style="font-size:15px;color:#000000;fill:#000000;" y="18">5</text></g><g zIndex="1" style="cursor:pointer;" transform="translate(188,126)"><text x="1.5" zIndex="1" style="font-size:15px;color:#000000;fill:#000000;" y="18">6</text></g><g zIndex="1" style="cursor:pointer;" transform="translate(224,82)"><text x="1.5" zIndex="1" style="font-size:15px;color:#000000;fill:#000000;" y="18">7</text></g><g zIndex="1" style="cursor:pointer;" transform="translate(261,65)"><text x="1.5" zIndex="1" style="font-size:15px;color:#000000;fill:#000000;" y="18">8</text></g><g zIndex="1" style="cursor:pointer;" transform="translate(285,60)"><text x="1.5" zIndex="1" style="font-size:15px;color:#000000;fill:#000000;" y="18">9</text></g></g><g class="highcharts-legend" zIndex="7" transform="translate(628,120)"><g zIndex="1"><g><g class="highcharts-legend-item" zIndex="1" transform="translate(8,3)"><rect x="0" y="7" width="16" height="12" zIndex="3" fill="#7cb5ec"></rect></g><g class="highcharts-legend-item" zIndex="1" transform="translate(8,20)"><rect x="0" y="7" width="16" height="12" zIndex="3" fill="#f7a35c"></rect></g><g class="highcharts-legend-item" zIndex="1" transform="translate(8,37)"><rect x="0" y="7" width="16" height="12" zIndex="3" fill="#90ee7e"></rect></g><g class="highcharts-legend-item" zIndex="1" transform="translate(8,54)"><rect x="0" y="7" width="16" height="12" zIndex="3" fill="#7798BF"></rect></g><g class="highcharts-legend-item" zIndex="1" transform="translate(8,71)"><rect x="0" y="7" width="16" height="12" zIndex="3" fill="#aaeeee"></rect></g><g class="highcharts-legend-item" zIndex="1" transform="translate(8,88)"><rect x="0" y="7" width="16" height="12" zIndex="3" fill="#ff0066"></rect></g><g class="highcharts-legend-item" zIndex="1" transform="translate(8,105)"><rect x="0" y="7" width="16" height="12" zIndex="3" fill="#eeaaee"></rect></g><g class="highcharts-legend-item" zIndex="1" transform="translate(8,122)"><rect x="0" y="7" width="16" height="12" zIndex="3" fill="#55BF3B"></rect></g><g class="highcharts-legend-item" zIndex="1" transform="translate(8,139)"><rect x="0" y="7" width="16" height="12" zIndex="3" fill="#DF5353"></rect></g></g></g></g><g class="highcharts-tooltip" zIndex="8" style="cursor:default;padding:0;white-space:nowrap;" transform="translate(0,-9999)"><path fill="rgba(219,219,216,0.8)" d="M 3 0 L 13 0 C 16 0 16 0 16 3 L 16 13 C 16 16 16 16 13 16 L 3 16 C 0 16 0 16 0 13 L 0 3 C 0 0 0 0 3 0"></path><text x="8" zIndex="1" style="font-size:12px;color:#333333;fill:#333333;" y="21"></text></g></svg>
