<svg version="1.1" style="font-family:Dosis, sans-serif;font-size:12px;" xmlns="http://www.w3.org/2000/svg" width="938" height="718"><desc>Created with Highcharts 4.0.4</desc><defs><clippath id="highcharts-21"><rect x="0" y="0" width="573" height="718"></rect></clippath></defs><g class="highcharts-series-group" zIndex="3"><g class="highcharts-series highcharts-tracker" visibility="visible" zIndex="0.1" transform="translate(10,0) scale(1 1)" style=""><path fill="#7cb5ec" d="M 286.4653959226922 189.10000352396168 A 169.9 169.9 0 0 1 350.74756544646004 201.7159883071301 L 286.5 359 A 0 0 0 0 0 286.5 359 Z" stroke="#FFFFFF" stroke-width="1" stroke-linejoin="round" transform="translate(0,0)"></path><path fill="#f7a35c" d="M 350.90481730815884 201.7803145038679 A 169.9 169.9 0 0 1 383.5230658332835 219.52765615968758 L 286.5 359 A 0 0 0 0 0 286.5 359 Z" stroke="#FFFFFF" stroke-width="1" stroke-linejoin="round" transform="translate(0,0)"></path><path fill="#90ee7e" d="M 383.66248964234956 219.62474894551647 A 169.9 169.9 0 0 1 455.87010272675957 345.5918568650649 L 286.5 359 A 0 0 0 0 0 286.5 359 Z" stroke="#FFFFFF" stroke-width="1" stroke-linejoin="round" transform="translate(0,0)"></path><path fill="#7798BF" d="M 455.8834261826155 345.76123364363434 A 169.9 169.9 0 1 1 131.32515813550955 289.81345179639044 L 286.5 359 A 0 0 0 1 0 286.5 359 Z" stroke="#FFFFFF" stroke-width="1" stroke-linejoin="round" transform="translate(0,0)"></path><path fill="#aaeeee" d="M 131.39442225959655 289.65831157365966 A 169.9 169.9 0 0 1 286.2640123085216 189.1001638911636 L 286.5 359 A 0 0 0 0 0 286.5 359 Z" stroke="#FFFFFF" stroke-width="1" stroke-linejoin="round" transform="translate(0,0)"></path></g><g class="highcharts-markers" visibility="visible" zIndex="0.1" transform="translate(10,0) scale(1 1)"></g><g class="highcharts-series highcharts-tracker" visibility="visible" zIndex="0.1" transform="translate(10,0) scale(1 1)" style=""><path fill="#DEFBFD" d="M 286.45454014093525 135.80000462947763 A 223.2 223.2 0 0 1 286.2313402054947 135.8001616893175 L 286.3075327009794 199.10011583387933 A 159.9 159.9 0 0 0 286.4674326547291 199.1000033165478 Z" stroke="#FFFFFF" stroke-width="1" stroke-linejoin="round" transform="translate(0,0)"></path><path fill="rgba(124,181,236,1)" d="M 286.45454014093525 135.80000462947763 A 223.2 223.2 0 0 1 333.4203062188186 140.78743192856126 L 320.1136064712773 202.67298550796122 A 159.9 159.9 0 0 0 286.4674326547291 199.1000033165478 Z" stroke="#FFFFFF" stroke-width="1" stroke-linejoin="round" transform="translate(0,0)"></path><path fill="rgba(129,186,241,1)" d="M 333.63849529037014 140.83446133323497 A 223.2 223.2 0 0 1 354.7583339500342 146.4934357569969 L 335.4001236496885 206.7607543796765 A 159.9 159.9 0 0 0 320.269916652913 202.70667727233095 Z" stroke="#FFFFFF" stroke-width="1" stroke-linejoin="round" transform="translate(0,0)"></path><path fill="rgba(134,191,246,1)" d="M 354.9708063496953 146.5618003328438 A 223.2 223.2 0 0 1 362.9920852854837 149.31642675526945 L 341.2987653994124 208.7831390598906 A 159.9 159.9 0 0 0 335.5523384198758 206.80973061479267 Z" stroke="#FFFFFF" stroke-width="1" stroke-linejoin="round" transform="translate(0,0)"></path><path fill="rgba(139,196,251,1)" d="M 363.2017305777417 149.39302366958412 A 223.2 223.2 0 0 1 367.58624144938756 151.0498582649879 L 344.59000899532737 210.0249656656432 A 159.9 159.9 0 0 0 341.4489548359359 208.83801292458108 Z" stroke="#FFFFFF" stroke-width="1" stroke-linejoin="round" transform="translate(0,0)"></path><path fill="rgba(144,201,255,1)" d="M 367.7941510133469 151.13104846798512 A 223.2 223.2 0 0 1 370.90292294084685 152.37379982431688 L 346.9660724831605 210.97343455156033 A 159.9 159.9 0 0 0 344.7389549598305 210.08313015246782 Z" stroke="#FFFFFF" stroke-width="1" stroke-linejoin="round" transform="translate(0,0)"></path><path fill="#DEFBFD" d="M 371.10950690512686 152.45830604628208 A 223.2 223.2 0 0 1 370.90292294084685 152.37379982431688 L 346.9660724831605 210.97343455156033 A 159.9 159.9 0 0 0 347.11406879090407 211.03397462724237 Z" stroke="#FFFFFF" stroke-width="1" stroke-linejoin="round" transform="translate(0,0)"></path><path fill="rgba(247,163,92,1)" d="M 371.10950690512686 152.45830604628208 A 223.2 223.2 0 0 1 408.4072236225609 172.0324391006854 L 373.8340728371303 225.05684145250711 A 159.9 159.9 0 0 0 347.11406879090407 211.03397462724237 Z" stroke="#FFFFFF" stroke-width="1" stroke-linejoin="round" transform="translate(0,0)"></path><path fill="rgba(253,169,98,1)" d="M 408.59413019869226 172.15443978776273 A 223.2 223.2 0 0 1 412.6748553549911 174.88550878285795 L 376.8913950325407 227.10077443718183 A 159.9 159.9 0 0 0 373.9679723063212 225.14424248236227 Z" stroke="#FFFFFF" stroke-width="1" stroke-linejoin="round" transform="translate(0,0)"></path><path fill="rgba(255,175,104,1)" d="M 412.85890672810007 175.01177567442173 A 223.2 223.2 0 0 1 413.41030195847634 175.39167977237972 L 377.4182673976719 227.46339424553545 A 159.9 159.9 0 0 0 377.02324904042655 227.19123176675643 Z" stroke="#FFFFFF" stroke-width="1" stroke-linejoin="round" transform="translate(0,0)"></path><path fill="rgba(255,182,111,1)" d="M 413.5938467929569 175.51868185733895 A 223.2 223.2 0 0 1 413.9605549969916 175.7732363439804 L 377.8124674911244 227.73674055287842 A 159.9 159.9 0 0 0 377.5497585223737 227.5543782660775 Z" stroke="#FFFFFF" stroke-width="1" stroke-linejoin="round" transform="translate(0,0)"></path><path fill="#DEFBFD" d="M 414.1437179998377 175.90078849110816 A 223.2 223.2 0 0 1 413.9605549969916 175.7732363439804 L 377.8124674911244 227.73674055287842 A 159.9 159.9 0 0 0 377.94368507246435 227.82811863677506 Z" stroke="#FFFFFF" stroke-width="1" stroke-linejoin="round" transform="translate(0,0)"></path><path fill="rgba(144,238,126,1)" d="M 414.1437179998377 175.90078849110816 A 223.2 223.2 0 0 1 472.95345234197526 236.30790526786677 L 420.07485228262476 271.1036471878669 A 159.9 159.9 0 0 0 377.94368507246435 227.82811863677506 Z" stroke="#FFFFFF" stroke-width="1" stroke-linejoin="round" transform="translate(0,0)"></path><path fill="rgba(152,246,134,1)" d="M 473.0760511895403 236.49442003517544 A 223.2 223.2 0 0 1 502.5386407722989 302.91483535499265 L 441.2696176500475 318.82070866157403 A 159.9 159.9 0 0 0 420.16268183336695 271.2372659660598 Z" stroke="#FFFFFF" stroke-width="1" stroke-linejoin="round" transform="translate(0,0)"></path><path fill="rgba(161,255,143,1)" d="M 502.59461790828504 303.13090200233853 A 223.2 223.2 0 0 1 509.0038665604046 341.3855353283255 L 445.90129150093503 346.3810353897816 A 159.9 159.9 0 0 0 441.30971954988695 318.9754983430731 Z" stroke="#FFFFFF" stroke-width="1" stroke-linejoin="round" transform="translate(0,0)"></path><path fill="#DEFBFD" d="M 509.0213697702165 341.6080479650335 A 223.2 223.2 0 0 1 509.0038665604046 341.3855353283255 L 445.90129150093503 346.3810353897816 A 159.9 159.9 0 0 0 445.91383076280295 346.5404429641974 Z" stroke="#FFFFFF" stroke-width="1" stroke-linejoin="round" transform="translate(0,0)"></path><path fill="rgba(119,152,191,1)" d="M 509.0213697702165 341.6080479650335 A 223.2 223.2 0 0 1 459.63241065443077 499.86663331316447 L 410.53168666506934 459.91655316655465 A 159.9 159.9 0 0 0 445.91383076280295 346.5404429641974 Z" stroke="#FFFFFF" stroke-width="1" stroke-linejoin="round" transform="translate(0,0)"></path><path fill="rgba(123,156,195,1)" d="M 459.49145747839725 500.0396952616527 A 223.2 223.2 0 0 1 328.17019493280446 578.2757051163263 L 316.3524380365387 516.08864358468 A 159.9 159.9 0 0 0 410.4307081128841 460.0405343742754 Z" stroke="#FFFFFF" stroke-width="1" stroke-linejoin="round" transform="translate(0,0)"></path><path fill="rgba(127,160,199,1)" d="M 327.95089842913836 578.3172656664706 A 223.2 223.2 0 0 1 191.9953741874382 561.2056272709235 L 218.79708930363512 503.8596765260783 A 159.9 159.9 0 0 0 316.19533449291765 516.1184174734259 Z" stroke="#FFFFFF" stroke-width="1" stroke-linejoin="round" transform="translate(0,0)"></path><path fill="rgba(131,164,203,1)" d="M 191.7932158461772 561.1110215580566 A 223.2 223.2 0 0 1 99.50761374386317 480.8691408119206 L 152.53905662026756 446.30679039348615 A 159.9 159.9 0 0 0 218.6522635027049 503.7919011968336 Z" stroke="#FFFFFF" stroke-width="1" stroke-linejoin="round" transform="translate(0,0)"></path><path fill="rgba(136,169,208,1)" d="M 99.38583811954814 480.68208752226457 A 223.2 223.2 0 0 1 63.35203066247439 363.8191057820645 L 126.63727465470274 362.45239701860265 A 159.9 159.9 0 0 0 152.45181682489132 446.1727858190417 Z" stroke="#FFFFFF" stroke-width="1" stroke-linejoin="round" transform="translate(0,0)"></path><path fill="rgba(140,173,212,1)" d="M 63.34732313147089 363.5959554403656 A 223.2 223.2 0 0 1 82.64464564947463 268.1086665153287 L 140.4584625418951 293.8856441568148 A 159.9 159.9 0 0 0 126.63390218961555 362.2925325937028 Z" stroke="#FFFFFF" stroke-width="1" stroke-linejoin="round" transform="translate(0,0)"></path><path fill="#DEFBFD" d="M 82.73563889547941 267.904856640617 A 223.2 223.2 0 0 1 82.64464564947463 268.1086665153287 L 140.4584625418951 293.8856441568148 A 159.9 159.9 0 0 0 140.52364990764855 293.73963520087216 Z" stroke="#FFFFFF" stroke-width="1" stroke-linejoin="round" transform="translate(0,0)"></path><path fill="rgba(170,238,238,1)" d="M 82.73563889547941 267.904856640617 A 223.2 223.2 0 0 1 146.4331783149513 185.21989336218957 L 186.15643016380247 234.50430532533204 A 159.9 159.9 0 0 0 140.52364990764855 293.73963520087216 Z" stroke="#FFFFFF" stroke-width="1" stroke-linejoin="round" transform="translate(0,0)"></path><path fill="rgba(178,246,246,1)" d="M 146.60702842603084 185.07991345389502 A 223.2 223.2 0 0 1 240.76032493665417 140.5369090095548 L 253.73219514951165 202.49351142754395 A 159.9 159.9 0 0 0 186.28097600950866 234.40402402006185 Z" stroke="#FFFFFF" stroke-width="1" stroke-linejoin="round" transform="translate(0,0)"></path><path fill="rgba(187,255,255,1)" d="M 240.9788108610698 140.49127857365113 A 223.2 223.2 0 0 1 286.1899796778224 135.8002153061078 L 286.2779021079024 199.1001542448326 A 159.9 159.9 0 0 0 253.8887179959008 202.46082188139252 Z" stroke="#FFFFFF" stroke-width="1" stroke-linejoin="round" transform="translate(0,0)"></path></g><g class="highcharts-markers" visibility="visible" zIndex="0.1" transform="translate(10,0) scale(1 1)"></g></g><g class="highcharts-data-labels highcharts-tracker" visibility="visible" zIndex="6" transform="translate(10,0) scale(1 1)" opacity="1" style=""><g zIndex="1" style="cursor:default;" transform="translate(288,251)"><text x="3" zIndex="1" style="font-size:15px;font-family:serif;color:#000000;fill:#000000;" y="18"><tspan style="font-family:serif">Faire</tspan></text></g><g zIndex="1" style="cursor:default;" transform="translate(315,261)"><text x="3" zIndex="1" style="font-size:15px;font-family:serif;color:#000000;fill:#000000" y="18"><tspan style="font-family:serif">Aider</tspan></text></g><g zIndex="1" style="cursor:default;" transform="translate(344,299)"><text x="3" zIndex="1" style="font-size:15px;font-family:serif;color:#000000;fill:#000000;" y="18"><tspan style="font-family:serif">Analyser</tspan></text></g><g zIndex="1" style="cursor:default;" transform="translate(237,447)"><text x="3" zIndex="1" style="font-size:15px;font-family:serif;color:#000000;fill:#000000;" y="18"><tspan style="font-family:serif">Influencer</tspan></text></g><g zIndex="1" style="cursor:default;" transform="translate(201,265)"><text x="3" zIndex="1" style="font-size:15px;font-family:serif;color:#000000;fill:#000000;" y="18"><tspan style="font-family:serif">Exprimer</tspan></text></g></g><g class="highcharts-legend" zIndex="7" transform="translate(603,31)"><g zIndex="1"><g><g class="highcharts-legend-item" zIndex="1" transform="translate(8,3)"><rect x="0" y="7" width="16" height="12" zIndex="3" fill="#7cb5ec"></rect></g><g class="highcharts-legend-item" zIndex="1" transform="translate(8,21)"><rect x="0" y="7" width="16" height="12" zIndex="3" fill="#f7a35c"></rect></g><g class="highcharts-legend-item" zIndex="1" transform="translate(8,39)"><rect x="0" y="7" width="16" height="12" zIndex="3" fill="#90ee7e"></rect></g><g class="highcharts-legend-item" zIndex="1" transform="translate(8,57)"><rect x="0" y="7" width="16" height="12" zIndex="3" fill="#7798BF"></rect></g><g class="highcharts-legend-item" zIndex="1" transform="translate(8,75)"><rect x="0" y="7" width="16" height="12" zIndex="3" fill="#aaeeee"></rect></g><g class="highcharts-legend-item" zIndex="1" transform="translate(8,93)"><rect x="0" y="7" width="16" height="12" zIndex="3" fill="#47324e"></rect></g><g class="highcharts-legend-item" zIndex="1" transform="translate(8,130)"><rect x="0" y="7" width="16" height="12" zIndex="3" fill="rgba(124,181,236,1)"></rect></g><g class="highcharts-legend-item" zIndex="1" transform="translate(8,148)"><rect x="0" y="7" width="16" height="12" zIndex="3" fill="rgba(129,186,241,1)"></rect></g><g class="highcharts-legend-item" zIndex="1" transform="translate(8,166)"><rect x="0" y="7" width="16" height="12" zIndex="3" fill="rgba(134,191,246,1)"></rect></g><g class="highcharts-legend-item" zIndex="1" transform="translate(8,184)"><rect x="0" y="7" width="16" height="12" zIndex="3" fill="rgba(139,196,251,1)"></rect></g><g class="highcharts-legend-item" zIndex="1" transform="translate(8,202)"><rect x="0" y="7" width="16" height="12" zIndex="3" fill="rgba(144,201,255,1)"></rect></g><g class="highcharts-legend-item" zIndex="1" transform="translate(8,220)"><rect x="0" y="7" width="16" height="12" zIndex="3" fill="#47324e"></rect></g><g class="highcharts-legend-item" zIndex="1" transform="translate(8,257)"><rect x="0" y="7" width="16" height="12" zIndex="3" fill="rgba(247,163,92,1)"></rect></g><g class="highcharts-legend-item" zIndex="1" transform="translate(8,275)"><rect x="0" y="7" width="16" height="12" zIndex="3" fill="rgba(253,169,98,1)"></rect></g><g class="highcharts-legend-item" zIndex="1" transform="translate(8,293)"><rect x="0" y="7" width="16" height="12" zIndex="3" fill="rgba(255,175,104,1)"></rect></g><g class="highcharts-legend-item" zIndex="1" transform="translate(8,311)"><rect x="0" y="7" width="16" height="12" zIndex="3" fill="rgba(255,182,111,1)"></rect></g><g class="highcharts-legend-item" zIndex="1" transform="translate(8,329)"><rect x="0" y="7" width="16" height="12" zIndex="3" fill="#47324e"></rect></g><g class="highcharts-legend-item" zIndex="1" transform="translate(8,366)"><rect x="0" y="7" width="16" height="12" zIndex="3" fill="rgba(144,238,126,1)"></rect></g><g class="highcharts-legend-item" zIndex="1" transform="translate(8,384)"><rect x="0" y="7" width="16" height="12" zIndex="3" fill="rgba(152,246,134,1)"></rect></g><g class="highcharts-legend-item" zIndex="1" transform="translate(8,402)"><rect x="0" y="7" width="16" height="12" zIndex="3" fill="rgba(161,255,143,1)"></rect></g><g class="highcharts-legend-item" zIndex="1" transform="translate(8,420)"><rect x="0" y="7" width="16" height="12" zIndex="3" fill="#47324e"></rect></g><g class="highcharts-legend-item" zIndex="1" transform="translate(8,457)"><rect x="0" y="7" width="16" height="12" zIndex="3" fill="rgba(119,152,191,1)"></rect></g><g class="highcharts-legend-item" zIndex="1" transform="translate(8,475)"><rect x="0" y="7" width="16" height="12" zIndex="3" fill="rgba(123,156,195,1)"></rect></g><g class="highcharts-legend-item" zIndex="1" transform="translate(8,493)"><rect x="0" y="7" width="16" height="12" zIndex="3" fill="rgba(127,160,199,1)"></rect></g><g class="highcharts-legend-item" zIndex="1" transform="translate(8,511)"><rect x="0" y="7" width="16" height="12" zIndex="3" fill="rgba(131,164,203,1)"></rect></g><g class="highcharts-legend-item" zIndex="1" transform="translate(8,529)"><rect x="0" y="7" width="16" height="12" zIndex="3" fill="rgba(136,169,208,1)"></rect></g><g class="highcharts-legend-item" zIndex="1" transform="translate(8,547)"><rect x="0" y="7" width="16" height="12" zIndex="3" fill="rgba(140,173,212,1)"></rect></g><g class="highcharts-legend-item" zIndex="1" transform="translate(8,565)"><rect x="0" y="7" width="16" height="12" zIndex="3" fill="#47324e"></rect></g><g class="highcharts-legend-item" zIndex="1" transform="translate(8,602)"><rect x="0" y="7" width="16" height="12" zIndex="3" fill="rgba(170,238,238,1)"></rect></g><g class="highcharts-legend-item" zIndex="1" transform="translate(8,620)"><rect x="0" y="7" width="16" height="12" zIndex="3" fill="rgba(178,246,246,1)"></rect></g><g class="highcharts-legend-item" zIndex="1" transform="translate(8,638)"><rect x="0" y="7" width="16" height="12" zIndex="3" fill="rgba(187,255,255,1)"></rect></g></g></g></g><g class="highcharts-tooltip" zIndex="8" style="cursor:default;padding:0;white-space:nowrap;" transform="translate(0,-9999)"><path fill="rgba(219,219,216,0.8)" d="M 3 0 L 13 0 C 16 0 16 0 16 3 L 16 13 C 16 16 16 16 13 16 L 3 16 C 0 16 0 16 0 13 L 0 3 C 0 0 0 0 3 0"></path><text x="8" zIndex="1" style="font-size:12px;color:#333333;fill:#333333;" y="21"></text></g></svg>
