<svg version="1.1" style="font-family:Dosis, sans-serif;font-size:12px;" xmlns="http://www.w3.org/2000/svg" width="938" height="172"><desc>Created with Highcharts 4.0.4</desc><defs><clippath id="highcharts-89"><rect x="0" y="0" width="171" height="288"></rect></clippath></defs><path fill="#E3E3E3" d="M 444.5 0 L 444.5 171 492.5 171 492.5 0"></path><g class="highcharts-grid" zIndex="1"><path fill="none" d="M 325 43.5 L 613 43.5" stroke="#C0C0C0" stroke-width="1" zIndex="1" opacity="1"></path><path fill="none" d="M 325 86.5 L 613 86.5" stroke="#C0C0C0" stroke-width="1" zIndex="1" opacity="1"></path><path fill="none" d="M 325 128.5 L 613 128.5" stroke="#C0C0C0" stroke-width="1" zIndex="1" opacity="1"></path><path fill="none" d="M 325 171.5 L 613 171.5" stroke="#C0C0C0" stroke-width="1" zIndex="1" opacity="1"></path><path fill="none" d="M 325 -0.5 L 613 -0.5" stroke="#C0C0C0" stroke-width="1" zIndex="1" opacity="1"></path></g><g class="highcharts-grid" zIndex="1"><path fill="none" d="M 325 43.5 L 613 43.5" stroke="#C0C0C0" stroke-width="1" zIndex="1" opacity="1"></path><path fill="none" d="M 325 86.5 L 613 86.5" stroke="#C0C0C0" stroke-width="1" zIndex="1" opacity="1"></path><path fill="none" d="M 325 128.5 L 613 128.5" stroke="#C0C0C0" stroke-width="1" zIndex="1" opacity="1"></path><path fill="none" d="M 325 171.5 L 613 171.5" stroke="#C0C0C0" stroke-width="1" zIndex="1" opacity="1"></path><path fill="none" d="M 325 -0.5 L 613 -0.5" stroke="#C0C0C0" stroke-width="1" zIndex="1" opacity="1"></path></g><g class="highcharts-grid" zIndex="1"><path fill="none" d="M 324.5 0 L 324.5 171" stroke="#E0E0E0" stroke-width="1" opacity="1"></path><path fill="none" d="M 329.5 0 L 329.5 171" stroke="#E0E0E0" stroke-width="1" opacity="1"></path><path fill="none" d="M 334.5 0 L 334.5 171" stroke="#E0E0E0" stroke-width="1" opacity="1"></path><path fill="none" d="M 338.5 0 L 338.5 171" stroke="#E0E0E0" stroke-width="1" opacity="1"></path><path fill="none" d="M 343.5 0 L 343.5 171" stroke="#E0E0E0" stroke-width="1" opacity="1"></path><path fill="none" d="M 348.5 0 L 348.5 171" stroke="#E0E0E0" stroke-width="1" opacity="1"></path><path fill="none" d="M 353.5 0 L 353.5 171" stroke="#E0E0E0" stroke-width="1" opacity="1"></path><path fill="none" d="M 358.5 0 L 358.5 171" stroke="#E0E0E0" stroke-width="1" opacity="1"></path><path fill="none" d="M 362.5 0 L 362.5 171" stroke="#E0E0E0" stroke-width="1" opacity="1"></path><path fill="none" d="M 367.5 0 L 367.5 171" stroke="#E0E0E0" stroke-width="1" opacity="1"></path><path fill="none" d="M 372.5 0 L 372.5 171" stroke="#E0E0E0" stroke-width="1" opacity="1"></path><path fill="none" d="M 377.5 0 L 377.5 171" stroke="#E0E0E0" stroke-width="1" opacity="1"></path><path fill="none" d="M 382.5 0 L 382.5 171" stroke="#E0E0E0" stroke-width="1" opacity="1"></path><path fill="none" d="M 386.5 0 L 386.5 171" stroke="#E0E0E0" stroke-width="1" opacity="1"></path><path fill="none" d="M 391.5 0 L 391.5 171" stroke="#E0E0E0" stroke-width="1" opacity="1"></path><path fill="none" d="M 396.5 0 L 396.5 171" stroke="#E0E0E0" stroke-width="1" opacity="1"></path><path fill="none" d="M 401.5 0 L 401.5 171" stroke="#E0E0E0" stroke-width="1" opacity="1"></path><path fill="none" d="M 406.5 0 L 406.5 171" stroke="#E0E0E0" stroke-width="1" opacity="1"></path><path fill="none" d="M 410.5 0 L 410.5 171" stroke="#E0E0E0" stroke-width="1" opacity="1"></path><path fill="none" d="M 415.5 0 L 415.5 171" stroke="#E0E0E0" stroke-width="1" opacity="1"></path><path fill="none" d="M 420.5 0 L 420.5 171" stroke="#E0E0E0" stroke-width="1" opacity="1"></path><path fill="none" d="M 425.5 0 L 425.5 171" stroke="#E0E0E0" stroke-width="1" opacity="1"></path><path fill="none" d="M 430.5 0 L 430.5 171" stroke="#E0E0E0" stroke-width="1" opacity="1"></path><path fill="none" d="M 434.5 0 L 434.5 171" stroke="#E0E0E0" stroke-width="1" opacity="1"></path><path fill="none" d="M 439.5 0 L 439.5 171" stroke="#E0E0E0" stroke-width="1" opacity="1"></path><path fill="none" d="M 444.5 0 L 444.5 171" stroke="#E0E0E0" stroke-width="1" opacity="1"></path><path fill="none" d="M 449.5 0 L 449.5 171" stroke="#E0E0E0" stroke-width="1" opacity="1"></path><path fill="none" d="M 454.5 0 L 454.5 171" stroke="#E0E0E0" stroke-width="1" opacity="1"></path><path fill="none" d="M 458.5 0 L 458.5 171" stroke="#E0E0E0" stroke-width="1" opacity="1"></path><path fill="none" d="M 463.5 0 L 463.5 171" stroke="#E0E0E0" stroke-width="1" opacity="1"></path><path fill="none" d="M 468.5 0 L 468.5 171" stroke="#E0E0E0" stroke-width="1" opacity="1"></path><path fill="none" d="M 473.5 0 L 473.5 171" stroke="#E0E0E0" stroke-width="1" opacity="1"></path><path fill="none" d="M 478.5 0 L 478.5 171" stroke="#E0E0E0" stroke-width="1" opacity="1"></path><path fill="none" d="M 482.5 0 L 482.5 171" stroke="#E0E0E0" stroke-width="1" opacity="1"></path><path fill="none" d="M 487.5 0 L 487.5 171" stroke="#E0E0E0" stroke-width="1" opacity="1"></path><path fill="none" d="M 492.5 0 L 492.5 171" stroke="#E0E0E0" stroke-width="1" opacity="1"></path><path fill="none" d="M 497.5 0 L 497.5 171" stroke="#E0E0E0" stroke-width="1" opacity="1"></path><path fill="none" d="M 502.5 0 L 502.5 171" stroke="#E0E0E0" stroke-width="1" opacity="1"></path><path fill="none" d="M 506.5 0 L 506.5 171" stroke="#E0E0E0" stroke-width="1" opacity="1"></path><path fill="none" d="M 511.5 0 L 511.5 171" stroke="#E0E0E0" stroke-width="1" opacity="1"></path><path fill="none" d="M 516.5 0 L 516.5 171" stroke="#E0E0E0" stroke-width="1" opacity="1"></path><path fill="none" d="M 521.5 0 L 521.5 171" stroke="#E0E0E0" stroke-width="1" opacity="1"></path><path fill="none" d="M 526.5 0 L 526.5 171" stroke="#E0E0E0" stroke-width="1" opacity="1"></path><path fill="none" d="M 530.5 0 L 530.5 171" stroke="#E0E0E0" stroke-width="1" opacity="1"></path><path fill="none" d="M 535.5 0 L 535.5 171" stroke="#E0E0E0" stroke-width="1" opacity="1"></path><path fill="none" d="M 540.5 0 L 540.5 171" stroke="#E0E0E0" stroke-width="1" opacity="1"></path><path fill="none" d="M 545.5 0 L 545.5 171" stroke="#E0E0E0" stroke-width="1" opacity="1"></path><path fill="none" d="M 550.5 0 L 550.5 171" stroke="#E0E0E0" stroke-width="1" opacity="1"></path><path fill="none" d="M 554.5 0 L 554.5 171" stroke="#E0E0E0" stroke-width="1" opacity="1"></path><path fill="none" d="M 559.5 0 L 559.5 171" stroke="#E0E0E0" stroke-width="1" opacity="1"></path><path fill="none" d="M 564.5 0 L 564.5 171" stroke="#E0E0E0" stroke-width="1" opacity="1"></path><path fill="none" d="M 569.5 0 L 569.5 171" stroke="#E0E0E0" stroke-width="1" opacity="1"></path><path fill="none" d="M 574.5 0 L 574.5 171" stroke="#E0E0E0" stroke-width="1" opacity="1"></path><path fill="none" d="M 578.5 0 L 578.5 171" stroke="#E0E0E0" stroke-width="1" opacity="1"></path><path fill="none" d="M 583.5 0 L 583.5 171" stroke="#E0E0E0" stroke-width="1" opacity="1"></path><path fill="none" d="M 588.5 0 L 588.5 171" stroke="#E0E0E0" stroke-width="1" opacity="1"></path><path fill="none" d="M 593.5 0 L 593.5 171" stroke="#E0E0E0" stroke-width="1" opacity="1"></path><path fill="none" d="M 598.5 0 L 598.5 171" stroke="#E0E0E0" stroke-width="1" opacity="1"></path><path fill="none" d="M 602.5 0 L 602.5 171" stroke="#E0E0E0" stroke-width="1" opacity="1"></path><path fill="none" d="M 607.5 0 L 607.5 171" stroke="#E0E0E0" stroke-width="1" opacity="1"></path><path fill="none" d="M 613.5 0 L 613.5 171" stroke="#E0E0E0" stroke-width="1" opacity="1"></path><path fill="none" d="M 348.5 0 L 348.5 171" stroke="#C0C0C0" stroke-width="1" zIndex="1" opacity="1"></path><path fill="none" d="M 372.5 0 L 372.5 171" stroke="#C0C0C0" stroke-width="1" zIndex="1" opacity="1"></path><path fill="none" d="M 396.5 0 L 396.5 171" stroke="#C0C0C0" stroke-width="1" zIndex="1" opacity="1"></path><path fill="none" d="M 420.5 0 L 420.5 171" stroke="#C0C0C0" stroke-width="1" zIndex="1" opacity="1"></path><path fill="none" d="M 444.5 0 L 444.5 171" stroke="#C0C0C0" stroke-width="1" zIndex="1" opacity="1"></path><path fill="none" d="M 468.5 0 L 468.5 171" stroke="#C0C0C0" stroke-width="1" zIndex="1" opacity="1"></path><path fill="none" d="M 492.5 0 L 492.5 171" stroke="#C0C0C0" stroke-width="1" zIndex="1" opacity="1"></path><path fill="none" d="M 516.5 0 L 516.5 171" stroke="#C0C0C0" stroke-width="1" zIndex="1" opacity="1"></path><path fill="none" d="M 540.5 0 L 540.5 171" stroke="#C0C0C0" stroke-width="1" zIndex="1" opacity="1"></path><path fill="none" d="M 564.5 0 L 564.5 171" stroke="#C0C0C0" stroke-width="1" zIndex="1" opacity="1"></path><path fill="none" d="M 588.5 0 L 588.5 171" stroke="#C0C0C0" stroke-width="1" zIndex="1" opacity="1"></path><path fill="none" d="M 613.5 0 L 613.5 171" stroke="#C0C0C0" stroke-width="1" zIndex="1" opacity="1"></path><path fill="none" d="M 324.5 0 L 324.5 171" stroke="#C0C0C0" stroke-width="1" zIndex="1" opacity="1"></path></g><g class="highcharts-axis" zIndex="2"><path fill="none" d="M 324.5 0 L 324.5 171" stroke="#C0D0E0" stroke-width="1" zIndex="7" visibility="visible"></path></g><g class="highcharts-axis" zIndex="2"><path fill="none" d="M 613.5 0 L 613.5 171" stroke="#C0D0E0" stroke-width="1" zIndex="7" visibility="visible"></path></g><g class="highcharts-axis" zIndex="2"></g><g class="highcharts-series-group" zIndex="3"><g class="highcharts-series" visibility="visible" zIndex="0.1" transform="translate(613,171) rotate(90) scale(-1,1) scale(1 1)" width="288" height="171" clip-path="url(#highcharts-89)"><rect x="127.5" y="101.5" width="43" height="19" fill="#90ee7e" rx="0" ry="0" stroke="#FFFFFF" stroke-width="1"></rect></g><g class="highcharts-markers" visibility="visible" zIndex="0.1" transform="translate(613,171) rotate(90) scale(-1,1) scale(1 1)" width="288" height="171" clip-path="none"></g><g class="highcharts-series" visibility="visible" zIndex="0.1" transform="translate(613,171) rotate(90) scale(-1,1) scale(1 1)" width="288" height="171" clip-path="url(#highcharts-89)"><rect x="127.5" y="120.5" width="43" height="24" fill="#7cb5ec" rx="0" ry="0" stroke="#FFFFFF" stroke-width="1"></rect></g><g class="highcharts-markers" visibility="visible" zIndex="0.1" transform="translate(613,171) rotate(90) scale(-1,1) scale(1 1)" width="288" height="171" clip-path="none"></g><g class="highcharts-series" visibility="visible" zIndex="0.1" transform="translate(613,171) rotate(90) scale(-1,1) scale(1 1)" width="288" height="171" clip-path="url(#highcharts-89)"><rect x="139.5" y="144.5" width="20" height="0" fill="#90ee7e" rx="0" ry="0" stroke="#FFFFFF" stroke-width="1"></rect><rect x="96.5" y="86.5" width="20" height="34" fill="#90ee7e" rx="0" ry="0" stroke="#FFFFFF" stroke-width="1"></rect><rect x="53.5" y="106.5" width="20" height="14" fill="#90ee7e" rx="0" ry="0" stroke="#FFFFFF" stroke-width="1"></rect><rect x="10.5" y="120.5" width="20" height="0" fill="#90ee7e" rx="0" ry="0" stroke="#FFFFFF" stroke-width="1"></rect></g><g class="highcharts-markers" visibility="visible" zIndex="0.1" transform="translate(613,171) rotate(90) scale(-1,1) scale(1 1)" width="288" height="171" clip-path="none"></g><g class="highcharts-series" visibility="visible" zIndex="0.1" transform="translate(613,171) rotate(90) scale(-1,1) scale(1 1)" width="288" height="171" clip-path="url(#highcharts-89)"><rect x="139.5" y="144.5" width="20" height="0" fill="#7cb5ec" rx="0" ry="0" stroke="#FFFFFF" stroke-width="1"></rect><rect x="96.5" y="120.5" width="20" height="24" fill="#7cb5ec" rx="0" ry="0" stroke="#FFFFFF" stroke-width="1"></rect><rect x="53.5" y="120.5" width="20" height="24" fill="#7cb5ec" rx="0" ry="0" stroke="#FFFFFF" stroke-width="1"></rect><rect x="10.5" y="120.5" width="20" height="24" fill="#7cb5ec" rx="0" ry="0" stroke="#FFFFFF" stroke-width="1"></rect></g><g class="highcharts-markers" visibility="visible" zIndex="0.1" transform="translate(613,171) rotate(90) scale(-1,1) scale(1 1)" width="288" height="171" clip-path="none"></g></g><g class="highcharts-axis-labels highcharts-xaxis-labels" zIndex="7"></g><g class="highcharts-axis-labels highcharts-xaxis-labels" zIndex="7"></g><g class="highcharts-axis-labels highcharts-yaxis-labels" zIndex="7"></g><g class="highcharts-tooltip" zIndex="8" style="cursor:default;padding:0;white-space:nowrap;" transform="translate(0,-9999)"><path fill="rgba(219,219,216,0.8)" d="M 3 0 L 13 0 C 16 0 16 0 16 3 L 16 13 C 16 16 16 16 13 16 L 3 16 C 0 16 0 16 0 13 L 0 3 C 0 0 0 0 3 0"></path><text x="8" zIndex="1" style="font-size:12px;color:#333333;fill:#333333;" y="21"></text></g></svg>
