<svg version="1.1" style="font-family:Dosis, sans-serif;font-size:12px;" xmlns="http://www.w3.org/2000/svg" width="938" height="400"><desc>Created with Highcharts 4.0.4</desc><defs><clippath id="highcharts-77"><rect x="0" y="0" width="598" height="375"></rect></clippath></defs><g class="highcharts-series-group" zIndex="3"><g class="highcharts-series highcharts-tracker" visibility="visible" zIndex="0.1" transform="translate(10,10) scale(1 1)" style="cursor:pointer;"><path fill="#7cb5ec" d="M 298.9638480063441 10.000003681596212 A 177.5 177.5 0 0 1 473.7579690718805 156.42103209770852 L 299 187.5 A 0 0 0 0 0 299 187.5 Z" stroke="#FFFFFF" stroke-width="1" stroke-linejoin="round" transform="translate(0,0)"></path><path fill="#f7a35c" d="M 473.7889606556257 156.59580557713673 A 177.5 177.5 0 0 1 387.93402329868735 341.1131163016639 L 299 187.5 A 0 0 0 0 0 299 187.5 Z" stroke="#FFFFFF" stroke-width="1" stroke-linejoin="round" transform="translate(0,0)"></path><path fill="#90ee7e" d="M 387.78036574097996 341.20197350358853 A 177.5 177.5 0 0 1 210.46454075308327 341.34317487603255 L 299 187.5 A 0 0 0 0 0 299 187.5 Z" stroke="#FFFFFF" stroke-width="1" stroke-linejoin="round" transform="translate(0,0)"></path><path fill="#7798BF" d="M 210.31074187157373 341.2545625099606 A 177.5 177.5 0 0 1 124.22938552135233 218.5077782944201 L 299 187.5 A 0 0 0 0 0 299 187.5 Z" stroke="#FFFFFF" stroke-width="1" stroke-linejoin="round" transform="translate(0,0)"></path><path fill="#aaeeee" d="M 124.19846513352584 218.33299220518205 A 177.5 177.5 0 0 1 145.17486061551372 98.93320885713781 L 299 187.5 A 0 0 0 0 0 299 187.5 Z" stroke="#FFFFFF" stroke-width="1" stroke-linejoin="round" transform="translate(0,0)"></path><path fill="#ff0066" d="M 145.26350430445873 98.77942802678275 A 177.5 177.5 0 0 1 210.12855782952823 33.8506694887983 L 299 187.5 A 0 0 0 0 0 299 187.5 Z" stroke="#FFFFFF" stroke-width="1" stroke-linejoin="round" transform="translate(0,0)"></path><path fill="#eeaaee" d="M 210.28225157014865 33.76187488609858 A 177.5 177.5 0 0 1 268.0278184396868 12.72307369279261 L 299 187.5 A 0 0 0 0 0 299 187.5 Z" stroke="#FFFFFF" stroke-width="1" stroke-linejoin="round" transform="translate(0,0)"></path><path fill="#55BF3B" d="M 268.2026108229541 12.692188904850184 A 177.5 177.5 0 0 1 298.7534560609923 10.000171222375144 L 299 187.5 A 0 0 0 0 0 299 187.5 Z" stroke="#FFFFFF" stroke-width="1" stroke-linejoin="round" transform="translate(0,0)"></path></g><g class="highcharts-markers" visibility="visible" zIndex="0.1" transform="translate(10,10) scale(1 1)"></g></g><g class="highcharts-data-labels highcharts-tracker" visibility="visible" zIndex="6" transform="translate(10,10) scale(1 1)" opacity="1" style="cursor:pointer;"><g zIndex="1" style="cursor:pointer;" transform="translate(369,87)"><text x="1.5" zIndex="1" style="font-size:15px;color:#000000;fill:#000000;" y="18">1</text></g><g zIndex="1" style="cursor:pointer;" transform="translate(400,227)"><text x="1.5" zIndex="1" style="font-size:15px;color:#000000;fill:#000000;" y="18">2</text></g><g zIndex="1" style="cursor:pointer;" transform="translate(293,295)"><text x="1.5" zIndex="1" style="font-size:15px;color:#000000;fill:#000000;" y="18">3</text></g><g zIndex="1" style="cursor:pointer;" transform="translate(197,245)"><text x="1.5" zIndex="1" style="font-size:15px;color:#000000;fill:#000000;" y="18">4</text></g><g zIndex="1" style="cursor:pointer;" transform="translate(178,157)"><text x="1.5" zIndex="1" style="font-size:15px;color:#000000;fill:#000000;" y="18">5</text></g><g zIndex="1" style="cursor:pointer;" transform="translate(210,94)"><text x="1.5" zIndex="1" style="font-size:15px;color:#000000;fill:#000000;" y="18">6</text></g><g zIndex="1" style="cursor:pointer;" transform="translate(253,67)"><text x="1.5" zIndex="1" style="font-size:15px;color:#000000;fill:#000000;" y="18">7</text></g><g zIndex="1" style="cursor:pointer;" transform="translate(283,60)"><text x="1.5" zIndex="1" style="font-size:15px;color:#000000;fill:#000000;" y="18">8</text></g></g><g class="highcharts-legend" zIndex="7" transform="translate(628,128)"><g zIndex="1"><g><g class="highcharts-legend-item" zIndex="1" transform="translate(8,3)"><rect x="0" y="7" width="16" height="12" zIndex="3" fill="#7cb5ec"></rect></g><g class="highcharts-legend-item" zIndex="1" transform="translate(8,20)"><rect x="0" y="7" width="16" height="12" zIndex="3" fill="#f7a35c"></rect></g><g class="highcharts-legend-item" zIndex="1" transform="translate(8,37)"><rect x="0" y="7" width="16" height="12" zIndex="3" fill="#90ee7e"></rect></g><g class="highcharts-legend-item" zIndex="1" transform="translate(8,54)"><rect x="0" y="7" width="16" height="12" zIndex="3" fill="#7798BF"></rect></g><g class="highcharts-legend-item" zIndex="1" transform="translate(8,71)"><rect x="0" y="7" width="16" height="12" zIndex="3" fill="#aaeeee"></rect></g><g class="highcharts-legend-item" zIndex="1" transform="translate(8,88)"><rect x="0" y="7" width="16" height="12" zIndex="3" fill="#ff0066"></rect></g><g class="highcharts-legend-item" zIndex="1" transform="translate(8,105)"><rect x="0" y="7" width="16" height="12" zIndex="3" fill="#eeaaee"></rect></g><g class="highcharts-legend-item" zIndex="1" transform="translate(8,122)"><rect x="0" y="7" width="16" height="12" zIndex="3" fill="#55BF3B"></rect></g></g></g></g><g class="highcharts-tooltip" zIndex="8" style="cursor:default;padding:0;white-space:nowrap;" transform="translate(0,-9999)"><path fill="rgba(219,219,216,0.8)" d="M 3 0 L 13 0 C 16 0 16 0 16 3 L 16 13 C 16 16 16 16 13 16 L 3 16 C 0 16 0 16 0 13 L 0 3 C 0 0 0 0 3 0"></path><text x="8" zIndex="1" style="font-size:12px;color:#333333;fill:#333333;" y="21"></text></g></svg>
