<svg version="1.1" style="font-family:Dosis, sans-serif;font-size:12px;" xmlns="http://www.w3.org/2000/svg" width="938" height="498"><desc>Created with Highcharts 4.0.4</desc><defs><clippath id="highcharts-105"><rect x="0" y="0" width="573" height="473"></rect></clippath></defs><g class="highcharts-series-group" zIndex="3"><g class="highcharts-series highcharts-tracker" visibility="visible" zIndex="0.1" transform="translate(55,10) scale(1 1)" style=""><path fill="rgba(255,188,117,1)" d="M -96.54997043107875 383.86517825658274 A 356.4 356.4 0 1 1 616.2498218000148 383.3636000594 L 259.85 383.72 A 0 0 0 1 0 259.85 383.72 Z" stroke="#FFFFFF" stroke-width="1" stroke-linejoin="round" transform="translate(55,0)"></path></g><g class="highcharts-markers" visibility="visible" zIndex="0.1" transform="translate(55,10) scale(1 1)"></g><g class="highcharts-series highcharts-tracker" visibility="visible" zIndex="0.1" transform="translate(55,10) scale(1 1)" style=""><path fill="rgba(255,180,109,1)" d="M -74.89997222728289 383.85635920704567 A 334.75 334.75 0 1 1 594.599832625014 383.3852500557917 L 259.85 383.72 A 0 0 0 1 0 259.85 383.72 Z" stroke="#FFFFFF" stroke-width="1" stroke-linejoin="round" transform="translate(55,0)"></path></g><g class="highcharts-markers" visibility="visible" zIndex="0.1" transform="translate(55,10) scale(1 1)"></g><g class="highcharts-series highcharts-tracker" visibility="visible" zIndex="0.1" transform="translate(55,10) scale(1 1)" style=""><path fill="rgba(255,171,100,1)" d="M -53.24997402348697 383.8475401575086 A 313.1 313.1 0 1 1 572.9498434500131 383.40690005218335 L 259.85 383.72 A 0 0 0 1 0 259.85 383.72 Z" stroke="#FFFFFF" stroke-width="1" stroke-linejoin="round" transform="translate(55,0)"></path></g><g class="highcharts-markers" visibility="visible" zIndex="0.1" transform="translate(55,10) scale(1 1)"></g><g class="highcharts-series highcharts-tracker" visibility="visible" zIndex="0.1" transform="translate(55,10) scale(1 1)" style=""><path fill="rgba(247,163,92,1)" d="M -31.599975819691053 383.8387211079715 A 291.45 291.45 0 1 1 551.2998542750122 383.428550048575 L 259.85 383.72 A 0 0 0 1 0 259.85 383.72 Z" stroke="#FFFFFF" stroke-width="1" stroke-linejoin="round" transform="translate(55,0)"></path></g><g class="highcharts-markers" visibility="visible" zIndex="0.1" transform="translate(10,10) scale(1 1)"></g><g class="highcharts-series highcharts-tracker" visibility="visible" zIndex="0.1" transform="translate(55,10) scale(1 1)" style=""><path fill="#DEFBFD" d="M -9.949977615895193 383.8299020584344 A 269.8 269.8 0 1 1 529.6498651000113 383.45020004496666 L 259.85 383.72 A 0 0 0 1 0 259.85 383.72 Z" stroke="#FFFFFF" stroke-width="1" stroke-linejoin="round" transform="translate(55,0)"></path></g><g class="highcharts-markers" visibility="visible" zIndex="0.1" transform="translate(10,10) scale(1 1)"></g><g class="highcharts-series highcharts-tracker" visibility="visible" zIndex="0.1" transform="translate(55,10) scale(1 1)" style=""><path fill="rgba(169,255,151,1)" d="M -9.949977615895193 383.8299020584344 A 269.8 269.8 0 1 1 529.6498651000113 383.45020004496666 L 259.85 383.72 A 0 0 0 1 0 259.85 383.72 Z" stroke="#FFFFFF" stroke-width="1" stroke-linejoin="round" transform="translate(55,0)"></path></g><g class="highcharts-markers" visibility="visible" zIndex="0.1" transform="translate(55,10) scale(1 1)"></g><g class="highcharts-series highcharts-tracker" visibility="visible" zIndex="0.1" transform="translate(55,10) scale(1 1)" style=""><path fill="rgba(161,255,143,1)" d="M 11.700020587900696 383.82108300889735 A 248.15 248.15 0 1 1 507.9998759250104 383.4718500413584 L 259.85 383.72 A 0 0 0 1 0 259.85 383.72 Z" stroke="#FFFFFF" stroke-width="1" stroke-linejoin="round" transform="translate(55,0)"></path></g><g class="highcharts-markers" visibility="visible" zIndex="0.1" transform="translate(55,10) scale(1 1)"></g><g class="highcharts-series highcharts-tracker" visibility="visible" zIndex="0.1" transform="translate(55,10) scale(1 1)" style=""><path fill="rgba(152,246,134,1)" d="M 33.350018791696584 383.8122639593603 A 226.5 226.5 0 1 1 486.34988675000943 383.49350003775004 L 259.85 383.72 A 0 0 0 1 0 259.85 383.72 Z" stroke="#FFFFFF" stroke-width="1" stroke-linejoin="round" transform="translate(55,0)"></path></g><g class="highcharts-markers" visibility="visible" zIndex="0.1" transform="translate(55,10) scale(1 1)"></g><g class="highcharts-series highcharts-tracker" visibility="visible" zIndex="0.1" transform="translate(55,10) scale(1 1)" style=""><path fill="rgba(144,238,126,1)" d="M 55.0000169954925 383.80344490982316 A 204.85 204.85 0 1 1 464.69989757500855 383.5151500341417 L 259.85 383.72 A 0 0 0 1 0 259.85 383.72 Z" stroke="#FFFFFF" stroke-width="1" stroke-linejoin="round" transform="translate(55,0)"></path></g><g class="highcharts-markers" visibility="visible" zIndex="0.1" transform="translate(55,10) scale(1 1)"></g><g class="highcharts-series highcharts-tracker" visibility="visible" zIndex="0.1" transform="translate(55,10) scale(1 1)" style=""><path fill="#DEFBFD" d="M 76.65001519928839 383.7946258602861 A 183.2 183.2 0 1 1 443.04990840000767 383.53680003053336 L 259.85 383.72 A 0 0 0 1 0 259.85 383.72 Z" stroke="#FFFFFF" stroke-width="1" stroke-linejoin="round" transform="translate(55,0)"></path></g><g class="highcharts-markers" visibility="visible" zIndex="0.1" transform="translate(55,10) scale(1 1)"></g><g class="highcharts-series highcharts-tracker" visibility="visible" zIndex="0.1" transform="translate(55,10) scale(1 1)" style=""><path fill="rgba(149,206,255,1)" d="M 76.65001519928839 383.7946258602861 A 183.2 183.2 0 1 1 443.04990840000767 383.53680003053336 L 259.85 383.72 A 0 0 0 1 0 259.85 383.72 Z" stroke="#FFFFFF" stroke-width="1" stroke-linejoin="round" transform="translate(55,0)"></path></g><g class="highcharts-markers" visibility="visible" zIndex="0.1" transform="translate(55,10) scale(1 1)"></g><g class="highcharts-series highcharts-tracker" visibility="visible" zIndex="0.1" transform="translate(55,10) scale(1 1)" style=""><path fill="rgba(141,198,253,1)" d="M 98.30001340308425 383.785806810749 A 161.55 161.55 0 1 1 421.3999192250068 383.558450026925 L 259.85 383.72 A 0 0 0 1 0 259.85 383.72 Z" stroke="#FFFFFF" stroke-width="1" stroke-linejoin="round" transform="translate(55,0)"></path></g><g class="highcharts-markers" visibility="visible" zIndex="0.1" transform="translate(55,10) scale(1 1)"></g><g class="highcharts-series highcharts-tracker" visibility="visible" zIndex="0.1" transform="translate(55,10) scale(1 1)" style=""><path fill="rgba(132,189,244,1)" d="M 119.95001160688014 383.77698776121196 A 139.9 139.9 0 1 1 399.7499300500059 383.5801000233167 L 259.85 383.72 A 0 0 0 1 0 259.85 383.72 Z" stroke="#FFFFFF" stroke-width="1" stroke-linejoin="round" transform="translate(55,0)"></path></g><g class="highcharts-markers" visibility="visible" zIndex="0.1" transform="translate(55,10) scale(1 1)"></g><g class="highcharts-series highcharts-tracker" visibility="visible" zIndex="0.1" transform="translate(55,10) scale(1 1)" style=""><path fill="rgba(124,181,236,1)" d="M 141.60000981067606 383.76816871167483 A 118.25 118.25 0 1 1 378.09994087500496 383.60175001970833 L 259.85 383.72 A 0 0 0 1 0 259.85 383.72 Z" stroke="#FFFFFF" stroke-width="1" stroke-linejoin="round" transform="translate(55,0)"></path></g><g class="highcharts-markers" visibility="visible" zIndex="0.1" transform="translate(55,10) scale(1 1)"></g><g class="highcharts-series highcharts-tracker" visibility="visible" zIndex="0.1" transform="translate(55,10) scale(1 1)" style=""><path fill="#DEFBFD" d="M 163.25000801447194 383.75934966213777 A 96.6 96.6 0 1 1 356.449951700004 383.62340001610005 L 259.85 383.72 A 0 0 0 1 0 259.85 383.72 Z" stroke="#FFFFFF" stroke-width="1" stroke-linejoin="round" transform="translate(55,0)"></path></g><g class="highcharts-markers" visibility="visible" zIndex="0.1" transform="translate(55,10) scale(1 1)"></g></g><g class="highcharts-data-labels highcharts-tracker" visibility="visible" zIndex="6" transform="translate(110,10) scale(1 1)" opacity="1" style=""><g zIndex="1" style="cursor:default;" transform="translate(255,32)"><text x="3" zIndex="1" style="font-size:11px;color:#000000;fill:#000000;" y="15">4</text></g></g><g class="highcharts-data-labels highcharts-tracker" visibility="visible" zIndex="6" transform="translate(110,10) scale(1 1)" opacity="1" style=""><g zIndex="1" style="cursor:default;" transform="translate(255,54)"><text x="3" zIndex="1" style="font-size:11px;color:#000000;fill:#000000;" y="15">3</text></g></g><g class="highcharts-data-labels highcharts-tracker" visibility="visible" zIndex="6" transform="translate(110,10) scale(1 1)" opacity="1" style=""><g zIndex="1" style="cursor:default;" transform="translate(255,76)"><text x="3" zIndex="1" style="font-size:11px;color:#000000;fill:#000000;" y="15">2</text></g></g><g class="highcharts-data-labels highcharts-tracker" visibility="visible" zIndex="6" transform="translate(110,10) scale(1 1)" opacity="1" style=""><g zIndex="1" style="cursor:default;" transform="translate(255,97)"><text x="3" zIndex="1" style="font-size:11px;color:#000000;fill:#000000;" y="15">1</text></g></g><g class="highcharts-data-labels highcharts-tracker" visibility="visible" zIndex="6" transform="translate(110,10) scale(1 1)" opacity="1" style=""><g zIndex="1" style="cursor:default;" transform="translate(255,119)"><text x="3" zIndex="1" style="font-size:11px;color:#000000;fill:#000000;" y="15">4</text></g></g><g class="highcharts-data-labels highcharts-tracker" visibility="visible" zIndex="6" transform="translate(110,10) scale(1 1)" opacity="1" style="">
<g zIndex="1" style="cursor:default;" transform="translate(255,141)"><text x="3" zIndex="1" style="font-size:11px;color:#000000;fill:#000000;" y="15">3</text></g></g><g class="highcharts-data-labels highcharts-tracker" visibility="visible" zIndex="6" transform="translate(110,10) scale(1 1)" opacity="1" style=""><g zIndex="1" style="cursor:default;" transform="translate(255,162)"><text x="3" zIndex="1" style="font-size:11px;color:#000000;fill:#000000;" y="15">2</text></g></g><g class="highcharts-data-labels highcharts-tracker" visibility="visible" zIndex="6" transform="translate(110,10) scale(1 1)" opacity="1" style=""><g zIndex="1" style="cursor:default;" transform="translate(255,184)"><text x="3" zIndex="1" style="font-size:11px;color:#000000;fill:#000000;" y="15">1</text></g></g><g class="highcharts-data-labels highcharts-tracker" visibility="visible" zIndex="6" transform="translate(110,10) scale(1 1)" opacity="1" style=""><g zIndex="1" style="cursor:default;" transform="translate(255,206)"><text x="3" zIndex="1" style="font-size:11px;color:#000000;fill:#000000;" y="15">4</text></g></g><g class="highcharts-data-labels highcharts-tracker" visibility="visible" zIndex="6" transform="translate(110,10) scale(1 1)" opacity="1" style=""><g zIndex="1" style="cursor:default;" transform="translate(255,227)"><text x="3" zIndex="1" style="font-size:11px;color:#000000;fill:#000000;" y="15">3</text></g></g><g class="highcharts-data-labels highcharts-tracker" visibility="visible" zIndex="6" transform="translate(110,10) scale(1 1)" opacity="1" style=""><g zIndex="1" style="cursor:default;" transform="translate(255,249)"><text x="3" zIndex="1" style="font-size:11px;color:#000000;fill:#000000;" y="15">2</text></g></g><g class="highcharts-data-labels highcharts-tracker" visibility="visible" zIndex="6" transform="translate(110,10) scale(1 1)" opacity="1" style=""><g zIndex="1" style="cursor:default;" transform="translate(255,270)"><text x="3" zIndex="1" style="font-size:11px;color:#000000;fill:#000000;" y="15">1</text></g></g><g class="highcharts-legend" zIndex="7" transform="translate(720,82)"><g zIndex="1"><g><g class="highcharts-legend-item" zIndex="1" transform="translate(8,3)"><rect x="0" y="7" width="16" height="12" zIndex="3" fill="#47324e"></rect></g><g class="highcharts-legend-item" zIndex="1" transform="translate(8,40)"><rect x="0" y="7" width="16" height="12" zIndex="3" fill="rgba(124,181,236,1)"></rect></g><g class="highcharts-legend-item" zIndex="1" transform="translate(8,58)"><rect x="0" y="7" width="16" height="12" zIndex="3" fill="rgba(132,189,244,1)"></rect></g><g class="highcharts-legend-item" zIndex="1" transform="translate(8,76)"><rect x="0" y="7" width="16" height="12" zIndex="3" fill="rgba(141,198,253,1)"></rect></g><g class="highcharts-legend-item" zIndex="1" transform="translate(8,94)"><rect x="0" y="7" width="16" height="12" zIndex="3" fill="rgba(149,206,255,1)"></rect></g><g class="highcharts-legend-item" zIndex="1" transform="translate(8,112)"><rect x="0" y="7" width="16" height="12" zIndex="3" fill="#47324e"></rect></g><g class="highcharts-legend-item" zIndex="1" transform="translate(8,149)"><rect x="0" y="7" width="16" height="12" zIndex="3" fill="rgba(144,238,126,1)"></rect></g><g class="highcharts-legend-item" zIndex="1" transform="translate(8,167)"><rect x="0" y="7" width="16" height="12" zIndex="3" fill="rgba(152,246,134,1)"></rect></g><g class="highcharts-legend-item" zIndex="1" transform="translate(8,185)"><rect x="0" y="7" width="16" height="12" zIndex="3" fill="rgba(161,255,143,1)"></rect></g><g class="highcharts-legend-item" zIndex="1" transform="translate(8,203)"><rect x="0" y="7" width="16" height="12" zIndex="3" fill="rgba(169,255,151,1)"></rect></g><g class="highcharts-legend-item" zIndex="1" transform="translate(8,221)"><rect x="0" y="7" width="16" height="12" zIndex="3" fill="#47324e"></rect></g><g class="highcharts-legend-item" zIndex="1" transform="translate(8,258)"><rect x="0" y="7" width="16" height="12" zIndex="3" fill="rgba(247,163,92,1)"></rect></g><g class="highcharts-legend-item" zIndex="1" transform="translate(8,276)"><rect x="0" y="7" width="16" height="12" zIndex="3" fill="rgba(255,171,100,1)"></rect></g><g class="highcharts-legend-item" zIndex="1" transform="translate(8,294)"><rect x="0" y="7" width="16" height="12" zIndex="3" fill="rgba(255,180,109,1)"></rect></g><g class="highcharts-legend-item" zIndex="1" transform="translate(8,312)"><rect x="0" y="7" width="16" height="12" zIndex="3" fill="rgba(255,188,117,1)"></rect></g></g></g></g><g class="highcharts-tooltip" zIndex="8" style="cursor:default;padding:0;white-space:nowrap;" transform="translate(0,-9999)"><path fill="rgba(219,219,216,0.8)" d="M 3 0 L 13 0 C 16 0 16 0 16 3 L 16 13 C 16 16 16 16 13 16 L 3 16 C 0 16 0 16 0 13 L 0 3 C 0 0 0 0 3 0"></path><text x="8" zIndex="1" style="font-size:12px;color:#333333;fill:#333333;" y="21"></text></g></svg>
