<svg version="1.1" style="font-family:Dosis, sans-serif;font-size:12px;" xmlns="http://www.w3.org/2000/svg" width="918" height="129"><desc>Created with Highcharts 4.0.4</desc><defs><clippath id="highcharts-7"><rect x="0" y="0" width="79" height="268"></rect></clippath></defs><path fill="#E3E3E3" d="M 436.5 49 L 436.5 128 480.5 128 480.5 49"></path><g class="highcharts-grid" zIndex="1"><path fill="none" d="M 325 75.5 L 593 75.5" stroke="#C0C0C0" stroke-width="1" zIndex="1" opacity="1"></path><path fill="none" d="M 325 102.5 L 593 102.5" stroke="#C0C0C0" stroke-width="1" zIndex="1" opacity="1"></path><path fill="none" d="M 325 128.5 L 593 128.5" stroke="#C0C0C0" stroke-width="1" zIndex="1" opacity="1"></path><path fill="none" d="M 325 48.5 L 593 48.5" stroke="#C0C0C0" stroke-width="1" zIndex="1" opacity="1"></path></g><g class="highcharts-grid" zIndex="1"><path fill="none" d="M 325 75.5 L 593 75.5" stroke="#C0C0C0" stroke-width="1" zIndex="1" opacity="1"></path><path fill="none" d="M 325 102.5 L 593 102.5" stroke="#C0C0C0" stroke-width="1" zIndex="1" opacity="1"></path><path fill="none" d="M 325 128.5 L 593 128.5" stroke="#C0C0C0" stroke-width="1" zIndex="1" opacity="1"></path><path fill="none" d="M 325 48.5 L 593 48.5" stroke="#C0C0C0" stroke-width="1" zIndex="1" opacity="1"></path></g><g class="highcharts-grid" zIndex="1"><path fill="none" d="M 324.5 49 L 324.5 128" stroke="#E0E0E0" stroke-width="1" opacity="1"></path><path fill="none" d="M 328.5 49 L 328.5 128" stroke="#E0E0E0" stroke-width="1" opacity="1"></path><path fill="none" d="M 333.5 49 L 333.5 128" stroke="#E0E0E0" stroke-width="1" opacity="1"></path><path fill="none" d="M 337.5 49 L 337.5 128" stroke="#E0E0E0" stroke-width="1" opacity="1"></path><path fill="none" d="M 342.5 49 L 342.5 128" stroke="#E0E0E0" stroke-width="1" opacity="1"></path><path fill="none" d="M 346.5 49 L 346.5 128" stroke="#E0E0E0" stroke-width="1" opacity="1"></path><path fill="none" d="M 351.5 49 L 351.5 128" stroke="#E0E0E0" stroke-width="1" opacity="1"></path><path fill="none" d="M 355.5 49 L 355.5 128" stroke="#E0E0E0" stroke-width="1" opacity="1"></path><path fill="none" d="M 360.5 49 L 360.5 128" stroke="#E0E0E0" stroke-width="1" opacity="1"></path><path fill="none" d="M 364.5 49 L 364.5 128" stroke="#E0E0E0" stroke-width="1" opacity="1"></path><path fill="none" d="M 369.5 49 L 369.5 128" stroke="#E0E0E0" stroke-width="1" opacity="1"></path><path fill="none" d="M 373.5 49 L 373.5 128" stroke="#E0E0E0" stroke-width="1" opacity="1"></path><path fill="none" d="M 378.5 49 L 378.5 128" stroke="#E0E0E0" stroke-width="1" opacity="1"></path><path fill="none" d="M 382.5 49 L 382.5 128" stroke="#E0E0E0" stroke-width="1" opacity="1"></path><path fill="none" d="M 387.5 49 L 387.5 128" stroke="#E0E0E0" stroke-width="1" opacity="1"></path><path fill="none" d="M 391.5 49 L 391.5 128" stroke="#E0E0E0" stroke-width="1" opacity="1"></path><path fill="none" d="M 395.5 49 L 395.5 128" stroke="#E0E0E0" stroke-width="1" opacity="1"></path><path fill="none" d="M 400.5 49 L 400.5 128" stroke="#E0E0E0" stroke-width="1" opacity="1"></path><path fill="none" d="M 404.5 49 L 404.5 128" stroke="#E0E0E0" stroke-width="1" opacity="1"></path><path fill="none" d="M 409.5 49 L 409.5 128" stroke="#E0E0E0" stroke-width="1" opacity="1"></path><path fill="none" d="M 413.5 49 L 413.5 128" stroke="#E0E0E0" stroke-width="1" opacity="1"></path><path fill="none" d="M 418.5 49 L 418.5 128" stroke="#E0E0E0" stroke-width="1" opacity="1"></path><path fill="none" d="M 422.5 49 L 422.5 128" stroke="#E0E0E0" stroke-width="1" opacity="1"></path><path fill="none" d="M 427.5 49 L 427.5 128" stroke="#E0E0E0" stroke-width="1" opacity="1"></path><path fill="none" d="M 431.5 49 L 431.5 128" stroke="#E0E0E0" stroke-width="1" opacity="1"></path><path fill="none" d="M 436.5 49 L 436.5 128" stroke="#E0E0E0" stroke-width="1" opacity="1"></path><path fill="none" d="M 440.5 49 L 440.5 128" stroke="#E0E0E0" stroke-width="1" opacity="1"></path><path fill="none" d="M 445.5 49 L 445.5 128" stroke="#E0E0E0" stroke-width="1" opacity="1"></path><path fill="none" d="M 449.5 49 L 449.5 128" stroke="#E0E0E0" stroke-width="1" opacity="1"></path><path fill="none" d="M 454.5 49 L 454.5 128" stroke="#E0E0E0" stroke-width="1" opacity="1"></path><path fill="none" d="M 458.5 49 L 458.5 128" stroke="#E0E0E0" stroke-width="1" opacity="1"></path><path fill="none" d="M 462.5 49 L 462.5 128" stroke="#E0E0E0" stroke-width="1" opacity="1"></path><path fill="none" d="M 467.5 49 L 467.5 128" stroke="#E0E0E0" stroke-width="1" opacity="1"></path><path fill="none" d="M 471.5 49 L 471.5 128" stroke="#E0E0E0" stroke-width="1" opacity="1"></path><path fill="none" d="M 476.5 49 L 476.5 128" stroke="#E0E0E0" stroke-width="1" opacity="1"></path><path fill="none" d="M 480.5 49 L 480.5 128" stroke="#E0E0E0" stroke-width="1" opacity="1"></path><path fill="none" d="M 485.5 49 L 485.5 128" stroke="#E0E0E0" stroke-width="1" opacity="1"></path><path fill="none" d="M 489.5 49 L 489.5 128" stroke="#E0E0E0" stroke-width="1" opacity="1"></path><path fill="none" d="M 494.5 49 L 494.5 128" stroke="#E0E0E0" stroke-width="1" opacity="1"></path><path fill="none" d="M 498.5 49 L 498.5 128" stroke="#E0E0E0" stroke-width="1" opacity="1"></path><path fill="none" d="M 503.5 49 L 503.5 128" stroke="#E0E0E0" stroke-width="1" opacity="1"></path><path fill="none" d="M 507.5 49 L 507.5 128" stroke="#E0E0E0" stroke-width="1" opacity="1"></path><path fill="none" d="M 512.5 49 L 512.5 128" stroke="#E0E0E0" stroke-width="1" opacity="1"></path><path fill="none" d="M 516.5 49 L 516.5 128" stroke="#E0E0E0" stroke-width="1" opacity="1"></path><path fill="none" d="M 521.5 49 L 521.5 128" stroke="#E0E0E0" stroke-width="1" opacity="1"></path><path fill="none" d="M 525.5 49 L 525.5 128" stroke="#E0E0E0" stroke-width="1" opacity="1"></path><path fill="none" d="M 529.5 49 L 529.5 128" stroke="#E0E0E0" stroke-width="1" opacity="1"></path><path fill="none" d="M 534.5 49 L 534.5 128" stroke="#E0E0E0" stroke-width="1" opacity="1"></path><path fill="none" d="M 538.5 49 L 538.5 128" stroke="#E0E0E0" stroke-width="1" opacity="1"></path><path fill="none" d="M 543.5 49 L 543.5 128" stroke="#E0E0E0" stroke-width="1" opacity="1"></path><path fill="none" d="M 547.5 49 L 547.5 128" stroke="#E0E0E0" stroke-width="1" opacity="1"></path><path fill="none" d="M 552.5 49 L 552.5 128" stroke="#E0E0E0" stroke-width="1" opacity="1"></path><path fill="none" d="M 556.5 49 L 556.5 128" stroke="#E0E0E0" stroke-width="1" opacity="1"></path><path fill="none" d="M 561.5 49 L 561.5 128" stroke="#E0E0E0" stroke-width="1" opacity="1"></path><path fill="none" d="M 565.5 49 L 565.5 128" stroke="#E0E0E0" stroke-width="1" opacity="1"></path><path fill="none" d="M 570.5 49 L 570.5 128" stroke="#E0E0E0" stroke-width="1" opacity="1"></path><path fill="none" d="M 574.5 49 L 574.5 128" stroke="#E0E0E0" stroke-width="1" opacity="1"></path><path fill="none" d="M 579.5 49 L 579.5 128" stroke="#E0E0E0" stroke-width="1" opacity="1"></path><path fill="none" d="M 583.5 49 L 583.5 128" stroke="#E0E0E0" stroke-width="1" opacity="1"></path><path fill="none" d="M 588.5 49 L 588.5 128" stroke="#E0E0E0" stroke-width="1" opacity="1"></path><path fill="none" d="M 593.5 49 L 593.5 128" stroke="#E0E0E0" stroke-width="1" opacity="1"></path><path fill="none" d="M 346.5 49 L 346.5 128" stroke="#C0C0C0" stroke-width="1" zIndex="1" opacity="1"></path><path fill="none" d="M 369.5 49 L 369.5 128" stroke="#C0C0C0" stroke-width="1" zIndex="1" opacity="1"></path><path fill="none" d="M 391.5 49 L 391.5 128" stroke="#C0C0C0" stroke-width="1" zIndex="1" opacity="1"></path><path fill="none" d="M 413.5 49 L 413.5 128" stroke="#C0C0C0" stroke-width="1" zIndex="1" opacity="1"></path><path fill="none" d="M 436.5 49 L 436.5 128" stroke="#C0C0C0" stroke-width="1" zIndex="1" opacity="1"></path><path fill="none" d="M 458.5 49 L 458.5 128" stroke="#C0C0C0" stroke-width="1" zIndex="1" opacity="1"></path><path fill="none" d="M 480.5 49 L 480.5 128" stroke="#C0C0C0" stroke-width="1" zIndex="1" opacity="1"></path><path fill="none" d="M 503.5 49 L 503.5 128" stroke="#C0C0C0" stroke-width="1" zIndex="1" opacity="1"></path><path fill="none" d="M 525.5 49 L 525.5 128" stroke="#C0C0C0" stroke-width="1" zIndex="1" opacity="1"></path><path fill="none" d="M 547.5 49 L 547.5 128" stroke="#C0C0C0" stroke-width="1" zIndex="1" opacity="1"></path><path fill="none" d="M 570.5 49 L 570.5 128" stroke="#C0C0C0" stroke-width="1" zIndex="1" opacity="1"></path><path fill="none" d="M 593.5 49 L 593.5 128" stroke="#C0C0C0" stroke-width="1" zIndex="1" opacity="1"></path><path fill="none" d="M 324.5 49 L 324.5 128" stroke="#C0C0C0" stroke-width="1" zIndex="1" opacity="1"></path></g><g class="highcharts-axis" zIndex="2"><path fill="none" d="M 324.5 49 L 324.5 128" stroke="#C0D0E0" stroke-width="1" zIndex="7" visibility="visible"></path></g><g class="highcharts-axis" zIndex="2"><path fill="none" d="M 593.5 49 L 593.5 128" stroke="#C0D0E0" stroke-width="1" zIndex="7" visibility="visible"></path></g><g class="highcharts-axis" zIndex="2"></g><g class="highcharts-series-group" zIndex="3"><g class="highcharts-series" visibility="visible" zIndex="0.1" transform="translate(593,128) rotate(90) scale(-1,1) scale(1 1)" width="268" height="79" clip-path="url(#highcharts-7)"><rect x="52.5" y="45.5" width="26" height="67" fill="#90ee7e" rx="0" ry="0" stroke="#FFFFFF" stroke-width="1"></rect></g><g class="highcharts-markers" visibility="visible" zIndex="0.1" transform="translate(593,128) rotate(90) scale(-1,1) scale(1 1)" width="268" height="79" clip-path="none"></g><g class="highcharts-series" visibility="visible" zIndex="0.1" transform="translate(593,128) rotate(90) scale(-1,1) scale(1 1)" width="268" height="79" clip-path="url(#highcharts-7)"><rect x="52.5" y="112.5" width="26" height="22" fill="#7cb5ec" rx="0" ry="0" stroke="#FFFFFF" stroke-width="1"></rect></g><g class="highcharts-markers" visibility="visible" zIndex="0.1" transform="translate(593,128) rotate(90) scale(-1,1) scale(1 1)" width="268" height="79" clip-path="none"></g><g class="highcharts-series" visibility="visible" zIndex="0.1" transform="translate(593,128) rotate(90) scale(-1,1) scale(1 1)" width="268" height="79" clip-path="url(#highcharts-7)"><rect x="55.5" y="134.5" width="20" height="0" fill="#90ee7e" rx="0" ry="0" stroke="#FFFFFF" stroke-width="1"></rect><rect x="29.5" y="54.5" width="20" height="58" fill="#90ee7e" rx="0" ry="0" stroke="#FFFFFF" stroke-width="1"></rect><rect x="2.5" y="63.5" width="20" height="49" fill="#90ee7e" rx="0" ry="0" stroke="#FFFFFF" stroke-width="1"></rect></g><g class="highcharts-markers" visibility="visible" zIndex="0.1" transform="translate(593,128) rotate(90) scale(-1,1) scale(1 1)" width="268" height="79" clip-path="none"></g><g class="highcharts-series" visibility="visible" zIndex="0.1" transform="translate(593,128) rotate(90) scale(-1,1) scale(1 1)" width="268" height="79" clip-path="url(#highcharts-7)"><rect x="55.5" y="134.5" width="20" height="0" fill="#7cb5ec" rx="0" ry="0" stroke="#FFFFFF" stroke-width="1"></rect><rect x="29.5" y="112.5" width="20" height="22" fill="#7cb5ec" rx="0" ry="0" stroke="#FFFFFF" stroke-width="1"></rect><rect x="2.5" y="112.5" width="20" height="22" fill="#7cb5ec" rx="0" ry="0" stroke="#FFFFFF" stroke-width="1"></rect></g><g class="highcharts-markers" visibility="visible" zIndex="0.1" transform="translate(593,128) rotate(90) scale(-1,1) scale(1 1)" width="268" height="79" clip-path="none"></g></g><g class="highcharts-axis-labels highcharts-xaxis-labels" zIndex="7"></g><g class="highcharts-axis-labels highcharts-xaxis-labels" zIndex="7"></g><g class="highcharts-axis-labels highcharts-yaxis-labels" zIndex="7"></g><g class="highcharts-tooltip" zIndex="8" style="cursor:default;padding:0;white-space:nowrap;" transform="translate(0,-9999)"><path fill="rgba(219,219,216,0.8)" d="M 3 0 L 13 0 C 16 0 16 0 16 3 L 16 13 C 16 16 16 16 13 16 L 3 16 C 0 16 0 16 0 13 L 0 3 C 0 0 0 0 3 0"></path><text x="8" zIndex="1" style="font-size:12px;color:#333333;fill:#333333;" y="21"></text></g></svg>
