<svg version="1.1" style="font-family:Dosis, sans-serif;font-size:12px;" xmlns="http://www.w3.org/2000/svg" width="938" height="704"><desc>Created with Highcharts 4.0.4</desc><defs><clippath id="highcharts-51"><rect x="0" y="0" width="647" height="288"></rect></clippath></defs><path fill="#E3E3E3" d="M 445.5 42 L 445.5 689 491.5 689 491.5 42"></path><g class="highcharts-grid" zIndex="1"><path fill="none" d="M 325 71.5 L 613 71.5" stroke="#C0C0C0" stroke-width="1" zIndex="1" opacity="1"></path><path fill="none" d="M 325 101.5 L 613 101.5" stroke="#C0C0C0" stroke-width="1" zIndex="1" opacity="1"></path><path fill="none" d="M 325 130.5 L 613 130.5" stroke="#C0C0C0" stroke-width="1" zIndex="1" opacity="1"></path><path fill="none" d="M 325 160.5 L 613 160.5" stroke="#C0C0C0" stroke-width="1" zIndex="1" opacity="1"></path><path fill="none" d="M 325 189.5 L 613 189.5" stroke="#C0C0C0" stroke-width="1" zIndex="1" opacity="1"></path><path fill="none" d="M 325 218.5 L 613 218.5" stroke="#C0C0C0" stroke-width="1" zIndex="1" opacity="1"></path><path fill="none" d="M 325 248.5 L 613 248.5" stroke="#C0C0C0" stroke-width="1" zIndex="1" opacity="1"></path><path fill="none" d="M 325 277.5 L 613 277.5" stroke="#C0C0C0" stroke-width="1" zIndex="1" opacity="1"></path><path fill="none" d="M 325 307.5 L 613 307.5" stroke="#C0C0C0" stroke-width="1" zIndex="1" opacity="1"></path><path fill="none" d="M 325 336.5 L 613 336.5" stroke="#C0C0C0" stroke-width="1" zIndex="1" opacity="1"></path><path fill="none" d="M 325 366.5 L 613 366.5" stroke="#C0C0C0" stroke-width="1" zIndex="1" opacity="1"></path><path fill="none" d="M 325 395.5 L 613 395.5" stroke="#C0C0C0" stroke-width="1" zIndex="1" opacity="1"></path><path fill="none" d="M 325 424.5 L 613 424.5" stroke="#C0C0C0" stroke-width="1" zIndex="1" opacity="1"></path><path fill="none" d="M 325 454.5 L 613 454.5" stroke="#C0C0C0" stroke-width="1" zIndex="1" opacity="1"></path><path fill="none" d="M 325 483.5 L 613 483.5" stroke="#C0C0C0" stroke-width="1" zIndex="1" opacity="1"></path><path fill="none" d="M 325 513.5 L 613 513.5" stroke="#C0C0C0" stroke-width="1" zIndex="1" opacity="1"></path><path fill="none" d="M 325 542.5 L 613 542.5" stroke="#C0C0C0" stroke-width="1" zIndex="1" opacity="1"></path><path fill="none" d="M 325 571.5 L 613 571.5" stroke="#C0C0C0" stroke-width="1" zIndex="1" opacity="1"></path><path fill="none" d="M 325 601.5 L 613 601.5" stroke="#C0C0C0" stroke-width="1" zIndex="1" opacity="1"></path><path fill="none" d="M 325 630.5 L 613 630.5" stroke="#C0C0C0" stroke-width="1" zIndex="1" opacity="1"></path><path fill="none" d="M 325 660.5 L 613 660.5" stroke="#C0C0C0" stroke-width="1" zIndex="1" opacity="1"></path><path fill="none" d="M 325 689.5 L 613 689.5" stroke="#C0C0C0" stroke-width="1" zIndex="1" opacity="1"></path><path fill="none" d="M 325 41.5 L 613 41.5" stroke="#C0C0C0" stroke-width="1" zIndex="1" opacity="1"></path></g><g class="highcharts-grid" zIndex="1"><path fill="none" d="M 325 71.5 L 613 71.5" stroke="#C0C0C0" stroke-width="1" zIndex="1" opacity="1"></path><path fill="none" d="M 325 101.5 L 613 101.5" stroke="#C0C0C0" stroke-width="1" zIndex="1" opacity="1"></path><path fill="none" d="M 325 130.5 L 613 130.5" stroke="#C0C0C0" stroke-width="1" zIndex="1" opacity="1"></path><path fill="none" d="M 325 160.5 L 613 160.5" stroke="#C0C0C0" stroke-width="1" zIndex="1" opacity="1"></path><path fill="none" d="M 325 189.5 L 613 189.5" stroke="#C0C0C0" stroke-width="1" zIndex="1" opacity="1"></path><path fill="none" d="M 325 218.5 L 613 218.5" stroke="#C0C0C0" stroke-width="1" zIndex="1" opacity="1"></path><path fill="none" d="M 325 248.5 L 613 248.5" stroke="#C0C0C0" stroke-width="1" zIndex="1" opacity="1"></path><path fill="none" d="M 325 277.5 L 613 277.5" stroke="#C0C0C0" stroke-width="1" zIndex="1" opacity="1"></path><path fill="none" d="M 325 307.5 L 613 307.5" stroke="#C0C0C0" stroke-width="1" zIndex="1" opacity="1"></path><path fill="none" d="M 325 336.5 L 613 336.5" stroke="#C0C0C0" stroke-width="1" zIndex="1" opacity="1"></path><path fill="none" d="M 325 366.5 L 613 366.5" stroke="#C0C0C0" stroke-width="1" zIndex="1" opacity="1"></path><path fill="none" d="M 325 395.5 L 613 395.5" stroke="#C0C0C0" stroke-width="1" zIndex="1" opacity="1"></path><path fill="none" d="M 325 424.5 L 613 424.5" stroke="#C0C0C0" stroke-width="1" zIndex="1" opacity="1"></path><path fill="none" d="M 325 454.5 L 613 454.5" stroke="#C0C0C0" stroke-width="1" zIndex="1" opacity="1"></path><path fill="none" d="M 325 483.5 L 613 483.5" stroke="#C0C0C0" stroke-width="1" zIndex="1" opacity="1"></path><path fill="none" d="M 325 513.5 L 613 513.5" stroke="#C0C0C0" stroke-width="1" zIndex="1" opacity="1"></path><path fill="none" d="M 325 542.5 L 613 542.5" stroke="#C0C0C0" stroke-width="1" zIndex="1" opacity="1"></path><path fill="none" d="M 325 571.5 L 613 571.5" stroke="#C0C0C0" stroke-width="1" zIndex="1" opacity="1"></path><path fill="none" d="M 325 601.5 L 613 601.5" stroke="#C0C0C0" stroke-width="1" zIndex="1" opacity="1"></path><path fill="none" d="M 325 630.5 L 613 630.5" stroke="#C0C0C0" stroke-width="1" zIndex="1" opacity="1"></path><path fill="none" d="M 325 660.5 L 613 660.5" stroke="#C0C0C0" stroke-width="1" zIndex="1" opacity="1"></path><path fill="none" d="M 325 689.5 L 613 689.5" stroke="#C0C0C0" stroke-width="1" zIndex="1" opacity="1"></path><path fill="none" d="M 325 41.5 L 613 41.5" stroke="#C0C0C0" stroke-width="1" zIndex="1" opacity="1"></path></g><g class="highcharts-grid" zIndex="1"><path fill="none" d="M 324.5 42 L 324.5 689" stroke="#E0E0E0" stroke-width="1" opacity="1"></path><path fill="none" d="M 330.5 42 L 330.5 689" stroke="#E0E0E0" stroke-width="1" opacity="1"></path><path fill="none" d="M 336.5 42 L 336.5 689" stroke="#E0E0E0" stroke-width="1" opacity="1"></path><path fill="none" d="M 341.5 42 L 341.5 689" stroke="#E0E0E0" stroke-width="1" opacity="1"></path><path fill="none" d="M 347.5 42 L 347.5 689" stroke="#E0E0E0" stroke-width="1" opacity="1"></path><path fill="none" d="M 353.5 42 L 353.5 689" stroke="#E0E0E0" stroke-width="1" opacity="1"></path><path fill="none" d="M 359.5 42 L 359.5 689" stroke="#E0E0E0" stroke-width="1" opacity="1"></path><path fill="none" d="M 364.5 42 L 364.5 689" stroke="#E0E0E0" stroke-width="1" opacity="1"></path><path fill="none" d="M 370.5 42 L 370.5 689" stroke="#E0E0E0" stroke-width="1" opacity="1"></path><path fill="none" d="M 376.5 42 L 376.5 689" stroke="#E0E0E0" stroke-width="1" opacity="1"></path><path fill="none" d="M 382.5 42 L 382.5 689" stroke="#E0E0E0" stroke-width="1" opacity="1"></path><path fill="none" d="M 387.5 42 L 387.5 689" stroke="#E0E0E0" stroke-width="1" opacity="1"></path><path fill="none" d="M 393.5 42 L 393.5 689" stroke="#E0E0E0" stroke-width="1" opacity="1"></path><path fill="none" d="M 399.5 42 L 399.5 689" stroke="#E0E0E0" stroke-width="1" opacity="1"></path><path fill="none" d="M 405.5 42 L 405.5 689" stroke="#E0E0E0" stroke-width="1" opacity="1"></path><path fill="none" d="M 410.5 42 L 410.5 689" stroke="#E0E0E0" stroke-width="1" opacity="1"></path><path fill="none" d="M 416.5 42 L 416.5 689" stroke="#E0E0E0" stroke-width="1" opacity="1"></path><path fill="none" d="M 422.5 42 L 422.5 689" stroke="#E0E0E0" stroke-width="1" opacity="1"></path><path fill="none" d="M 428.5 42 L 428.5 689" stroke="#E0E0E0" stroke-width="1" opacity="1"></path><path fill="none" d="M 433.5 42 L 433.5 689" stroke="#E0E0E0" stroke-width="1" opacity="1"></path><path fill="none" d="M 439.5 42 L 439.5 689" stroke="#E0E0E0" stroke-width="1" opacity="1"></path><path fill="none" d="M 445.5 42 L 445.5 689" stroke="#E0E0E0" stroke-width="1" opacity="1"></path><path fill="none" d="M 451.5 42 L 451.5 689" stroke="#E0E0E0" stroke-width="1" opacity="1"></path><path fill="none" d="M 456.5 42 L 456.5 689" stroke="#E0E0E0" stroke-width="1" opacity="1"></path><path fill="none" d="M 462.5 42 L 462.5 689" stroke="#E0E0E0" stroke-width="1" opacity="1"></path><path fill="none" d="M 468.5 42 L 468.5 689" stroke="#E0E0E0" stroke-width="1" opacity="1"></path><path fill="none" d="M 474.5 42 L 474.5 689" stroke="#E0E0E0" stroke-width="1" opacity="1"></path><path fill="none" d="M 480.5 42 L 480.5 689" stroke="#E0E0E0" stroke-width="1" opacity="1"></path><path fill="none" d="M 485.5 42 L 485.5 689" stroke="#E0E0E0" stroke-width="1" opacity="1"></path><path fill="none" d="M 491.5 42 L 491.5 689" stroke="#E0E0E0" stroke-width="1" opacity="1"></path><path fill="none" d="M 497.5 42 L 497.5 689" stroke="#E0E0E0" stroke-width="1" opacity="1"></path><path fill="none" d="M 503.5 42 L 503.5 689" stroke="#E0E0E0" stroke-width="1" opacity="1"></path><path fill="none" d="M 508.5 42 L 508.5 689" stroke="#E0E0E0" stroke-width="1" opacity="1"></path><path fill="none" d="M 514.5 42 L 514.5 689" stroke="#E0E0E0" stroke-width="1" opacity="1"></path><path fill="none" d="M 520.5 42 L 520.5 689" stroke="#E0E0E0" stroke-width="1" opacity="1"></path><path fill="none" d="M 526.5 42 L 526.5 689" stroke="#E0E0E0" stroke-width="1" opacity="1"></path><path fill="none" d="M 531.5 42 L 531.5 689" stroke="#E0E0E0" stroke-width="1" opacity="1"></path><path fill="none" d="M 537.5 42 L 537.5 689" stroke="#E0E0E0" stroke-width="1" opacity="1"></path><path fill="none" d="M 543.5 42 L 543.5 689" stroke="#E0E0E0" stroke-width="1" opacity="1"></path><path fill="none" d="M 549.5 42 L 549.5 689" stroke="#E0E0E0" stroke-width="1" opacity="1"></path><path fill="none" d="M 554.5 42 L 554.5 689" stroke="#E0E0E0" stroke-width="1" opacity="1"></path><path fill="none" d="M 560.5 42 L 560.5 689" stroke="#E0E0E0" stroke-width="1" opacity="1"></path><path fill="none" d="M 566.5 42 L 566.5 689" stroke="#E0E0E0" stroke-width="1" opacity="1"></path><path fill="none" d="M 572.5 42 L 572.5 689" stroke="#E0E0E0" stroke-width="1" opacity="1"></path><path fill="none" d="M 577.5 42 L 577.5 689" stroke="#E0E0E0" stroke-width="1" opacity="1"></path><path fill="none" d="M 583.5 42 L 583.5 689" stroke="#E0E0E0" stroke-width="1" opacity="1"></path><path fill="none" d="M 589.5 42 L 589.5 689" stroke="#E0E0E0" stroke-width="1" opacity="1"></path><path fill="none" d="M 595.5 42 L 595.5 689" stroke="#E0E0E0" stroke-width="1" opacity="1"></path><path fill="none" d="M 600.5 42 L 600.5 689" stroke="#E0E0E0" stroke-width="1" opacity="1"></path><path fill="none" d="M 606.5 42 L 606.5 689" stroke="#E0E0E0" stroke-width="1" opacity="1"></path><path fill="none" d="M 613.5 42 L 613.5 689" stroke="#E0E0E0" stroke-width="1" opacity="1"></path><path fill="none" d="M 353.5 42 L 353.5 689" stroke="#C0C0C0" stroke-width="1" zIndex="1" opacity="1"></path><path fill="none" d="M 382.5 42 L 382.5 689" stroke="#C0C0C0" stroke-width="1" zIndex="1" opacity="1"></path><path fill="none" d="M 410.5 42 L 410.5 689" stroke="#C0C0C0" stroke-width="1" zIndex="1" opacity="1"></path><path fill="none" d="M 439.5 42 L 439.5 689" stroke="#C0C0C0" stroke-width="1" zIndex="1" opacity="1"></path><path fill="none" d="M 468.5 42 L 468.5 689" stroke="#C0C0C0" stroke-width="1" zIndex="1" opacity="1"></path><path fill="none" d="M 497.5 42 L 497.5 689" stroke="#C0C0C0" stroke-width="1" zIndex="1" opacity="1"></path><path fill="none" d="M 526.5 42 L 526.5 689" stroke="#C0C0C0" stroke-width="1" zIndex="1" opacity="1"></path><path fill="none" d="M 554.5 42 L 554.5 689" stroke="#C0C0C0" stroke-width="1" zIndex="1" opacity="1"></path><path fill="none" d="M 583.5 42 L 583.5 689" stroke="#C0C0C0" stroke-width="1" zIndex="1" opacity="1"></path><path fill="none" d="M 613.5 42 L 613.5 689" stroke="#C0C0C0" stroke-width="1" zIndex="1" opacity="1"></path><path fill="none" d="M 324.5 42 L 324.5 689" stroke="#C0C0C0" stroke-width="1" zIndex="1" opacity="1"></path></g><g class="highcharts-grid" zIndex="1"></g><g class="highcharts-axis" zIndex="2"><path fill="none" d="M 324.5 42 L 324.5 689" stroke="#C0D0E0" stroke-width="1" zIndex="7" visibility="visible"></path></g><g class="highcharts-axis" zIndex="2"><path fill="none" d="M 613.5 42 L 613.5 689" stroke="#C0D0E0" stroke-width="1" zIndex="7" visibility="visible"></path></g><g class="highcharts-axis" zIndex="2"><path fill="none" d="M 325 41.5 L 613 41.5" stroke="#C0D0E0" stroke-width="1" zIndex="7" visibility="visible"></path></g><g class="highcharts-axis" zIndex="2"><path fill="none" d="M 325 689.5 L 613 689.5" stroke="#C0D0E0" stroke-width="1" zIndex="7" visibility="visible"></path></g><g class="highcharts-series-group" zIndex="3"><g class="highcharts-series" visibility="visible" zIndex="0.1" transform="translate(613,689) rotate(90) scale(-1,1) scale(1 1)" width="288" height="647" clip-path="url(#highcharts-51)"><rect x="617.5" y="-0.5" width="29" height="122" fill="#90ee7e" rx="0" ry="0" stroke="#FFFFFF" stroke-width="1"></rect><rect x="587.5" y="23.5" width="30" height="98" fill="#90ee7e" rx="0" ry="0" stroke="#FFFFFF" stroke-width="1"></rect><rect x="558.5" y="49.5" width="29" height="72" fill="#90ee7e" rx="0" ry="0" stroke="#FFFFFF" stroke-width="1"></rect><rect x="528.5" y="72.5" width="30" height="49" fill="#90ee7e" rx="0" ry="0" stroke="#FFFFFF" stroke-width="1"></rect><rect x="499.5" y="107.5" width="29" height="14" fill="#90ee7e" rx="0" ry="0" stroke="#FFFFFF" stroke-width="1"></rect><rect x="470.5" y="130.5" width="29" height="0" fill="#90ee7e" rx="0" ry="0" stroke="#FFFFFF" stroke-width="1"></rect><rect x="440.5" y="153.5" width="30" height="0" fill="#90ee7e" rx="0" ry="0" stroke="#FFFFFF" stroke-width="1"></rect><rect x="411.5" y="153.5" width="29" height="0" fill="#90ee7e" rx="0" ry="0" stroke="#FFFFFF" stroke-width="1"></rect><rect x="381.5" y="164.5" width="30" height="0" fill="#90ee7e" rx="0" ry="0" stroke="#FFFFFF" stroke-width="1"></rect><rect x="352.5" y="187.5" width="29" height="0" fill="#90ee7e" rx="0" ry="0" stroke="#FFFFFF" stroke-width="1"></rect><rect x="323.5" y="207.5" width="29" height="0" fill="#90ee7e" rx="0" ry="0" stroke="#FFFFFF" stroke-width="1"></rect><rect x="293.5" y="216.5" width="30" height="0" fill="#90ee7e" rx="0" ry="0" stroke="#FFFFFF" stroke-width="1"></rect><rect x="264.5" y="225.5" width="29" height="0" fill="#90ee7e" rx="0" ry="0" stroke="#FFFFFF" stroke-width="1"></rect><rect x="234.5" y="259.5" width="30" height="0" fill="#90ee7e" rx="0" ry="0" stroke="#FFFFFF" stroke-width="1"></rect><rect x="205.5" y="259.5" width="29" height="0" fill="#90ee7e" rx="0" ry="0" stroke="#FFFFFF" stroke-width="1"></rect><rect x="175.5" y="268.5" width="30" height="0" fill="#90ee7e" rx="0" ry="0" stroke="#FFFFFF" stroke-width="1"></rect><rect x="146.5" y="274.5" width="29" height="0" fill="#90ee7e" rx="0" ry="0" stroke="#FFFFFF" stroke-width="1"></rect><rect x="117.5" y="274.5" width="29" height="0" fill="#90ee7e" rx="0" ry="0" stroke="#FFFFFF" stroke-width="1"></rect><rect x="87.5" y="287.5" width="30" height="0" fill="#90ee7e" rx="0" ry="0" stroke="#FFFFFF" stroke-width="1"></rect><rect x="58.5" y="287.5" width="29" height="0" fill="#90ee7e" rx="0" ry="0" stroke="#FFFFFF" stroke-width="1"></rect><rect x="28.5" y="287.5" width="30" height="0" fill="#90ee7e" rx="0" ry="0" stroke="#FFFFFF" stroke-width="1"></rect><rect x="-0.5" y="287.5" width="29" height="0" fill="#90ee7e" rx="0" ry="0" stroke="#FFFFFF" stroke-width="1"></rect></g><g class="highcharts-markers" visibility="visible" zIndex="0.1" transform="translate(613,689) rotate(90) scale(-1,1) scale(1 1)" width="288" height="647" clip-path="none"></g><g class="highcharts-series" visibility="visible" zIndex="0.1" transform="translate(613,689) rotate(90) scale(-1,1) scale(1 1)" width="288" height="647" clip-path="url(#highcharts-51)"><rect x="617.5" y="121.5" width="29" height="46" fill="#7cb5ec" rx="0" ry="0" stroke="#FFFFFF" stroke-width="1"></rect><rect x="587.5" y="121.5" width="30" height="46" fill="#7cb5ec" rx="0" ry="0" stroke="#FFFFFF" stroke-width="1"></rect><rect x="558.5" y="121.5" width="29" height="46" fill="#7cb5ec" rx="0" ry="0" stroke="#FFFFFF" stroke-width="1"></rect><rect x="528.5" y="121.5" width="30" height="46" fill="#7cb5ec" rx="0" ry="0" stroke="#FFFFFF" stroke-width="1"></rect><rect x="499.5" y="121.5" width="29" height="46" fill="#7cb5ec" rx="0" ry="0" stroke="#FFFFFF" stroke-width="1"></rect><rect x="470.5" y="130.5" width="29" height="37" fill="#7cb5ec" rx="0" ry="0" stroke="#FFFFFF" stroke-width="1"></rect><rect x="440.5" y="153.5" width="30" height="14" fill="#7cb5ec" rx="0" ry="0" stroke="#FFFFFF" stroke-width="1"></rect><rect x="411.5" y="153.5" width="29" height="14" fill="#7cb5ec" rx="0" ry="0" stroke="#FFFFFF" stroke-width="1"></rect><rect x="381.5" y="164.5" width="30" height="3" fill="#7cb5ec" rx="0" ry="0" stroke="#FFFFFF" stroke-width="1"></rect><rect x="352.5" y="187.5" width="29" height="0" fill="#7cb5ec" rx="0" ry="0" stroke="#FFFFFF" stroke-width="1"></rect><rect x="323.5" y="207.5" width="29" height="0" fill="#7cb5ec" rx="0" ry="0" stroke="#FFFFFF" stroke-width="1"></rect><rect x="293.5" y="216.5" width="30" height="0" fill="#7cb5ec" rx="0" ry="0" stroke="#FFFFFF" stroke-width="1"></rect><rect x="264.5" y="225.5" width="29" height="0" fill="#7cb5ec" rx="0" ry="0" stroke="#FFFFFF" stroke-width="1"></rect><rect x="234.5" y="259.5" width="30" height="0" fill="#7cb5ec" rx="0" ry="0" stroke="#FFFFFF" stroke-width="1"></rect><rect x="205.5" y="259.5" width="29" height="0" fill="#7cb5ec" rx="0" ry="0" stroke="#FFFFFF" stroke-width="1"></rect><rect x="175.5" y="268.5" width="30" height="0" fill="#7cb5ec" rx="0" ry="0" stroke="#FFFFFF" stroke-width="1"></rect><rect x="146.5" y="274.5" width="29" height="0" fill="#7cb5ec" rx="0" ry="0" stroke="#FFFFFF" stroke-width="1"></rect><rect x="117.5" y="274.5" width="29" height="0" fill="#7cb5ec" rx="0" ry="0" stroke="#FFFFFF" stroke-width="1"></rect><rect x="87.5" y="287.5" width="30" height="0" fill="#7cb5ec" rx="0" ry="0" stroke="#FFFFFF" stroke-width="1"></rect><rect x="58.5" y="287.5" width="29" height="0" fill="#7cb5ec" rx="0" ry="0" stroke="#FFFFFF" stroke-width="1"></rect><rect x="28.5" y="287.5" width="30" height="0" fill="#7cb5ec" rx="0" ry="0" stroke="#FFFFFF" stroke-width="1"></rect><rect x="-0.5" y="287.5" width="29" height="0" fill="#7cb5ec" rx="0" ry="0" stroke="#FFFFFF" stroke-width="1"></rect></g><g class="highcharts-markers" visibility="visible" zIndex="0.1" transform="translate(613,689) rotate(90) scale(-1,1) scale(1 1)" width="288" height="647" clip-path="none"></g><g class="highcharts-series" visibility="visible" zIndex="0.1" transform="translate(613,689) rotate(90) scale(-1,1) scale(1 1)" width="288" height="647" clip-path="url(#highcharts-51)"><rect x="617.5" y="167.5" width="29" height="121" fill="#f7a35c" rx="0" ry="0" stroke="#FFFFFF" stroke-width="1"></rect><rect x="587.5" y="167.5" width="30" height="121" fill="#f7a35c" rx="0" ry="0" stroke="#FFFFFF" stroke-width="1"></rect><rect x="558.5" y="167.5" width="29" height="121" fill="#f7a35c" rx="0" ry="0" stroke="#FFFFFF" stroke-width="1"></rect><rect x="528.5" y="167.5" width="30" height="121" fill="#f7a35c" rx="0" ry="0" stroke="#FFFFFF" stroke-width="1"></rect><rect x="499.5" y="167.5" width="29" height="121" fill="#f7a35c" rx="0" ry="0" stroke="#FFFFFF" stroke-width="1"></rect><rect x="470.5" y="167.5" width="29" height="121" fill="#f7a35c" rx="0" ry="0" stroke="#FFFFFF" stroke-width="1"></rect><rect x="440.5" y="167.5" width="30" height="121" fill="#f7a35c" rx="0" ry="0" stroke="#FFFFFF" stroke-width="1"></rect><rect x="411.5" y="167.5" width="29" height="121" fill="#f7a35c" rx="0" ry="0" stroke="#FFFFFF" stroke-width="1"></rect><rect x="381.5" y="167.5" width="30" height="121" fill="#f7a35c" rx="0" ry="0" stroke="#FFFFFF" stroke-width="1"></rect><rect x="352.5" y="187.5" width="29" height="101" fill="#f7a35c" rx="0" ry="0" stroke="#FFFFFF" stroke-width="1"></rect><rect x="323.5" y="207.5" width="29" height="81" fill="#f7a35c" rx="0" ry="0" stroke="#FFFFFF" stroke-width="1"></rect><rect x="293.5" y="216.5" width="30" height="72" fill="#f7a35c" rx="0" ry="0" stroke="#FFFFFF" stroke-width="1"></rect><rect x="264.5" y="225.5" width="29" height="63" fill="#f7a35c" rx="0" ry="0" stroke="#FFFFFF" stroke-width="1"></rect><rect x="234.5" y="259.5" width="30" height="29" fill="#f7a35c" rx="0" ry="0" stroke="#FFFFFF" stroke-width="1"></rect><rect x="205.5" y="259.5" width="29" height="29" fill="#f7a35c" rx="0" ry="0" stroke="#FFFFFF" stroke-width="1"></rect><rect x="175.5" y="268.5" width="30" height="20" fill="#f7a35c" rx="0" ry="0" stroke="#FFFFFF" stroke-width="1"></rect><rect x="146.5" y="274.5" width="29" height="14" fill="#f7a35c" rx="0" ry="0" stroke="#FFFFFF" stroke-width="1"></rect><rect x="117.5" y="274.5" width="29" height="14" fill="#f7a35c" rx="0" ry="0" stroke="#FFFFFF" stroke-width="1"></rect><rect x="87.5" y="287.5" width="30" height="1" fill="#f7a35c" rx="0" ry="0" stroke="#FFFFFF" stroke-width="1"></rect><rect x="58.5" y="287.5" width="29" height="1" fill="#f7a35c" rx="0" ry="0" stroke="#FFFFFF" stroke-width="1"></rect><rect x="28.5" y="287.5" width="30" height="1" fill="#f7a35c" rx="0" ry="0" stroke="#FFFFFF" stroke-width="1"></rect><rect x="-0.5" y="287.5" width="29" height="1" fill="#f7a35c" rx="0" ry="0" stroke="#FFFFFF" stroke-width="1"></rect></g><g class="highcharts-markers" visibility="visible" zIndex="0.1" transform="translate(613,689) rotate(90) scale(-1,1) scale(1 1)" width="288" height="647" clip-path="none"></g></g><g class="highcharts-axis-labels highcharts-xaxis-labels" zIndex="7"></g><g class="highcharts-axis-labels highcharts-xaxis-labels" zIndex="7"></g><g class="highcharts-axis-labels highcharts-yaxis-labels" zIndex="7"></g><g class="highcharts-axis-labels highcharts-yaxis-labels" zIndex="7"></g><g class="highcharts-tooltip" zIndex="8" style="cursor:default;padding:0;white-space:nowrap;" transform="translate(0,-9999)"><path fill="rgba(219,219,216,0.8)" d="M 3 0 L 13 0 C 16 0 16 0 16 3 L 16 13 C 16 16 16 16 13 16 L 3 16 C 0 16 0 16 0 13 L 0 3 C 0 0 0 0 3 0"></path><text x="8" zIndex="1" style="font-size:12px;color:#333333;fill:#333333;" y="21"></text></g></svg>
